<mxfile host="Electron" modified="2024-03-29T05:38:05.510Z" agent="Mozilla/5.0 (X11; Linux x86_64) AppleWebKit/537.36 (KHTML, like Gecko) draw.io/24.0.4 Chrome/120.0.6099.109 Electron/28.1.0 Safari/537.36" etag="KHITkkKPAxm87rZXcbg9" version="24.0.4" type="device">
  <diagram name="Page-1" id="gSDYtFh96y3Iq332j_Bk">
    <mxGraphModel dx="1062" dy="624" grid="1" gridSize="10" guides="1" tooltips="1" connect="1" arrows="1" fold="1" page="1" pageScale="1" pageWidth="4681" pageHeight="3300" math="0" shadow="0">
      <root>
        <mxCell id="0" />
        <mxCell id="1" parent="0" />
        <mxCell id="r32NBZHfsy_EUD98Y5zu-2" value="" style="shape=image;verticalLabelPosition=bottom;labelBackgroundColor=default;verticalAlign=top;aspect=fixed;imageAspect=0;image=data:image/png,iVBORw0KGgoAAAANSUhEUgAAAQYAAAD8CAYAAACVSwr3AAAABHNCSVQICAgIfAhkiAAAABl0RVh0U29mdHdhcmUAZ25vbWUtc2NyZWVuc2hvdO8Dvz4AAAAxdEVYdENyZWF0aW9uIFRpbWUAVHVlc2RheSAyMyBKYW51YXJ5IDIwMjQgMDk6MTM6NDMgUE11mnGjAAAgAElEQVR4nOy9SaxuSXIe9kWe8///nd5Qw6upq6vn7urqbrKbkymRFEVSBEnQtmxrIW8EGYbhjSV4YcALwfDOEAzYsGBo451gw/LK3nhBEJRoCSIpiRTJVpPsoapfVdfQNdeb7vBPJzO8yIzMyDx5/ukO1YZvFF7de8/Jk3NGfBEZGUnMzLima7qma1JkPu4KXNM1XdOPHl0zhmu6pmvq0TVjuKZruqYeXTOGa7qma+rRNWO4pmu6ph5dM4ZruqZr6tE1Y7ima7qmHl0zhmu6pmvq0TVjuKZruqYeXTOGa7qma+rRNWO4pmu6ph5dM4ZruqZr6lF7GZkyM+RsFhFdRhHX9P9Tqp35q82xTdN93PSjWCfgAhmDDAQ7hnMWzrn64KDSEWv6hkMSXp80z7Y2YSrF1p7FhzTwfqCePQhGdVDGYJD0j9STOf2+BZX1K3u9luM2fbruPRf5xeehfYaoV6dtiMLHTP1n+jkVHcHhGa9pgH7NlWc12qg9azKT+UlE8Z9+/nESnffYtf58uVzCLrvYMI0cVlai6AhKL9KDMMDkivyI/IIqf9+SdJ2zvzfOIE3EWr5lOr+a2Ld1S8ZQpnCqm4jT30JmoBGOAiMbeE9Evr5ln8OPxaZ9YwC4LOO8zHULwSjGwMUz/dwUjMGFZ7E/Qrm6eEIuIGL+a9rk1rwH+nNqEzLGoGmaj51JnJsxOOdgrcVyuYRzDsQMAoHBAAOO8y5kDhJkk2JlvSBx/nLhbUs1qcOqrDJ/9hXufVPLV09OPSn04Eo6WcS+fO4jqRqcGaCMMYBiP61ENwoukIYNq8oj3y52vk88g8vbVyvTIS00WXzbLLwmoC4GwzHDGNNHByXzMtSbM6z6KRPmFXQYvymZd0kynkSR2ZdlDfcph7mn5kfoz6Zp0Latb+vHwBzOxRiYGcvlEt1y6VUIMFpj4HuLYa2FjdlzXOAUJPs2BQ9x37LThmwbsvh7zKBWiQoDkoV03iEqGcWuVJNymgwXEhaAU2VT+J+TTEKbzS6qzJb2pFTnoGqAqkhtSNVxNIyC1vVvREkXRL6sAvHKn3pRW5EYqZ5AQtTGNH2EbQij0SgyiKuknW0MzIzFYoHFYhFRQtM2ACed0hDBMkf0IMMc7REqv7U63QD/Kp977g1VphQwzPHhFJdnpZcGJubAgVFssWgC46NN0dGqrNYlqEj7Up1wOt1OhRT5Vdqk26mLqqmKBC9ch7pVMzXiUF7gZjXU5oJkFxRTIxlTB8oQzEAVNiLHDCbPjHS7QAakjfCGimpx9mtiaP4bxwxyhOViAeccxuNxZoe4bNqJMTAznHVYhEobY9AYAxAlNYEIZAzgEijUcLkcuovYxZBya1LGdzjymdBTG9R3nP3wg0cVyF9kQ8D5GcGqvlDmCIHxVNYVhaSNjKPIT30g3aGZdq0f9d+1rsyQTFisJdoTZpCpdSWczhpR6pQI4xz6Ccq4yQwypmBSUj68kkvc4x0OZX+tVo/0O9IqhFSDLIxeyJTPHKcFBjPAXuEiMmC2YXwdGATnFgCAyWSS1taKOl0E7cwYprOptykEfQhq8ONEoWEdq9ewc3LCuJgq5VWt0pU69XcURF+v6Ba9tClfUlZ4P7cp6aKrc1mXtf/JXLUh0MDvNT7lVGUkrV7gef1VXmWBK7pl5a5QqH9NdVHrDGCg0QyEi3SA390hxVBQ2CjCTyPlc94ujewig9PjOdzEQdJ2GyITUQFCWQYEJoJXwDnanZkZTdMC6OBcWku269ARoR2Pd55H29DWjEFUCGstmBnj8ag38TLJc0GxZtchiqFdhVihGlyt6KMa+gt3Dm/8wFUs9KWEKckZxIXMKyZchNXFjkh1p4OG36+ikknSFrMsg/0b8Enp25raERewFiTwjEJUUKg0pli4HJiB2Ks8lPc5xfShojovzYxc8XyoSZKfTm/UfNNoacinolQDks0qN+JKGkMGLJiI/bxbLJYwbQtqml4ZF007IQZrLQBg1LS+YRybgAjczrF1WKNtVIxq2gxuc1ohJQbW+ej3QSGWdTS0ngZbLN3Ba9JWHq7rxU16OdabY3X8cxpgUEPPSn1lRXk9Ow8G+IpIVu6nEyoXsTwTzULsRFpZFc2jV3Zh+KYi/whZKKkhkYENa3d5feERSmJYBWWwSNL7UTIMb7h0DuycmnOMbrHEeM+cG2Gvo50QQ9d14LBtxG5HrHVBVCKEGlPIoHBYoBSkfMkXerse8nxtRSqFlY+URqKlb03i1xYOeCDtBv1Pxc+Y31Birv8eF2Lxrspcep2b/ehr8VplKPMqKJPiNT8YVdaQihWfKZSYpZWsVxiQhwSW8ZUEiMGy3V0wKdYPtappRLim9BwM/F3XoXUjr75fIm29ByIqxDq6LIY2tD25bR6bLKbyG/9v6+LWEqt/eaHozWSu/Fubf0jI6vdykW5cV12nDdSJmE6VV7OBGqyvi6gBjLSYhxZmZkzcgUwB/Q0RXBAqm0w5B99OB2kzeX8Y1X+9HatgUxDGYJTXrKQa8ii+aNoaMVhrAccwrffOcs6CoKCN6L6XVPmyU4b2d4dsEjWJqw155aT1duEEKSOD55R+3QSsue+yS6KXKhKlnpH6nYuFp1+VdgQtkJXUj05ORRFZH2lEsEZ10FWMsFvpXpnDUXgmc8XG+lHPJiHoilRdvJ2FIsQX9CBfyqwowY8LD/SscQot1BiNGDIbpMEu7Q0W7FWHkMDAj7EJllPyH8VvEmMzYFgYBkzj/R5M6BcyABGDw4DKnLbLJdr2Uo45Rdo6dxe2HzOOPSDZthZHOxCzlw3n2uZc9ymLxjr4eiWSqH75MapfWRXWYfYN89FG1fiDi2cDZcniZfSNkSXJe0Dg9epqZzxOGBRla/TcQ6HRidgv4m6L0mVSd7Bf/MroFOfXgGqk0aGrGcAvmLZWJdh5cJT2Zw0YBIfUQYQBg8ulEMF2XWRY6bGXKDW4XevWQVjOxeQayM+x8iLsVzH+E6cehpde8RsNtWv1WEEbqxVlIvXhShfqKNn9BC6zEQPbriMuayd+T5X2lONQGBA39aNdKwOUU9I2VEVUIjRDvn0BqhBEeMGStkhRwVCXStsbH50FyIDQBI+vor2K4V0BYPDQSx062erbXdNQ/mvWdmzWbqMNbtkq2+DjVFz+zQYFU/FzK6JMACYJNmSwKIVmpX6NUgckiWbxujz9jIv3SSjlz+PWpHNhbtJgPw0NQ016lv4XVn0XtzKRjKTxjAmC4CSKKkL0oWCOXrsEA3aIaUSLYSDbfr0s2poxkIwwJX2s5+d+BRXXdBl+5KLXCkXG49IW2a4SMura56viTlROfvEP0Ocoat+kOvfT8BrGJjaFss+YAAuOzEH6PNv5UNkOzaqNmHHhG1JzrKr5W6wjQS5kKGNM4sK9ei34d458+kb7OUAhqWDDuEraHjHAgEVxcMqwUhsd6m8HXjYNLdh19YjvayIRyGZ/ZrTTGZJKNrBYosRmJH1Slyfl177ngXaoOkdpqlUDXX6R76aLIVYrMJAhSb5qADKbhhL7TjdWN5AHhgJ5Gn16M6srlNAqXso3LnTqkJ0pqizr/HJcrmJlyEzGukeyfrzhUu+ysNr+yJgLDeV1sbQDY6iQZ2v+/dUyth5Fp5rgTx4nslpscdLoD9VELAeXkSZOVBUl4QpnqtqkpiJZVdqtEI3V+VvMyGwBVvKoPl6liokoLNo1WEdhYJSnj4xjoCoZj+XU772dJKr8XqQZOrzGtFvgGA/v83yk3Fp/6FOsGZOo1JGqb9NHpe3qKpbYTg5OQvqIbJyX5cy/YhJHkI1oYFLVM1afrdAjtkFGtSAukn+pysQqlAxAfeqK72XyltJ0l7rqOq/sLk4IoByHTcsjKDvDBmNjQHFbGRg+fyGIbjDISkWNkVOTNrbJP4t5qA/k3RANbqGHLUvxlTEGsDagFZY+H+BAl0RbM4YG5A0tJAwhHOgR6VnA5itsi69fDOohk4HigoodLPXLYJt/piFl/F2dYTbFUcaaJ6N63SOm4QmCPOse9aC4euFCG2T7OI1JmUH6XrKoWWh6DMR5tWfI9yH/O9dreFMTkJr7sZjwiz4rIXEjXBjNAtAkbUahfx0ciJU+H+1Fqk216mofhlgtAsjl3SEMQ+JfGAcwOVDT5IyyQK8I+YlTlPeNSHlFoXBFC2pnVYLl/6Inix51yT7cu5IfgHxGR/SzDuVkccRWJ+2pJ6qsLNJRrZ/O2XW7+nJoCTqUQ03t6pVf+2aHKmVq3homBCTvwiqRpBmWuCUT9FM5PzJe+6YXIQpInIgSG2DAhyQkXZbaSmeXCaeY18e4lnZynxL7a/TPoNA7LkkpLhRKhYBXk+7sLfplVf5xgEq+tVJCpwq4sHR8q01RkB7NMK0CMhHwmUUbEuQSjWJKEpUVqa604n2ch7RidZT5FJ2rymcMVEdsNpXiq8wwvOjxkDVjuqoLdFlG2w8KEe/Aqc+FH/RhTY9qVVs1DX3bkpu8jHlEH2vctxNiLUrbdBwvkbZnDEwI58YA8kEx/HP1Q36vzaJLoFq2EZIqdcEgrYnqqbuYYT6jvXoSoGcJJ/WxW0qfyvukXaX/D3bLBoxwHbgp21Kd2ALyBsZk1UJfW6ni+SCjWUNllno7E1CCeeB7LSj8P6oiGAJBH0cSrVF2CYbOY5jip/+dskrF8uKkU8qEeC+ygzjjgeFjfyCd1dgl1N5F0MU4XLu4gvLFJb8C1b1pn4zTCgqJL2qfv7RMR87N9QXjJYsMUt+XbqP4DTGv1IAyZNzWYeIqtKpPAfS2JXt1XvN9mRcDcCFTQSfb8nmSigPVRTpE0UmppwxuWKicv1DQITKrgTroMxjnJQpMQTMabfNIEab8+yYI22xu4fzrYRvanjF4q4rw3+ittSmV8zVauUv9qvLdumJKyUTqhRd4yXI9mJcaiFr+tfVG5QtFobvyIgZ+H0ykKrvu1GAVfaxbTavec6U/exwTqXNW4fF17weq5OMqIhgdVRoqmFtlDmVjNFD9vFy/q7XplN44UAsUg0BSOzh+J7/oevQZIbFCJpdIOxgfhcsp0kY19VuZlqDga7GY4p/BBFvOa/m2ejqyVtGhvqudZKz4pmdZsAxcflw7Tcg6vCH221x6W3dl3dZRwfk2USWGissYZOjgTIqrMWD1S5b/KjVDvZPuWYUCNYrrHctWagOBci9N8vaEKvMVpKYqpJ/ragIpina5wM8b2duB0TZNqmTcYZFdFa4isGSevHp1YgeX6NSrO3UY6eMiFeLETnpCb2scWck+1kMjCr3aV6y6akYpv/K9H1Jau0irtONc2KaLkupDGczfpexyQUdeEZj5uixX1VtvTXI4eyAh5OW49jmqnkhtYSZbBp97aRoQ2Lq8jLXHBxh+n7df+o9kPAYAEMuVMZXuUriu1gB9k1TvLQE+cKbmoBwkdn1osiCehMjxxf8/PE4DoQJsolJ/bVGuid+q34IwgQqzoJo3TTA29CSypgFuQsXfZXm971eoOdLGGOeghhaQL2wHjlA22tR0mUmQ9+raq3ZFakcBoHw9XJoJICSfDelah3BQCQlVih8Bwx86ElsBIR+nqiqg6xzyLQ96GbXACSnOg5AvE3CWwU2Y19HAmOalNl6SAggEA24Y6D6ee6fPYXwcmHGVybUyl2JWsJotxBnKr1LJfIa4aS10V82LU70sKreCKF8EUe9lteip+GCDPC+SaipGSRshG2GMm2S4Iq/yGaE4VUlphm3CNyVkXwxyot+Ff5sssV48hUqZJSMbEgoO8Ieryq2srAGrB3oVX79M2pEx+FVfUyUkLPkm5psIXyn9raWQ8PiNw7BtC//1K3Gl1iOh1IoEJPTOS/ohFpVSdZAJApSQOplCa1uoGy3STKwj2yrN2rYqn1UqkW4fpV8k+NQgb+Ch39UlPEX9nXNp6xuIY8FlHpV6+oWZ7qKoWfNLJnMeOJ6pARRrm1FTY30BCUn0qRSopVAV9BPZA79iOgdicFXGMOSXL1Q93KKhuvpbT55ycuuFCgXzqqQXTDQ+8upFsQGrLqXSUILystVeYWX7K9kMtX+o2GzhQSQbZ2rZxqBEmFvIuOriXGlD6SfBQ3OcAGpEQUkHi3qoYKDS5YU7+hJdwsCWY0BzTGkRi+qp069FEFzVSLM0DKBtTNquNMVEK09PGsqiXv9/CDEgHvio+f2v2h+v+RWsSrfSuGlSkI8yVSmRSklRe6/VDS19ddp1iym7XQkKiayhVdGfz3uRb6oPnUtFkXs2evdcYHjRAikeI7A6mK5faP3Gbl7lcMPUlgZxHeugJ+eVzUr+BpLNYTAYrQgr5b8A5LFDEnKiyDAk5qOl0A6iaC+JrfxRND5q/XnjEdOLTEuxDRs4WIzrI4WsWuqPHjioFC0TPGoSZcZAZSuNE+SVv1nmpgoDXpa3Et+fjwaZ8kBxteeuTADO1Kh4gQ7Qszcw8r/XxnxYUeFefQf6LaoMlEeEGqQgTQzn6GLVd9l9mhDNoF95MYTqomIlJb1J6kgUkI4BEzwhQ4M+Jk1iBz8GEToizUqOKZ2nPQdpeOyHaN026EYDD9R3EVbkR+gv/gwOI0cVvXzUgsk7aqDgYvJXtY6B92XCoS7T63aQOZTMq1cQ5dG0E/cbboC8qzWK+yqAfr9uMYh7u55jPbgWMq8amdPay8Z+1e4X5Q+y3bDYptCezA8ipF+/wvP35DhjPtvI4vPSTqcrCcOV1Nw3g+3q+ZVQbdJp6mNG/yN+N4SXw/tiQWcGKUOZOlVtc8hP9+U65rVr55ULTxAfDSZal49nCr1PanmsyDdb1CWt4ZbrAiXXToxWiykX/IZ5ZmYWPS8Cp6mqf7Xt8d62nJ8JBIoBWj4GwLCDKoEwkdUCEl0K0B1GOfQ8VzW3q99geSV6yBZ6YGJrKhqnkRI1OgyXBP0kBMeWwChqdYl1VVx25U1T6l1v3RSTcZCBqz6ojk1NHeh5o3rp50j1h8or3ctYqX+tDeuYqH43sEr0nROopIv3TrDcgxnm6hYTs2QGJRgy4bnYYnS95di1PhMEgleHgx0BLFubBmrPavMKXiDtvish7bYDEx8q6u0A17sy9KCIe79sWZHgt9/LYyivTfLeQdWqIbatp9CGsL2aP61v2lD39HYrNiu+l8+6cvR7bXfQd1fkB9/6qkTJQEklFuR1UVSeBHaRkeSFXIXxcXe3KmYfDtsUkHJQFP3oUSbICiDQkzycJnX0UCu1DaJwNRmFOyPKSIF1Eomvs60OfZFVNR2tTxeHhwcgry5rEOavOGq0Rn0YcpHeZbpUF7KcebiAk5FDFONtkOryFcXFcdW2N+UnU8oa7ftS0mW2S+gciCEF7qjWk9UCwuXyiFz4B1mqRGpcCETeHTWscBlMj2pyDJ0OPqkTmaR3GYLqUAA+4bSCkjZqtzCldWKwfFbTFUpmpR6t4wFVJlNkVMov1RW9PGr5nochaImuEUDtWvv4jXJp1pSpACsWWoXPhucqjoNKUD0YXtHrpN80c40IRuqs6rdLaPvz0E7BYJP/Qb/LaqcPt43GdC6SbZNKodFTjQHiItx31P38k2zfuJdTUaTkwar9lO4gvCzaNJ7CEG3tJ0HebqL3/X3EZf83Y0Wg1c2L6EvUFQt3iBmkLPJDUNsYGzeh8qzFKqoxaZmFNf7egND1OPHVLKTzBWrRsHoljEoJLqJZq5yfonefSHKlC8f+1WJgYFHE3aUKo4t5FM8G19c6kckiDQcWlgJBDVIaRvnLcLHBXhibHiG9AlcipQzS/YjZQTmWA0sK8jL35205mWtwGClWY1aEQiWJaSseMZBP2W5Sjb0oB7Eh6tUX6cIZgJK+Xqt8OJBYtiJgoCjAIm1zhuccdC7GoCVkXyXNPcbiyw0HSfQ3+SP+ugGkyhiGMhZK9CZAXHyDx5mrVyvFUVwdOUiUChDU6VGK7c3WiKoa5RkM2gI0ucr+eWmRT+9SBTQ6iIyFAOJ0ykOSWyQVqhfnoFAnSFVUt0eF8qmeAYlrwqdQHaARaaozh3GMgV8z4cBZ3k0oW2uHMRn3pbM2EFzqktPu++F/pJFp4BFypFwqxFdwiW1J52IMHP+Hao+e20iyoj8G72QodH5rO5AxaJoGTdNuPvK7qD8lNw8dpBeGq+Wpr0c3aoKGBQGTQtLBENi5nu4rZ0aieDXhollmsFFMxzkYMvEoc4Lifb3Er6P+ILCsugAPpB4OnO5nDO68RWfE/MLVyNkil3Y7mVih/VZc3+MKT2oUMYODOkPO/97FvfTEFGMAFulTjUIaA2P6rt6bkh8Wiu0bysY5VznF2/+z/P7q2cKOLtFgAyZas6Xh7bbUWygbljP0vMJstNRKZTGctWhGIxgyMZG+Qlx7KQq6KX0v+lbv1Y3IgszK/FRZmOJzpyYtdDuIwMYvOwp/y+umaZIZpcg/r0xaRDHj4KufxQFA/5q3DMevHbiQRpiBc6DY5/CMLN73Ifiq0B9WZj+QVvpECwUBPiukbAQPBMA6dNaCrYUxzeA3w1VTcTXkPEQxZ+KFu8YfFHPO+TMTjj2CMQQiE+6hCKESJZBH4BT6GPoOkS+3pp0RQ+nEUU+0a+7nJ2aGaZt0YWpt8onUUVbfnjGpAtsJAA+5ziKVtcpIK1kq4ShVkgYUuoGulH9W5pq1UKssRdPLpR5tGxXIX2TVA4iRqco7kpgIrvjeQewk8kwHQfX1qPfTKvCWSWhKea4DexGuNwYjM0K3XKYFexWkHJ6qrDdyOwKRig9Jl6zuBNqeMQTJexWVq1E5iYY0GTIGZNTpT0a2wCNTQM6Bewu0LF/9pheFKjn+kEM3fX02ld8rS2e4gqnU61Q8VKq7zlcvpG1I11fXTBtDq/aEIWa2sVrnhVDvZG4pO4OsSt1XMBzWYx3YlXWAITSjFt2yqxRdjK52fS+eraJoS1iVNhvuJFScaIkxr7XFnZt2u4mKeOXer6RzhYS4CKraFlRHOSTnFrnTsGQIZT11VoP1VLA9a1PEiXkd072RpSqiPy5+Vwpm5hq1aeetSTekFMizoRupet/UMlLPHPzuCYffazstWi7HEHyFY1It3iKH5x611buxHOoesuK0EyI7MKYhkDFRnVxHNUQ19J2RQuXYgJTDOS+IER4r/StT7CqYAnBR90oM0MeBKrQ/nnMuZwqrvguDwdUVkaaY3gEgIrjSaAA1oSmdlSjvENikHVtTmGW9yU1IO0irOHWBKqqqCiGLdpy/VH+WfbmqWO13gLTwdXq3oYTuRW7SeRP8hS6U58nwc2Vd3uvKXPd9XfXzMSSY/Vw1CKpYuSuD+phcFu1mfHT55RnAQIfssM2SQdFNeqFSRK8DNeavLXyuPINKy8XkkmTMGUPpZS8TPOiTIknXVbg+geqfDdIqaFD+PtDPgzyE/P9kshruS28FfrLvMi/JYg6VReg8hviYrqcuLyKSFatJM59NFp0wrRh4Vp6Hdq2yTohNipAjnsitjQlG280Zy2XSuRCDNtQMQrAh/DpA65jBWuivhVgoe7AKFfViKK1Oqidtz3QU+6FiO17RtqHbsXyWha68Lq+gaGu+xlL5sj5DzEKl6dltVT2oSNvLaqBDo29JpUr6RXRkHVowlEvXWh2zvBUD68VMqGVf+sTo56z3WDab5LGukbmw4n4U0/RsGxvlfnG0g0v0uruQPMXB3NJHdq0gqyzmwTrwRslyMpWV4BsTys2t4HriR1+CzaqX0ar05/EHET3fZ4TeBbu9smqvK8UzErqTdEPxCsohi3v+LliAKpcARfvUloIlfj9Ql/NQ6U6dM+rVY+ScQ9NU8GLBscXenITEDo2/ANpelTAGcDacrERflVDqQ9WZZ13+8ouSGPI878O6rImqSHTy0VwaCUEUdYtMm9NPvTAEEWV3DsrvlNrvkYTasVDl+G08pTsW+kPPl6DW1IqkHepmWVi1PHuqVo1WYOzapcCmTCtqVvmIU7xEI6tA3ivILeTAK2Ms1qq/vUfCbrTpFDfG9OvuOLhuG5BzQab0WUJvrMVj9xJdo7dmDE5MuhvU6VwW1MoEy56L/6j/o1+fYntLU9H/OQTmPK9y+6s6GF757KVfRaR/WfdBVb8o8hiigYVdYyxbDVcVWqwuJAt7N/SJCIJtKlM2YIv1ElVC8Su4RNCeqYShvFqo4EEV9ArBw07blQJPW7U/7CvPmZ4EJMPUNvmvepjf4rxBT+nJsmICZ31fwu2ScWxQ3CbVIuTIJDUn6aFAHRYTqXTFapL975hk0PYjak/qnPra6sMUhtL/9auyAzhPkIX+Q969BIAdZ6iszCo/I+EpRsoqy9yWwne1G8x2psqE0LsusaCB5KQQVZyj6zxFL4C2VyVcDp3DU8RhLqyvmzCFVUhW3m/TFX58ORwYCoO8piJD87n/x2rKjm9XVpl2tsnK5bTIUDDTunrh+5yDlPMXo/qKmuA9wc5huVxg0S3RdUssl120MRAA0zRoxxO04zHatkHTNPGoePRcLKRoOep549HryPiIciYojMWbGAIDVAtm2/Fm+H7adiHHPtcqorw7B1PQdp0UmIbCUZY0+LHsoaLE1ZGTn8NVWCJ3utR2U1/tofpvdGfEBdFKf4AdJEt2y9GQqiITXNpXhfLJ16F/vdkaJsbh+JFzWM5nmE2nmM0WsF2Hrutgu87bK0yDth1htDfGaDTCaDSBMU2QyA7MDl23xHw2B7Pzvvpk0DQGTdt4px8yaEZjtG3rz5zU6qPFvzRBHkm8SM7vd+xdYY/VAVfW9gft5PkxSJc5N2nAr3kIJUU/Bob35r3k+gG7blfK4KqtOU+UJWFDYFe+UX8r6bVKoK/rgkKVjQ/9MXcRxbnyb4qJuqqsBOFQZ4qE6LJaXmizKnRaraw+cnEgNoGHORAcpienePO1V/H+Bx/i6NZtPP/8p/DUc89iMtmDafL9AEJu9NcjRamErB60QIoAACAASURBVHDfBr9lNpvPcfroGA/P7oOMweHBAfYPDkBhtvp2rrD7F9rOYEOzWm+HGEyo8y4LJvZJMR7nFV6ZH0XKNEAbtU6YAecvCmaqhMtjF53TRI5dAWAA8ZYKy/HxMZx1GI1Haz3Q7GLZD6mlsGJuL9imFpuRqDJrT3jKqlbSO0tGOVLof5/S9Z6bAUnGfbNTBhO9OxwIjNlsinvvf4jT01MwO4z3D3Dn6Wdw64nHMGrbYkGraosLbshcFsEQ4isjH5XPu67DdDrFfD4HwQexaNsW7Wgc0qjVxerXAQ4oj2vu9dXITBheqOtuhhqiqNIAcUwY6aj8rozBqX4wAKhtVDtTP8WLZgBYZyMyi8fTbQfbuZhfQx4x3Lh1c6d6bUrb70poJXBNn7EhsM31tsyApXXvbSuiy1G/ZzpwI0db0wtRmVl/uGrwSUuVPLBGtSIFD6qFtSvP5fdKZwaRxfT0GH/2x9/EbGHxla9/Ay988YtoTeMFDjVwbIHgSkugeGdjnFTOZRMPUDYXVa5DWgBEFLfWyoNqTdvi6MYNHN44ApwFmHF8fIyHDx7iYH8fk729hCKukByvP7uzCQljZq4zq22oihSV41mSJQQyFN339a6YhADYxnh/UbQ1YxAITtWQ8Tn1Yv2jvwh6NyDJ8zKvVeWU+ckzx70Pc4ZQL5f0a9ZvhiuQxXuUxyEDzUtk4QFK/Yj5MxZnU7z39tt4+PABmnaMl37yZ/Dkk096pqQRP1vPCCzA7GAdB7tBSMG5WpNC3uX9BAjzoihxHRBiBKh/IB/mLdSDTAtmxq3bj+PGTYezszNMZ1PAMdrxCG3bhjIYEVj3h2Mw0Gk2psM9f26mQEj2DzHuXYRD1GCNqGwPwwbXeqN1PUlOgd2HiRIPBV4yXdghqm3Psq9bb+XEWLGWt+uobRXYSyQxz5BjMC/x9g9ew3e++wpe+vGfxtf/na+gbdvIXKL9ggHHDs5asHM5AwiutI59kBrrrP/bMaztwJxOn8pIOQCjEKDENA3apolH1kmQg68tGgnyYkxMI3R4eIjDg0M453B6fIyT40c4PDyEMU01QLDPsR8zMkHs3qMe9bb9foRoU8/LaBfZQqO/ijZvzxiKSQgM62Hp+KxqTClVh4rRL0WMc59BxO6sIINa3pklfI3JYG0lyw82UK+iPQAMYkK3mOLtH7yG+w8e4eYTd/Cr//5/gMlklPk0OMdw7Be5tdb3J/vjws45OO5gw+/s/E6Dsy4a5PwhnzBuFTWm8y6sEAZkmgbtaARjjP9HBqYxcMIw2IEcwZAJ6MFPfUFDR7du4tAe4PT0DItFh6Zt0bRNOsMxwJxFegObe9L3I2ylvHaiol7Sh5uikm2Q7soPkcas111BGPxIeT5GxhDcg4XKSpKCvjUpvVGThphorqQNf06rjYbVT0kZn3T8RclzBWen8H2ZLovJEFQOww7H9+/hj//1H+IzX/4qfuIXvoFRK2FMJa1D11l/JDgwYmZGZy1sZ9F1DtZ2cOQ8YkMDQ4yus+iWEtLVZYusGsKMGjiWMKsMMi32yGDcGsyXi7jgDRHIAKPRCI0JjIIIsBbGGLRNMLARgZoRjm7ehHMOJ4+O0S2X2N/fj/3hVDszVVNsHRtI0MGITzSg429Aclmu1vO3XX4sasFWH+UfyLwtd/7S1uWPGGPQnbae5P5Kp5zzlEFLif11WW56IKpkBMML2ev+RATLSg1ifST24nUOZov56SPc/d73sXDAz/7Sr+LWY7cQxIDXQR2jsx04SH3nHKyzsMIQrEXQIrwhM1S9aQkULtKx1nr9lAjWdQF2e+OpY5vpqhzQiBxqmkwatE0L0xhQOGJvrYUjgnEG1i5AxqsU7ahFa5r4fWMMqGnSpCXCzVu3sJjPMZtOQcZgNEo7WptK4oswLv4oUmngLd/pGKRXSdszhrjAOUrH7N42Zf3ze6+cqQJ5ZqsKCpnIH4XRoYRWOv8sSOpQ2aqOBmazug3NTVqtRXCQj4YN3nvrB/jjP/y3+Mu/8tfw9LNPhejE/mtmhu2stx8EW0HXdVguFn5hMmBDsFATNjv1DoIxDZgtQIRliI6NUC7BeobABmCGgwXIf98tlnCOQcRw3GAyhndyMgbWAMwmOjc57nynOYPOemTStj4K92g08tuGgUGILYIBjCcTjMYjzKYznJ6eYDKeYDQapTmEHLav1cgq26krx3oNGU5CbxNJHO/fQN+GUL2YWCG+IVuc9h8R21J6qfJfW7vz006ejxLtpk7SXdlXSbcu7BL6fLp/EPTVzOQYc+kZryKTSOJvuO6AMoRR792qv6WONbuKbkN9whosju/j7vdehmvG+PW/8Tewvz+J7rHeXmDRdV6yW+cCOuiw7DpYZ2M7jfERokW/F1QGgof3oezZbIam9TsH3rioIiQGpu44hHuPksli2S0TuiBC0zRgdUzWUNPrZmtt/OfD9DeAMWDTACagMfJelAcHB2jaBtOzKbBcYjweV1HerjD5PLbli4DmW+cQVfPsz2q+DIA32A28CLqE0G51q9KQKtCP4bjG7KRGvtxy20jViMY/7MR6t548zJg/+hD/6vf+ED/2s7+AZz5xB7po55xnCC7YDwIz8NLFLypS3oyGWr/QgspjjIm+JUTwfiNBMi2XfpGb1qHrxOhI0crHQTo5R3CWwWyxWCxxdHgU2UjTNEAj26sMsFG6b6iXGjNrvU2EjUHTsA+02jQR2RhjMBqPMRqNcXpygrPpGQ4PDuPYyfblVSsO0dX/knD7SkO9FLtmbhF2sF3sSDvZGIiavIERO1G28gznsEob54YLQAbNSz+H0jOxmn/Q1eMFLTLRSkMkq++EAkfOYgzqxq+qethOpLAhznaJN175Lt59/z6+8fN/FXeeegISXp6Zwdb5rUfnjYzLxQKOgcY0gPELjyoohYijLQHEqUtDfzMzGtOAg/OMIcJ4jKiegFJdfeAdByYHZx0sWyytC/cy+HKN0tEYDDLpwhpfv2TMZPY2i0Vnga7DaDTyDkPGgQyhRRuNaYeHB5jPZjg9PcZkbw/GNHDBeOmQfGZMMea6LzIKjzRQL0dsUN3b0p5kip/90hIi9nNZxo6KpOTjmjjyaMBQOLUamDhsuDkdG9niLop2UCUuxSanCsh+5M83KDfG0wP8PrsrjInhpc5OowcpN1PxthiNeGzALvC9P/ljnC5G+Llf+TU0htGAo2ei67wfgnMO8/kcs/kczlmMRmOAw05CCaZKb8kkZmPbl/NFMEgaELzuT4F7OmdhmGBdiMJFXt9lx95o2AKNa0GGMJ/P4dihaSidDox9VK9fqExgNsByucRiscB4PMbe3h4MDDruPILw6x+TvQnaSYv3fvgOHr9zxzO8YtE7Qp85bjgHL3Ih6TbXJTchuUml+hL6Lt6Kl8d0tZBuvW8ueTdC6ByqhDK3ZSurZnlBjgLC41rzMiSgEldVBV6RV2Z4QMEFVvAY7S1ZZCq6d+I8SAk5eafZ5Qx//qd/imZ8Ez/x0z8OQz5SjyN4v3drIScbZ9MZumWHzglyOEvbecrzkEP5evckTT6DaGtwgHMpHieROEeFuAXyt+qBJkCcjoC2NSB03h9isYQ1CFyVIEexCci3G+NOkxxkyt2+5/MFus5iMplgPB4FRBOMk2TQEOGZ5z6Bk5MTNG2L0XicRdLyZW7OELSNYmPEgPVzM2PGg7SZB4a+T3Uoz8xexaF/ReW5ZNqRMdS6u+SB+dtNm0LFL1R7p0srVQ39s/J8q8jTGqLrx5zy0fvujAbd/Bh/8Lv/D5757Ev46te+AgZHKN4t/YJjZswXM0ynU88MFjbu4LBzsCXslLoUht+45cdWHoDJ2xwSYyDB94ghS8kbLyPgCOoHDIGMv83aWl8Lb3jMEUIytiKqjKKmCFKLd1gaCjyMMHMzMLugXjAahF0V+B2VG7du4dGDBwCAyWicDcE2pHm2/t4hjVsp8WUerfKBOK+c3sWoKj41jLATNcxHLpQu9V6JlUSqgVxnK5cBmOqHWwBR1B24n4aUxJU6CgoSyU0EOzvBn/7RH+HZz7+EL335xfi5c8Eg54DOdpjP55gvPFS3zvqdHvb2BnbOg5aw+BwzqDEgRnQekl0FmWP6MjiiJiALfQcngRoKi9HHWWQVD5PEmAiCaRo4a+CsQwcA7C/F9QexQvnCJQMjEPUogrJwcI7BMM6ADYMbhmEDN52i67ro7AQgxXkgwo1bt3B2fII5z71aBRU8dsOFNeTzsE7iV+7B3orWqxqVOsm8Cwir5yio6sPAYHSri6adtisFWqaHCdYmSn9nB5uQBqgG29YNS4z6M8TdTWXLUJ0uFInpF3p4Fla6cGWI9FaCMTIyNXcIxvsNgOGWM/zeP/ltPP+lb+DLX/kKGF2AFozO+XMK1jlMpzN0tgOs3AxNsAwQG8A6zLvgJxAs/V3XoaUWTdPAhlIZXRwDYwCmJq1Z8j4QhkycVB6CisqBTJeVI77S701433ku5pmPo4A2EgtKXcw+5gb5XRQwBWcsh/FoAjR+DJz1LISZwK5D153i8PDA76rALwrDnmkd3biBhw8ewDEwGY3iZV/nJT++yPILYAbirr1uyfXApGJWRiWQfLdhEOSCMkaAC4adzNGO8tvdLpMuFzGs4O4xVgIoa+jaCRASOxqwURTcdIi7yiUhkiVBmAwrNaGfd1pshHAOEeiW+PNvfhPPfv5r+MKLXwJgozHJBi/FrltiNp+iW3pkgBAxyR+NJljHsPDMgmHR0AgMRmNGME0DkcF+AhtvyU77BVnvNU3T59UBFclEzgyZlXEixViESREMwMJ4XegTYZiqMPbj6r0vxfkKcJbC4SyvakzPpnDO2x7Ie23F9Ddu38Lp8QmWXYd2NKqOx3mojGDux3Y7xLAKwcjWp466Ud+q5Pgz7UClehAoj5B1GTC6QpfKGFZaWHv+C/LR6jxX2SsGP6V+IlLPe56SjNx2UWFCTAFRuA5//m/+FXjyOL7yYz8WJDYBwY3ZGxQXOJtOwQ6w7M89WOfA1gHOG/0E0jdtA3DrmYMxQJPQmUh8Q02KuMxeLZD7EOV9NIbGBoj60Yei8ix5NzpxXQCRCZqLgrQMpADtJhzworgbQWYUI3cJc/ToxoA4qE3WgdHATadgZuzt7UXLvSG/xXp4dIj7H93HfnC9vkhRqbdAt4l3kKHbdX4HgmrXZVow8Wz9k0exVuvbV0A7+DHIXXvBuDTIMRGt6UC9TVVewGrxq4/0rVLV8ghx77tWAKl0oopk+XOQSAWzSI3J22oYMMx49bvfwRyH+MbXfzzyeGbv1gxmdIsFptNpNDrC+YNNsD6WgmNBKL6SDTVBxjTe8s+egZhwWYnffzBxkQNKRZDr0lkkfmgLSRs5e8CQ8Hbe70GoET8VEqCx+uCwgQH7zXiI01RuFCZYy5FxgIGWGgAO7AjT6Rxgg739SdxaRfCWvP3EYzg5PoYxJh77tsEO5Os2PP+YAONSNYyvSu8ynBiPcoBEgdomToOopNrFR6+Z5I9DcYeTKxsamfrtIDfZXTrthBhqRpJaGo7QdwtWX9GhGEinytYwCMkjXvlWlK/zWZfHKjIA3n/zNbz7wQP87C//GkYNw5Hz25JO7ANLTGdTWOuC/o3007nYkBi4xbGafIyWAFALGDFscTqpSQQEByjZYtXMIDZDtz+WmwdhwYDhC0AWcyE6cJUGsjjptQ0jPPNeZpBDVp3t0DYtHPxpUGGW0+kUji0ODvZjbA+p0+HhIe59dB+3HrsFIkLD+enMGjGUg9TKlKtJCyheN+9qpD5Yt25WIRdDBCvXA1zU1VoraOsiPATnfLeWe7+kv5S1uqQMQXH+jIv3KV2wyBTQC8yZ78NQJ5dAQCRs752oFEXlPahg3H//bfzZd76HL3/jpzBq/RYfnA+QwnBYLOY4OTmD7QID4BBqzQK2Cx6ExGgMwcDBEIuQjAYoXyfnGULwP0gGMtUHwisgerKDAj/hZbiMtTFx0cmn1VuSVL7S5xKGrM99OP2DLIDAu1gC0hJMY2Co8adDmb1dhdnvxjB7R6/pFOwk7oTPr2kMbj9+A/PZFEAeZl7IFc5BWtK6MJ6biKcU6l1RatrWJHOsp4qiIgArAlSj87hGLlClGqId4jGg0kt160ixfgepUOdjMT1dg+BxFCEz6kgaooRU4mOOyygvIPtWoLWLuVKRPLmyMqib45XvvYyv/sTP4sknHg/1ZzhnAevQuSWmsxlciKAUg6TAB10BEE4++j4jTtugRMGRkVP52uU5HG/KGk5FR+igo4bgnWICitKIox+RWBWq3pHJJ62oGRmC4FDBqN7oMPtOZWsARx5FATCGYNjAskXDBrP5HEQGk70JAGFawGg0xmLeYblchrgPq2WaHj8C4Mxmi7s2PTZFCTr7cv7U0L8wLeGphoE+f+4zuysADJdrfPRGpGy38NzE0NJC/Ua0EROqUpR2irENzAbXLfDyv/0m9m/ewdPPPOX16oAGAKBjh9nZFK7rpMJxn986lyzvAGTLURiLIDHRT/v1BEAOBBM+7UeaJtIBdGShExo0sCQbdZ5LCEPS6aBzjL9w0P1zHKKt6MmRKa+uZ3b5VPZnwPzOhPMx/r3xlPzW53w+g2l83AYAaBpf5v7BPh49eAia7KEZFXmusjVgd4kPJPS5Lg8tzDa9JC2KMRFqFcRyFS7QJe3EfIjhb6TSD8rsGN7QtkIvk2kWVQ7HffWCUzriIGmDC7Cm0rVCZ9Gru/yTDg8S0gx0B1M64/DRuz/E2x88wpdeegmNsqEQO8B1mM/OwvFpwFnv5kzOH5gyIDRk0OitwFB3Il++CeZF32Bpa95fCDDduziHNhofk9GQ36Ww8NufLqgmjhyMIbQGaIN3IxmGcx1gOzQgtGTQhvo1ROFZ4/0L2ISfyfBKHNQhhHcwcTvSBOjDelKHsTTk60oEzLt5hMvsHOAIrgNmZ3O/1QsbjG0+JsTt249hsfA7GWIwdBh2RCaIwXa95HfwNgltiCQgtpnQ9yNg9Y1O26tHbRdOMRESAZKAacwfAGw0Uq+2RVwU7RyoZSN8la38NUmzRZp/U9PReuUMPFr5bcbc+uVmAweGnZ/g9dffxI/99F/C3t4YcS/femv8fD7Hcrn0DsRRH+R0F6JAcMle+RWk4By+4LhLAqDUqHVfRUbBiAZVOYsglHc/SQkByhsYzb3jeKUyTdPkWgZEPVhhPwr5+FD3FAdCTwfTGOzROAkEE2wqIHRLxmw2w8FoP6Ixafd4b4LZbIbJwX6v3POQQZJx+o7NbC5xf06dB40IcSlBqXh3xbT9vRJAnNzrFqs2+KQJpRZJ7bOCU66iDFloLp9WlEcilAZUVa+fmV9VkklWeXYd7n772zg4egx37jwWtpgItvNnCqy1mE5n3neBXdivlyqwj2ug6xxWSK0fnLMg02QMJKOgiugIVRJwxUNqQTKVxlIKE+9hftj6kx0OJI/MhFxCQWJHgLyS//odK4yNOBz8iXaW9M8g3OVIcmWeP5VhvFED8/kczajB3ngv26nY29vD/dMHaO04xa+stXVLctJUlZ+eWr7Oa+ZRSdJuh+T6oTKWXtHjxcwwattMz/OrumNia1XCIMGqXajuD57/1L9rAyYX/1ZSgKckvwvrj/8EjxctaYy/KKfI68EH7+LdDx/hU5//gp88YdWLhJ7N/AEhD4dDCHdwiifpMbSqAlX7wjORtqiq2l5sTHzRgNBQgPeStyG0IZyaNzoSGtOgNY3fATGJSxq0MNT6PCPeJsAYkPHHr4lEByZvH4najQfpRj0kJLdmA3/MvKb7+y/D741EmiZwYKZWmLNzmJ8u0HXJ/8Fjd4Nbt29jMZ95RifjoMpwWK1i1EjmtuHwO/IFUo/BsJqCRr1yvXi0lFKIDYrgPzbkw//Rih2+i6aP7xDVGmIROcJxxdpd6xlB1hWGsxLqIkHwYPtLzCSlRAOHt15/Ay986UXcuHUUvuPIfOaLKRaLJWznDYxyKMo6jo45mpnVLllJzkr5T/27RhBS1/g+SPCsSwhhUjlwN8ebr72C3//9P8DL3/8+OrT47Oe+iJ/7hb+CT3/6MxhPxlFaEgBYBARiMjEljNBHeAsTlf0hL6+auYDQkpwlMrn5qbgx3TTi5xDGWvwf2MC5DrPZDG17ENUMQlCByHtpxqPwuj/Rp3Vo9VKIBBUNJqjsRKhdlMIp7apo+0NUqCw2rZOqlZu70dYHpadqVMrLL7zUylf+UxyqMp2s7E/Of+HaqyLzD955E3Pb4qVPPg/BgBaeOVjbYTqdRz3YuwbLBTwNGjKJCSiEgWA821Y/FQQEaCZiYr/Iro3/yYADXn/l2/jf/9d/hN//oz/BvePTdI3dP/1d/G//xz/Gz/zUz+Bv/yf/KV788oswEhVVgr9oBqUMJHEXKNhIAlzx7uAAyITDVdkAhDlgPLTujZdAZ8dwwV+CGOiWSyznS4wnEzAYTeO3PPcODvHg3j3cunUbVMjxbMro/ttwge16F2aN1iHceH4F6QIeYexQ1zzWVJnLot38GFB0mJ6timqduq5RkfHIll4EVb57ozyXRaY4ldYH5dMobQt/Bi6VR0EN8ZE3z7nlAt//7vfx7Oe/gnGbDI6SSTcXFSLdAWBt56+bD7sEVrVaJL2o6wxEFT5lK1OpuLtDt08hBAnU4hN4qdoAMGC8+r1v4r/9e38Pd9+7530N2wmakKe1FifHx/inv/Pb+Naf/Rn++//hf8bXXvoiyLgsfyPALXRajEHJyasiHkFSKI8onZ/QxNL5xYCRYm4ebXlBwJZxenLqL8FpJFSfV1gODw8wmy+wv7fXK6dHakv7auVvpbyIclPfakaUxlmhxT4wujTa2sYg1ujiKYY0Og2Nk2RJ/7LJXsl5ZV3UB5s6U63OrE/3PngPbnSA555/DuwjFESnpXm3xHQ+zw1rwv0zxhm27UjFc1CDzFA2EEhfmXgTVEge8gy2BmEKhY1EM8AH7/8Q//B/+h9x9917oGaE8XiC0agJ/0Y4ODjA4eEhRpMx3v/gbfz9v//f4e13P/KHtKJfB4vZwdscGoMmsAOicFJSmlnr1ppFfY2VXdrkY1j4MxbOOcyms9T/gRVN9vf89XsD5WfFAtFx9iqJsBky5It0+Dknbc8YiCpriAKE1r3uqpMi8yOo9IPmG9lHobrV0A9hkhgwyHlJp5GFpJd9Ys5WZJlTEmQEh/fffQ+f+cKLGI/agIHZ+yU4h+Vs7q+GsyrAqyOYto1owQFoGCDHILn5m9LCMsFekNCDcAdfT402woZ/+EcADJLjvH9uyJdr2OGP/+U/xze/8wosjNp1MCBqQKYBNeSt/gf72N/bx1tv3MU///0/gGUKmKMJPxVDIgYbBsj5HQ2oOyzFQAqFNoyBYZ+TCSfdMthvfX+S6189L31qmeBAmC+X4TBWGE0iMBsYQ1h2y3iJztDy0sbFIeOk9lOoXba7ihj9KRXxLhUJ1L8YQbsxwXbFve8l1sOqw14XSdufldhS57oaQw+lFR+K00EzVnzVg+dCDMajD97HdM6488wT8Iwu3AwFwC6X6OwyDqItjrxpZCD1ibuohV+//miTPWtW/++3yFPXzfBPfue3MesYpTrly3dwjsFMMNSgbccAM/7Z7/4ulp2gHgR1TOpemfIUwsfIbgdcTCsIp1d/xeBYLWYxQLLL6+y4A8PBdh1m01lUxaQ2+/v7OH70cCtEUNt1KHty27m7tnwa+CffhwlT3cIu3Uovmc7vdh3qSwMN2iKLte9Xpgud7AT+JszgpTz3j2T3zmOJxGIGW4u33ngLjz/5FNpWQQwGGA7zcDsUg+Pt085ZNI2cRuBYtpUdjE07pGy4VJkUylD6eAxQLoeYAJyePMCrr72Brig0jZEOuOJgGsAYxptvvo4HJ2cAlLrCJur0qWnFWGd9y94wUecLWfKMKdR2apgBdmBnYV2HWQgNR6KTwztg7U0m6BbL3Lu99i+UrBFDVqpCLdtei6cRSY1c7R+Hi4ldHWHHKg0w2cui7RmDC/75wh41qVhrzOvDYZfkJwjqi6jCZQmoTj6Z7nFyqiyyLDPoq3R+Qzg7PcHDkxmeePYZGBciJIRbmKzt0C2XABPCfbPhUFRov6hKoTIRShbl6r9717KFzlg1FWI7AbBxAd77L2znMLcWDHWSUklhAsctRq9mGJABuuUCy7DADAhNOHbl03vXaK+OcEASFPf9KYLeJu2UEPUu0dV9XWp1eiziwnQGbBG377p5F05lpnB8R0c3/S1agdnniKCPDfR7hs/bia/AJay/0jdC/sV+IAoxRfrrZStv4wui7RmDCdb6Ncmyya+k81qSdAIXhxglKT40wHui3u9nWc+ZSb/XyIEAPLj3AW7cfgy3bxz6Z2FSOmbMpzN04ZJZZom/kN9J6NdcZZCZewxTohzF52r7KvpxIKkC3vEo/dOenQKz9w+O8NjtmwBsDLEmZekI0n4By+6Cwf7hEQ4PD4pOZYBlYz0xW6lv5mmqnksZqawBKczsfSBc3jfOJtdyCrE8rXNYLJZVgeMqxrs4tsThTAP5eIpVqqg9SGchLgPIr/JfWV2zy6Ud4zHIvxKncnXil3rA0FquqF3DkFDlVcu0V36YeKvyinOel7h/7wGeeu45f+sSeeZhmcGugw1h4P2C8baHHAXooKkcf9bP28sCUkxD0hf9JIqC3gHM4wf4BjAYk4ND/ORPfgMtSYAYDuHoOKuT/8WzBUfAS1/7Om4elVt/pDrKZu1L+aTapjH0/VNSOfdr1nj9zMHBOm8TccxY2iUWi2UsRdwl2qbBfD73DBxaTfC/yZTtTVsktKJAb3pf+SZVFPkgVV7VwHWW/xqVJZ6jcEkQbovGt6XtEUNsqbByVFZzTjpJ9DisvM8/yp/U0lSDamRZJFVhbcUCMTmcnTzConN47LHHIE6oAJfLxwAAIABJREFUIv2Xi0WMsyCBUeRsQT5YOSKo0TqmUWtPLJVV9eV/4Z9jBpsRfuXX/z08fvMQxC4gEnHCStLc30jdgImxt3cDv/Ebv4HW9I5t1X/NxshPjHxc+6tGjJpRhSiQk7Ouj6jCf+n4usUscyrzozTZm+Dk0XGP51PvX6V1pPqxoE0MijX+UJM921D0d5Hvr1Cl2Nn4uDOvKiX9tqQWctbha5hT+b0fbOptvzIzPnjnXewf3kQ7aoOZIhXYdctoKGLnJRn1IiCtlwD5v2gpiC0qF0dcSBW1TCZNcnjyPz/3xa/hr/+7v4m2BRCOL0dmabxvgmi1nSX83C/+Gn7qx7/SmxRMAJtVdzqIq3IRWo60+laocb1f5JM+Zk+ubgGHOEZnuxBkNrW3MQ2M8ZfybCCvKjQA41chBiR1Y+Wc3sEwX1MvdmUy29IOfgy+ouI9F87KRqoeDNIFst/PjlGL1CTX6Uoun2XGRSIgt0YjxCrQ0DxC9ZSPHEwhl/J1ncX9Bw9x89btEJyd4o6Gswt0Cwdn4S8hZQ/r/bZ+2otndlFfBlx2uW9CCS7+06Sqgky0hqY2gNrzLxYMkKlM7eQAf+s/+y/wN//Dv46DyQjGdYhHxYMR0RjCuJ3g5//qr+O//Lt/B7cO9wrx5I9KkWuCymGi74VhxHng4FUVbfsQQ2QcI4lCLZf1ApBLXB0YDuHSHT3cYnNxDOs6WGcB5702l4sOrDgkE3B0dITlYhnqnfd5lTiB3xoNzUPNDHT80J5vRHhHK5yXViFGcRmX/M2avC6KruYQFfU7v5h7W+V1zqr081FCbT6dolsyjm7eUOHX/OAtF0tYuwRDwV3mcNowMJ2gozJywxyH90kfR8y3KokJ8AbY/JBNYiTRnl7oZ+GiWgCAw97+Dfznf/e/wtd+4mfwW7/1W/jOK9/HdDoHGYODg0N89rNfwC//6q/jF//Kz+Pxoz3IDmF0BOHwU+oc6pUtEpn8ck5CvhAoXLRZciT1VLZcvRHYpfDunM4ORKMkHIwjLJfLlCa8m0wmeHT8CKC9eBR9E7qImArbI5QN85UOuEK6AMZQW/FAPuzqtR6BgcHQgKCkGEBDLcIqlR8zALHgo9LZgfvPzk7QTg5xeHQUvklTeL5YhMClFjY6B/ltOW8goriQOCxSsI+E7Nj1DFvJA6FfbbbO3xfRa0ihthAhuHsCELdzAsF5VECEg4ND/NKv/Bp+/hd/GfcfPMQHH3wIBuGJJ5/AU0/cwWg8QmtEx3IRf3Do6HixDlFEDazgmcD/yFRih/uf3hNVqU3BzuD5hWc+cuJCgudkujU4Fyzhm2W3hLXW38hNUgbQdbILo+o3RGE+SNA7XXs9g/sYmMpK9sBs1hAkIVATBuKz0ZvOzNC3q/G69lwQ7XSvRD4xy6YoF10ZmAFeUDZvk+Zqj8YwP/rfreCwVcQQpoABcHJygv0bNzBqmwjUmRgdewcmGwYvRiVW9y4CPgYBs1Nh4sK1bAgHwMRqyAmG6mPIUeqQXyy9Pgr+A7JcfX9QiJTUhKwZBk2sGgeONJ6M8fTTd/D003dgTNuzSQCJKeRapgsTGhGdUOTKPmQdw5+m9BLegWMj+4NhmFPwLPYldYK+dKnsGayghwYUQpwR2Fm4jgJjaCNzEmbrnBwE25AKOaYZQ2IcnsUJs0u2j4oAVK0m5K7M5RrS52HiqtH2pfAwzhd5fokM4sJdoi97G0XvMqyqiRfgwc4ggzlUdxIcYnF6eoKbt2+VvlGwnUXXKb8FWcgkJwgDFI6Wf88QnAtX0iEcCoLvI/HrN2qB6C26LIBq1qeedRCZGCnZezwaCJ7yW6wECwKbxkvo4PvQNA3ato3ek9HYxyFvg+gYltsLQskEUKh0ZjgNiCHVRdrRl4ylP4N3LErtLHcqcruMBbO/4ctai/lsnhlyAUbbNphOpxe+cBj9mJDZ+y12l6rPlV2sZqu7StpRlSj4iUyq3jP5lRV3XU0BY2RcOOvqouOH8iMgwlLRBipALcvcLudYdoyjo5uJobCXCGyXQLhWjkHhdDMD7K9fE60jrTEvZ5idxyIRKCRIaIgjA5NK1/TJHkIL6ITiaoxmUohXqndcCt8YgglGQAp1gcD4uM3JACVArYOiZHEVmJFtiagu9D8NQE6F6JMGifrA+UdBTCaB7csVhiOWFH9BTfA+jczebx8DB1kNJpMJ7t9/hMPDQzD3vQk3kYal8InWpnwyxhpL2mwHoVAdhyiqGKovyvdZkZcndyNdkPGR4gSPmxU1fWkTEuzISQJWiqt2YDVpZrlD+iirnF8As7MpiFpMJmMfGYhStIGu68J19t7JRg5FMXzYLUC0BC9tXYDRvhdsKombXh1KI6U0seYV13enFmAbGEN45RTcZVgkI1ypq6ZAK72+ymojzzSTSnw6Bp0pIHmE46KKyPfiOh7KFibs+yMwW+nXkInj1NeAv9zHdh2c4xhinhlo2xGmZ2e9lUmqrpvcQq15V9HyKtUk/DYyf5P1Qujx5Uuh8x+iunBiUbzjE1L/1lJIKG7QPuBo7lSjk0p6IuD09AztaIyW1DoKZMO+eXSqUQhEJImoBx6tiMchfFvCZba96gpDYM5mxjZsVQyOfpEHAIC0qBrTIvfMD8nDiR8iOf+yoofVKhFdF5TuvjIkDNGF3Yk0YjpmhLTXhd/7xlWk/oAwFA5xGbTAdHCug3Wdd51WqqIxBqYBOls/8bqJwbp3wO4SKfNXKVWIgCSyLf0fXcRQCXlLPs6h13uD76Y0mJJikPbzAR9PgAFSodPJ5ycXtEaLd+V7JuPvc4jfIaKCGCBUS52CWKVnx5hNp2jHkygJfdEWbL1/gy/T2w4aY8LCF0YhEp/g2IY6BqMdSHWFA5j8z7B4DEwIq0DKthBXePgu+RHqIx8mqCwU+tmGBjXhOisGA05MoeGok0mdFE9MEoOdZg4soj6ioKznGGCWezDE3GjRBDuFX8QERuMRgA7/TQ6GxZuRIdY1udSGnVIsWMpiAB2YGwDsg9qyP2NincUILQgckABjf7wH2y1gmnGK86CmifQ+IzeXy1wRXwG9SF2ciCZDHFq6CtMU35XIRBURUYoQqwWD5KGNk8zhhip/X6fg6Mu04wEXpUoQAJZz+GnCawhd+wRAiI7LvRcbtZt5I1hV5bLFd95PYYHR3q20OyCLkS26rkO3XPjb5RsKZyXSYSREBiR3LvpJru9ZJChpFaURwy/sCLrzTtD2B19Yzzilv5T/R/NBlkIWYdCYI9ROnREnJZuYXqOX7BxV3EIzAbBQWg1ld1cWQCVRvkCyl357mMgCMJCoTmT9zkTC2N54NznYw3K5xGg8Qs0pXpLXVYq8DplKsaL62Vb6OtIIoFYDJVQ/DiPkzoxBQzK/8CggA/0wLC5X7hILF+Wi16HtX1k+5d8aILD+nmvJ9WwuvoP3knTOYtl1OGjLI8KEzlosl0vMF2ew8yVOTo5x8/bj2Ns/9Kf+woUEZHy0Ywree7brYEajBLWLBqUnnEPqAUt+/KpoR2Rk+mZq1bZkC+CEpAziQtK5pf3/8NwZZHfJk2JEHCz0jKBQJCYWc1R791kZSfRpBQeCFgF/nFsClLAL904wAejQtI2//FZOj6os2AF7exNMz+a+jqFMA40gKUZyilvgsTuUrQw51ZZoLQ0PvYyJ/HazMNfovbpGIl4uTki0/XZlvu79s/hC9GhGPMpbU+4hcpHRv6RCZBxDkNtKftnDaemxQD9hHJnRDuqUPsMbFpnRNk1kbgbw+rLt8Or3/gKPHh3j9OQBvvUn/xrTsyls14GtBUJkJ4YLbta+BDMaAYTeUWNS4Zx8WgOm8A8pAElty8rXW3k4kDTOA3q/8Hz2Jna0h+kMi7OzY7z3wTt4/7138Oj4QdLDZaWTHOHTZx9MLEujFBiJIxF2IUj3qsYvgqzS+ER7APlr+yQMjOTgjYzO5+2s91twNgbE4a4DdxZnD+/h4b2H4ODA7mK9GrD1y54M9eC+/C0qloFcs5cvin6L+iRstPw2c6arUIrLoLbglYE5oizN8K8IPFyYS3R+0CMhgY10IVb2hIE800PJWE889JCHfD/ocqyLJ48Y4BhtG5xlxHMQwOzkAf7v/+v/xKIZ48UXvwRjJmA3x/z0HsgYfy8C5dOHqQE1Lcb7B9EmECWs46QWkF+CVW841SwxwJkmGVMFZrJmoJW2Lrs53nv7Hdx99S7uP3iA6XwOQ4TJeA9P3nkan/3M5/DUU3cwHrehKxVD1X2r+0zVV27DJkGNhTGN2catSmOM72v1HhFVWNhu7m/iChYIZ/0N4s5akLPe4AjGnMd469W7+Ke/89v4xd/8m3jhMy9kKo8hgzJwcQzec4FiN+EkMTz3BdUma1nc64feyS5fw4C9Auaw892VJfyL77PIKkEXHtj3rulsoowQqwtbESSIhnfbOLdXmEavzHDct2layDITrebs+D6++93v4AcfnuDf/Mmf4Me/8AJud3fx2H4LIr8BMVs6vPnOMT6aLtFZhqMW908Zf+e//m8wCle6a3+OWDYHf4YgMZlyeWUY8Sp7iEFRwU9BFnJKNH3tb8U+Oz3Gd7/7bbz6gx/i5pN38JnPv4hbt26AHePhvY9w99W7OD05xac//Rl88oVP4uDQ+wRQbXCyiufRoVOdfNkg+ENVHFS14AGpTj5Exi3L99GD9/GP/pd/iJ//S1/H00cNFrNjODeH4Q4GIWI0OpzNLP7FH72JP3/tPbz+3gN88sd+IcByXT3yMS1DaU5+YwoMWqt08e3KRVxunmdpQwZaE97A+9+nViH5BH306kH1OlwW7YwYeo3m2uqj+H6ow3O2gnhrsKtJeRZgFypQ02tWlDNM4t4MNG3rGZmCb918ipPjR+jmSzT7DU4ffICnbjyDdvlRCDlm0Cw6HOIENx/bx+m8w4svfRGv/vAMy+kpaG8MZsAYyoRCUhd8HbJJJVusRAFKBt1APOMyUZS4tSxXB4PFco6/+Itv4ZUfvI1PffZz+NIXv4jp2Qn2Rnu4efMIzz59B0QWDx6d4rXXX4Vli89+/nM4GI8rnRa2DQWpuMwkCWOaHCn4JvVHQBhI5uXph3J6coyG5/j00w0e/OA7OD15BCyXaEYGHO7zNIZxdrLER2+/itNHM0znCzw6PlaGptA/QQJ7tURGGV5RK/B9DRmti8Ys9onYsgraW/0gPd/I0C4G7nLBXBKdU5XwXm5xslYW8y7bKowh/SxokWUxobPO12dhwsq+Ocu9i/4Kunm3wHzZ4aNHp/jUszcAWOyNR1h2HWbTJRbW4Yk7Bxi3EzgaYWwWePFLn8Zk1HqkEHXrulmnVBuiXULubZAFKbp7uA9TH/nVubUGeO0Hd3H39bfwmS98CbcOD/Dq3W/DugaPP/EEnv3E0+Buhhs3buDm7dv44L0Pcff7L2Nvfx+f+/SnaxoJosEs9NPwXYr5SKS04UAVqViVCAuDCGQa/NRPfA329B4W8ynGZgSzv4fRmNEYB2cdLFs8PHmI0d4ePnrwERZLg9OTU2/AVYvMGUIHBjcmGL8TIujFskDQ89WOSg2QxnFAjgx0fsIwdkL7FQlKREH9uiqs4Gl3xkCANzYambPwT1IYLaCBoRYOizQAGfc2eXYMyLkFHZ3JD0ihwwTAIPEhxRV4aEQYSHvH4UGOcQxccC0W1CI7Kt1iCecAC4sODVpDOBjtYdQtQIZwvFygaUaYnc3RtYRbtw7QsMV4RBi1Pm/fdsokkXb2EUes+FwMUPDMJPafvoAm/OfIgajxOZE/0jQ7O8Er3/kenv/U5/HZFz6Juy9/Gx9+9C4enp7g4Ic38O7bb8Au53j88adx89ZNHN2+gTfeegM/eO11PPvMszjYn/TsN77MtMCL4QiMS/RlgyYYl511cVfAUUALxoSdBo6GxoO9fXzizi0sTl4HO8bLd9/FydTi9s0Jjg5bHO61OJwYtNRguVhi2jEsgG7Z+ZgRbMNORqhRsOX4bUk5dOZ3N0r27MhBq3ks/jgqrdOTRv1qmKKB0Ml+rkt2mpV+Y9Fri30e2S6Nf04utYXK95dEO3k+bnpYJJ43UMpb/EovEOS/D+l65TMZ/2T4yOuU9oIr3xOi9T5lljbddFoHwIYtyLYhLBYLvP3BRwAY+/v7+NSnnscTjx2Al0u89cP3cPe1d/Huuw9ADcE7PqCKpmKdst0H9rc+KVuCR2OpTcK0VAb+V/IQgsH46MN38NHZKV76ylfx7BO3MG4IS+vw4pe+iueeew43bhyCmgYf3vsIR0e38KlPPI/nnnkKP3znDXzw0f1qXUMhZU/2TDjRoh6NkwnWpCHqz59Ra9C4DnaxQDNusWCLyY09mFGLhQXMaITbt2/isaMD7LUNWu/rhM65uhOR8iYt42DoEO510v44iQ2nAnwb9LCKdht5A1YzhSyv8tb1QCKopPYabV0m7YQYcgMaF+8qS0sL6l775aw9R4eilFf6GYd1iB8x4FUbrjz35EjVQw2gLozZ+TYoxjeeTGLQlsYYmKbFraN9dN0Mzk3ROodJQ3jhE09i72CG4ymjGbWw1IBZbUZV0AIRhahFJjCIfIFp6h2TFmSBvMeJDE4eHWP/4CYev3ULjZvi5OwMe/tH2N8/QGMYe5MDTEYjvPza2/jiF76Abn6CV+/uw3YL3L//EC88/0zPhOHFZDo/MqS7pXMReTtY/lM+DdIOdozZYo6T2RINNRiRw1c//yzmXYd9UQeY8eDhCY5PzjCf+/D9TIx2PA5Cl2NsznSqFj0kOVBtBI0GBQ9RH3NqO5JxPPl+AAEXRbWDUVdLVOdkTnDridZkeDG0YzyGFCzEsYW/pgzIjIMI8xbDjRZJSAGv6RBW5dhU0UL2NhP9kcenQ9fIJoioD76PRaoj+t1LRGUCYW+yh9GohQNhtrC4dzbDh8dLzMnBWgfHMzx75xYeHU/BjjDebzDZ3wc7YNl1mISibdEOvZDlPKlXCQqGUPhfxM41aSfCH0eGsmE0GLcT+GhTFqN2hNP7D7FcLvHo7Bj7+3NYu8RjN26G+yf9oSQCwVq/o5EzJhdsAUVNCMUhMnmdM1fdlmTH8e0QaT5fzPHe/RN8+YWncf+NB2BmjIhgxvt4650PseyAwxv7uD83eOd4gWnHADcYNX3vRpIYGNE7M/ky1BGpCl1LiK7VQPqpndBEdQqzJesnn5g2gv75ihl4X/C3y2cLOzCGUoqZ4O3HLnBK7jvlZChBS5JNjrhtRdvlp1GMMQbkQoCPDEkQmskeRuMRDBrMFxbfe+1D/IN//Hu4tT/C/tjg5tEYRyOD/ckBxuM97N84xPPuFG7vGJOnLeAcGjJ+y7EAD8JofVE5IpAgsxFJEcDkz0PoC2o8o8674eDwCNZZfHTvHt59/RXce3SMg6MDv9hGY7RtC+c6zJcLPDo5BS8XaMf7IGqwdzApVk5gCshPz8af0V8kMOMBVTP3WYBiEH7xGOPw4duv46ODF/Du/Q7f/t6beHQ2xf2TGR6cLHG6sJieLTBddjhdWsydQWsM9vf2e+Ylhj+TAuIoYKs7DRV7Qy9B9rss5RqgT2mz5gc1oVp80VfrfG84476XR1sxhh4EBJCHLB5SMcphK/IlpcmxGIuG9TOt0+Zao/enT2gv8fJ6P6sTnMGLzyOGHIFMxvu4sTcB0SM4dtjb38edp+/g5tEhHrt1A0d7LSYtY68BWuc9Ad967TV86y9ew99+6ReTQTNjCgLHKUZ7iqEWQoW1ywyFhvsFlE9ldophh4679diTGJHDd19+GU8+dguf/sxncXr2EO9/9C6mJ9OgfzOcGeG7r7yCx4/2cTabox0f4PEnnwzbfGlDLvZjNNsQWEU6kC1HIUNNQCueGcQDSFy0PzAUy74fXvmzb+Ltu9/GjYN9GDD2D/bgxkc4vHOA+ZJhmgZty/jmt76N9x9MAUO4efPI59kTWpQLojinOPrJEIedNWTTpkriPu3CoTViOUpIKdgwuOfpGsdpYPdOu4yX72XuyO9XwRSAC/F81MuTqgtwnUqkIRwFiFk7+NL/MGl8ccDV6uOs8FrFUg3IGBgDLJaLuBxFGk72DvHCJ57Dy29+iGeevoO/9pe/jvnJfXzzW6/ggx92gHP45JP7mPAU89MO04XFmSXg6Bl01FS5v3/kl7wMPFHlpqaeDsVZj6vHWdsPb9zAC5/8BL7/xts43BuDmPHUk8/h3TffwWuvvonnP/Vp3Lh9A4c3buHGwT4e3L+HH771Np559jncuX0TMegLlG2mJ6wEqeQbdNFu4sM7KmUyBGsJaTJVMXiOHp8s8O4H97HX+JBxc9vhnUcOH04ZMzS4cXgT33jps/jNX/oZ/P4f/jlee2+KO08/DuL8wJ7lLqqSRpXPkF0QiojC91/yRkXWv9Q7cNofltyno+yLVaSZQn6mpE81B7nLop1sDFt/o2ay6uOcQhqnfm7VBRHihqziZC6we61+YJBpgMbEuwo0jQ5v4j/6j/8W3v3wH2A6PcM/+xf/Eh/ce4SmafH44QSz2QL2iX0ctC3QdMDeGIZbTGXLscoYkvrQFfULpi3IWRM9GWrSKOWV+rUZtfjc/9vem8TqlhzpYV/kOecf7n3zUANrYrHIYrG6yO5iq5tNmmo3DAtayNawECAYlgED0kaAIFmwBViwDQNeyF60N154YcAbLwxY8Ma2AMNtd1ttiWy11OJUxWqyyCZZE+vV+Kb77rv3/ifDi4zIjMyT55/uUI/qF1X/u/9/hhwjI2PO5z6Hj2/ewo2338LTz34Grpng8SefwbnLj6CbTPHkE5/CI49cw96tj/D66z/EAhO8+OIvoWsb2HwYurTymn1sfx0ldCcmMVVyTHEHJJY4EggO3AAcsDubYt72aJgxXQC3Jh5uv4ejBu/fvI3f/effwSNXLmA+neKlL/0qfvVLX5QNJZXfHy0wnu2BROeQnMqIFLeFMBhEzZz5Cs7IasPsXG0aERk8NTUt4LgosYp4nBRsQRgkM3IxQswcdAZZmzUbac4aKZDEInB0oRVOQblM+2wswCwT40oaHk7pzMJkCztuJjcTcJT7RgtqCJOmAx8ewnsvNvgg47ftFFevXcdf+/f+Ov7R//K/4u0P3wRNz2M6adHMWkzaCS5euYLJwR56noHg4LmBm10BNcE5pWT/LTTKqrvCl0GR1O4oZIie91G/wNAoQnmXgZ0LF/H5L7yIb337X+FHr/8Qn/nc83jhxRcxnU7gGFgcHeG9G+/i9dd/jPuHDV5++ct47NplyZUQvE+JGU129oVwEbKwuBjbjA6T5tsIwWWNeH5SrzETHELYF5LGrZuC5udxeG8PXRMW7f1+Ad/0cJOQUr4VTubDO4d45uoz+Av/zl/BhfPnY8IvXVSHBwegzhUKU4YTl31VNebcBJT1ChJZbYGKOBJ9cJjhIKHgljBXxqQKiucrFnvIOkUpzuaUYWPC4EY895ZCrSeVVT/WYXvdpp8f5T7WaE75TggqmuDu4VFI64akxXZNg8lsjsvXH8d/8Df/Fu7uH+JwcYTZpENDBNc02N1pMCGHtpmAmhbkHLrpDnbn07TYtf5CyVh+r0o9apZU/wAucjKI2UuvQ4jso489jq999ev4/muv4tXvfht/8qPXceHiRXRti4P797G/v4/zF67ixV9+Hk88ch2N5F9gUkacYu7obHeU6zFT1KDByppjcNhs9DEwSgcCYef8NfyH/9F/hf39+yD2ODg8wP7hERa9w5H34Swdzzg6OkLPwMXz5zGfTTGbdeAY4RqGZ+/uHnYvXAWcKxZdjnjao2BUG+Z7VvIRnjY6KfOgh9rejFWNzbgs4R40mnbZM9nYYXN83wa20DFkJBg5GwUkCZjKR8qvw2IVhkTaXLK7lyFSS8ZV8VARtTb5BMJsZwc3730Ez4ymIIBXrj2KZjLHogeAJnh4eoAo6CeapkHjwnHyjXNAExRwId17TgiSXR/Zb2UFIrdgno9EwSj/LB8mG13qEQd0JzhcvnQZv/ryn8Gnn/403n3/Pdw/OEDTNLh86QouXbqMa9euYT6dhsUFJb6MlHezHNycUFTZ25q5MuqEZMTJgbmHE06o6SZ4+rMvSm5ND3gPT42YURkLZnDfR30Us4ejBjv29CxZsbduf4wrjzwufZJxNOxNCm434oNtahh46YsJTY8joLoJaQu4sirWBFYMTO+dhbiwDDYiDGFX6uFcY0hmMj+F/ilvlDIc2R4TuzgNTDWTz4o2QMWP9Qc/ItKSJxiE+e4u8N77WCw8Jl1K2MJMmJ+/iP2jBXC4wNHRAl3TBjZST32ikKilcS6IDSQh2FSj8QEpWTM5MyKalk8N+59fJ6kjS5SS7oilzGE+28ETTzyFx594ImORiUiOvEt8QZwVyanhopJI91aC7pOVoRSIeZVlfYnFSPDFkYc35m1H6j8SoiIdSMy7Hs4FwtcAYCfKXBd0GPP5Lrq2g/LkgR712Lt3gG4yCeJONiKy70fapqJR0Y2VG3gSYxmUMkHpe+aQmGVFaewIOHCtkSBx/FOp9fTh+FaJIOwirjyrwLHmzSguiIKl2kWl7Cc3AOspa0Luhfl8DiLGwcE+duZdaCcz4AhdN0HXtOCmF04BACU/g4CrsgsKMWg0o5M6u2T+ChRRiykhgZah7E0YC4516FjG8HbDKSSWdLy/GpRT2s7XgaCv8eb9VFeWisz+hiC/rlqbTAYaIIRAwXzwgAxjGHDKMUvcguyqrYtcFRFhOp1Ke3qoKnGxWKDrpmhJ9C6yymNCVVq+WDcBG+xXHioThmN5TWykKu4lDyYzWuck6IOzZ88KtssSXWER01ArUUieZzHAiUd2erm4Sb/JfGwZw6aaSstP0QhqW0ymE+zdvhMZQ02g0bYdunYCQoO2nQBE4aTrxqF1LRrXhANedZHKApUgyAqC6CLxYmmgKCrU+AtpoeyiLhu8tkLRAAAgAElEQVRuJg5cvx4Eg0LUYIkKsLZyWach9Vmi6Xlubnmd5GN4BJ9J3AgEgSQLE8k/uhAZ2c7M2l8A6sZOIoZJUYHzEiLj4OCogWscGge0oqRt2wnms+DvEFPkEHBv7x6uXrue2HLkY+pM34nT76w7nNquz42iTgVsEGAcx1UblB4KNDCZpjJrbT0N2IpjGOz2BGiwkKQ7Rkbp5KE87yjl7xdfNyaOlRfKICrATHj5MgWk3Z3v4uNbd8OpUHoiEwDXtOi6CZrmQLYGQtO2cMo1xN1bWPu4LkLkHSNca0xj1MoQ+0wp+3bcjwm5vkPLN3Jp2Q8CxR0ZCIQjz99Q7D6WDdbVhZKYJbYkniGBYLlwbG8nMpbKVBmdk4AhXA+ZspSb6ftAgpyIDCpusFGDOufQNi26SRAjQnr5IL7evXsPjzz2qRDgaAhUbfOJ8Q4YX/AWJ8eeyfZG82wptg1f5IxglxVHwjRS72nBdhxDCSxFLeF1FMk3obrrVp323kq9tH6lBMJ8Z479+/dwcHAYr/cy6e1sAtd2AVmhFhrBbCJQ0wQPSpf7L2iUnTYhizYUzqLmHh4QYjVKKCur41H2Ne6c5TpXIqO/jbm0XlF4XhkANvXWGqVciBWB4oGaQR6QYgkaf+OEOCgH5Sg958jFsSMQ2jZwapHL4pAebtH3mM3nK0Yth3XwMXJW5bsUw6ZS9ysWjhokUTRxqCWBOEsRQuFEcj4G2ZMRfcgF78sNe5P+6a4SfwgJpsr9PJmTodCgdB4kCQtrMwfxcLHMduZom3C47Ww2Dco7H1jd6XSOrr0Xsgm1QQfRtATiZDXwjBCJKew6HKEx2Y00bDaePekhmaZZkq+oTDzcJsL64pBLDgg7MbnkOyDjblnRELcpuQi8hPCSYQ6AIuS32PErdwDEKMbAveSckI4tKHh1Uq/clFlWShtll09ZqcKZHV7Mj0RAwyHZbE8yVnJeRzdpAfLoxeVa1Std08D7I0DiJWq7n3I9ZH6XfU3iRMoyPTI0A4LaW455icNSmKQ0LpZAlI9lv0/ZanFCHIOiWSW7kj4yElizfh3DcoaDV0xAwd7Za3WujtFNZphNOuzduYN+0Wf32qbFdDJB46ybc+AU0DSAc3BNI3kOXbDe2KqjAjFvs94LndSkLFxv5BYQWXeXiMfyqVhdr3Nl9OWy+hOHlKWRDyUldj+yLoEAUOMC0XIObOojOHRdg8lkAsDGGQB9H86SYB7yj6tzMJw9pHwlKerUgh1jR3WUPg3YkjCYpsWte83mGiWOLWLIorGRv4yNuKzKvEScBlJ3S83dz7EcVctRnAwLzjW4dOEi7u/fG7LljjCZzdC0DZpG0pK7ECYdHY/EbBl2f2GRIZYGqNuUJm81iz8ih17SZaOd07DsAWWJcyBdzJqsegxI71mRT8fEImKUdbCCKJkaGFEpqTJ17JBycmPyRqGsjS7gREm/o6x2FL9Cpuyu69C2LSJuCMP67rs3MN89F8tKLZYWGvypSpcj3IDF0eo7gy293uUaVMvUe+q0VinzNLmGLa0SFmkkkGaJqjTg7cg2XXnWoFZGB6goJ5O/CRlLrE1y8k706SdzMzYOWTmXrl3B0eEB9g8Oo7pLJ6GddOi6Dk2jDjqABgABycrPAJgcQn4F0biT/HV6MkQlaApKHFLvorw6GD6pl4N+h81JBfohJjRCkAgU2ecobgymbYzI10ULB4Qd3Yg0QNAH6AF2sURmUDzaUHUV+QJWQuCkxVHHQBTH2VEjcyCh/kY8vHHjfeyePx97EFXhutuy5uAI81FzMK5lA4iWGRrK/EHvXohS8ncVdzLGdWVxEwXBVzFu03iMTWALHcMKBRVbWmOCZjbuQzovQX6Wt3MKovXUWDFOdpR4n5HCiq3mmoDJzi525hPc/OADnN99Omn1ATRNi6br4BZHaJxJ5a67vBIfk5dCNrMo6zeGtQYgST1ogFxgBtuxHnALQcdQgmYEUr2r9z36wwO89bOf4PUfvo6333k7JK+9eg3Pf+ElfPazz2O+MwNFN2Yq6IA6J5HoCSIjNxxTKt/jNPmEsOp8GzxHFekRnHt8TNaT5zvQMrkPomLbtpjNZlqDDIXH3p1buHb10ZgUNiRmTQ7NOjWrIBAs/cGBvDEBxiEv6SSCSbqKjNKvVXWO6RXKcmKmp1MkCArHVj5mrGPaKwWRdGGKow5zJOHjXbMr3lyLlyzrS0gGZnmvWCcxig8hsCVLHWG5CH3eE8gBFy9fxjtvvYfHHn8Mk+lEJJvA4k5nOzg6PEDvF+CFrhAVEUz5AvF4Thr2O5krNclqbpoMr8pYckj8GoLYzEDKFmf14MFRhgD2uHvzffxP/8N/j//z//k9fHz3PnrWhDTB2/PPvPxr+Lv/8X+Cp558HBoeZduh4edK8FR4SHErmbwVoigpnP0dpsjgSK/fQnls87BDuSMZrAy3wnfXOEymQYxIRCcQ0A8+/hif/sxnwZzSDFMcO61BokJTHpcoopB5Pkc3DgRxsLuVyJN+1pa4rpUsqE7ELY31iOMQXggKbfPuWcHWykfNBAxSI46BuEEYlp8R90QCBoOQOPzE7pJcTLJdya5ZajxcdZmMWRlXn7EkyJ49f+E8gCN89NHHKgvFhnSTDt1kEmIiSA42Uc1zYX4KBSYWeVDdih0lEFaPLMuoMfPpLh0lrDSQAPe48eaP8A//i3+A//kf/W9464NbuH/k0Xug98DhYoGbN2/i9/7p7+Lv/N2/g299+zV4TmOV6WP0ilZCMP1V0SWniixcVM5+J6yQ7ieloo4blfUijm/jgtJRldDhUBkG8SI6mVkGEFBLjIu1BtwKh9qRaZdd+E44DpcVliIsap9szqRfA1IysFCMZLvagMM5DTimVcKDMoQYB530UQWOgG7+2X39bexLA5XGkiaQ1F9m4i1FIvt7Nt/BxXO7uHXrVp5gVCZ2Npuha1tJEltU5pINXu3yGfI7yW9QmAnHzpxg9EKAh8E8o8CEo707+B//u9/G733jX+KAHKbTKZomJKRxEtNBBBwtDvGTH/0A//V/8w/x8/c+Dhp9U8eA0KWGCRHRtoWZ1QjcOF1m9STLQj7etfKL9RPGtHHoum7QkHv79zCd7shZokU5TCYblbyhClhUNjbkFgyPlKkZGQZT8PCtLexqfyqbRiwz92WAKhWERKpIclZ8w+aEQQYiKJFqRIEimxtY4wYwBEGVP05EjIBcwak1eAeGSDqwT7kHCHAUAoCzLQ0A2MnEi/1fhT+fm7GsPCuNS5uwVMQmqxtRi+uPP4qDe3exf3CEHpCzBwJxaLsJmq4VljbY0oHkahxdsUvio3KFEIVyAmrIQ2hA7MDsgtRgrMJEwmGxkzHgWPcPXvkj/NM//CMcwqHtJma+XNAnuLBjOm7Q+x4/fv01/F+/83uAa6BDqQlzdAfVPgWiN4ZAXvIcqGaFQD6IP3ZTICY4bsKiK5y+wpRQdqBr23Y4t3suxmqkQ1gIP/rBj3D52pVgMuaibqSY3x6U0uyRLrtwl4ljn/N+UVRYeiKTzj0QFnakzrDpjYhb6ZqGhbPnrP1CFnIuugku4HFE9d0zYiE2JwzE+e5VgZAOnc33IHOm94TSKvdGZsdhJSyFjBsqT9cIYPLy4fhZvx+GczGO8yQYxGCcu3QVuzszvPPmm2IXTxSdyGE2m6FtxHfB21Oa0k6Z0QUqZcW0leZiTyB+AxwIbMaAFrMHQhCRC6PY9wAf4f/9nX+M92/tYzqbS7tsPapHSON8tLiP/+Mf/++4dxgyWlUYYYDyKImcha60V8GlxWilPtsmu2MOubkG3aQTMSLHvZsffYhLVx/FbDINC8wmEML6vgsExHiE/LqamRHbF3F3hAtNuD2sw/quyLdswWf+DJQ4S23WWRCHLUSJYtvN5DTt5rDlcelTGpgEFGclDCjrCEKVP/LHyL3p1TT9lv8d5sfLnYmQ1qVWxOEYNNH2AACuPXIdtz7+EHuSQJXNjjyZzNBNJugmLYjCUe2B4NBw56dyYQ6fsQjBMLoLcRFWDovi+3FQYDGwcQ2O7u/h+997FZ7aMJ7GY90SWut0RQDeevNNvPveh4P5M1ORhisfcRS38ylCYqBKowdxGm8LqkNx5NBNOsymE4AkIYtPhX700Ud45tNPA76H8qn11g352/RUwqvBm4ndzdocP0hq3zR/+l/eH/Y+m3f10ahFGydxxzSeq0N14rC9jkHJq6ZXs4NGdvFq+KyDUzZfzTvKHbBBHUNlM1Zf/ljKTdk3E7dgboqYluktBjJhIv9BlpOFxt7j/MWL2Jk4vPfuz0OfongSdpH5bI6uadF2TdpxZAxiP7KUbQWTahDEhuo6VepRE4fEHFQXxjViptYlqcrIY2/vLvb27kd0D+x0vhNHnwFHUNpzeHgY3wtuxk78FMKYkIh8mo3BmlNLX6kEGvtg6rXDn4QLQJWHUScV7k26Niods7r6BabTHbjYS4CMviP37qgrepmUKItTXLHbkzKxRheQOALT/6xQGCJuL1M5OMGK4moccni015O2GAWPd3pwInXYgz1qEAdHFwdjOGKjb1LxrFEEVF9JSMaUpMySSmfgIK635iOT3nQdnvz0M7hz6yPc2bsXJ9YjnJvouhbT2RRNEyy/3rKAsrjV6zENg6u2g4gyBHHOBU6VxFxGibBkDjdiTkzEp8G5C5dw8erlwC2wzecAlMQhJRQhTGZzXLp4IdQvdGdgQSKCJuKJ7Yl15GWHtno48tnmoRxMsAA3KWUgpTZ59sIttJjNZxA/1iCbh0NA8N1vfwdXrz0Snpep3HZDVYK0Hm4GSCbZjKEYV9hKH/N6c/1CmSvDcp2ehgFbpwHbEwbZyTluxesWpUk3rTiQlEhJwzJkB8MVwwoYOxgNBK/h4Kk9eMgxILLtVlTQIi5evoILOzP8+Ic/wqLXvZfBHFjX2XQHk26CTk62TgE05e7szPec38mflkaJ9ipxzfadfOfhmG4hjMlktosvf/U3gtJWaZU5QUzbEUAXuMOzz30Oj1y9gOiuTcqtUPRHyH0CvHhXNpGjUrqvG4CDg2cX/CpMD6IEIUQ4WW8oTr9rHObzKdpWwtHVF4AX+Oj993D52nXMd+fREuSltXlcRI5PY6qoiIVcvx7u+SFqSR/G6ICFZc/EFVRYulxCBSljA8q1JRyTY1DkTKgdFkxSPponBVk4aNCRbML2qbjAKX2y54xwx86mDhkuL9J/asRAn5FBNkrxYatdg8c+9QQO9m7jgw/eF3GTIhFxjjCbz9E0LVzTRO1zaZ+vfWK/qRgNZbcJwtanZOglUUkLPn2IWvzWb/05PHr5vDmQRhYGAYDmL0j+F9PZOfzFv/SXMZ+18XpKtCOZlUQp6hDcqjUCJBMPsm5Yrs+2j5QeDPqk7zvnhOBKzgWjyXdM+OijW3jmM8+m963gb4CjILWU16wDAaocVx+n4fu5D8sysJvPMi7bBgpaAfKsErWcgriioUt1PTATBUvC0unJNSzZIEb+GYBaPCxXsQU1TchrF61pTb/AhcuX8di1q3j37bew6DU4KzTTe4+u6zCdTdG1IRfkKn92RVDVaegiiddM2xhhxx7kU4DpurDBzrT92edfwl/8C38O/WIPRAgnM4nlxX7atsG07fD8C1/Cn/+3fhPOL1LfVTVXcBtiPJYQcnVMGmehSxY9Ec6R+WKgbVvs7OxEApVwgPHejXewe/48NAQ7G1VO9hZCxliuDXkfQrlhQ0BG9GNneLUIs4n3YqaQlvarKfUBtUosh+TfYJQpsOZEQ9XJg50weyrP6n7EuYLHauujFoY01IZCORUqrKalUEeeZi7eZ0aBt5ERIgCuacEAnvrcc2h5gbd/9hPYA1m8sK6znTmmk0lITsqMnj08ctNWWvi6mPLvuqoVERhIZyHEjngd1WQu43B4rec+3mu7Of763/jb+Kt/6d9FRx6OGV1LcE0gBq2kpWvbKV785V/Hf/af/wNcv7wrizvMT9OQkPowf9QErtChgWMHsqnhmeAhidZIQqaFyIUzIQAiSQJMHqo7CWJK4DxCV0Iqvdl8BtcgcgrsGfDA3Tu38cYbP8fjn3pSBtaauyvmRvbRwUm5h4Sv8bV0jQjkeZACzt7PTOhEg8VKniXJrrlmPjWTrBLZsUWpeS9+ATgG0YyvppX56K4iecrzGViLE1jjkRT/vvrZogFouwmefOpJ/PzNn+LjDz8WRWRIsqIs7mw2w0RCgpMDjhFZXFKyAcKaNhSVnhT5a+PpJsrLgIvJ+zI3u1I2BCS81Lmrj+Dv/af/Jf7+3/v7OL+zA7/waKhF23Yg16GbncNf/qv/Pn77t/9bfP65Z4zQH8Ab85pSq2hOBgaen2T6pe1J8n4g+jHSUwhhVBdp3xyh7Rp0XZOx1Fri22+9iS//+tdAjRUlBcXA8KUoQfYjjkzAEr42B31HuY/cXriE96WcS8jD8ano10jdBQE5A5oAACDeMDrj5s2bICJMukm8FpVeAj5zQPHoF4volEKy+/GIaSKYAakgJJZzplBhJL3hE2U/U2Sk7Ia4B6qsnV+T4Nj3Fwv85PU/xp27B3jhi1/CZNKlxdgEtF8cLXBv/x4Oj47AzOjaLmq8s6PUlSOgeEpB6JtwS42KEaqxZ4CoAVOfOAwol+ZF5BBwSl9TBqmbH3+EV155BW+++Tb6vsf1Rx7DC7/0Ep586lNodfAyRFRFrOj6KeRW1EXNoq+ICaVkqLxwaSRjnLTooX/JOk1yKdzvvQdzEMt25rOgyGUfAp7Es/Tdt95Azw5PPPNMUIZS4jRUi8CUuIZ82wrjH64ltSQDiCGZEJzwqc2eWFAuvZ9KNIVYAh3r53RNCYOZJ0v4ov7EuNDHmBBJGqQ4Pd/dqbiGnxxsQRhuAwCmkj0HGFI9SxiIGIujRUFldbJ0eJKPr/eQKH6W6/lOmJWiF82pq2Tz+VcIQwmbEgYwwH6B7/zLf4FudgnP/9ILaBpAT01Wk+PhwQHu7e+jXyzgyKFxjXALHMsq62bzyUOSUg4DIgIaY8WR+w6QndIgd+yk7NJRdyGLvNiNSMW4svtexD5wWDAuLUUgXIqeK8xC29KCGO76w/J1YTjnMJ/P0LYNFv0i6Go84Jixd/sWvvvqq/jK176WxZmop4cPHQfAcFH0HEzfgGH0wIAwMLPdl8xYhj9jORuWmR00PiV7ZwlhyO4teqE7Ifz6tAnDlqLEcKKHfl4jb9JySSJwzeq8s+aiFTv+qEuYcsHIF8xAqTUCLm3OoTrX4NOf/RxufXwD77zzdoY5Wl436bAzm6BtHcCcmUOtw1MNNCt0QFjdrQH1niJrpi3KKXeagODB1MjeD54d9e0oB8CpTwbBUYOoQxDnKHIS5UhudNrG6tPxb9oG09kUrgEW8TSqsLR77vHTN97Ar/3G17Py6+2mpKiT35EsqAmY1CcgNqK6cdi3q/dJsoBbJBmBZbhWEgM7TmoJOkvYmDCQaLVZd/TIkllvxwS6K9UHRGIdkCQHV6gAWAQ7ja3INDjyXvjuc6pfVDfYCwPPu3pRQOK2kMQQR4RLV6/i+c9/Bm/9+Ee4fesu+hj56EJOB3aYz89hZ7YbTJjkceR79B7gEDWUPtRCszs53fHg0JATB6NACFTEKn3wnXiQkg9KX2aCQ4OWWrTURsKY9AIysLYNRXxKGKIeHMKO0rA3ckY0E8i7YHpWJHYyR87FRWKdy+JclJwEepBjzGYT0SsA5AmQ/jSO8Af/3z/B4089jbZzAELOzZSA1sFTWjwx3oH1bgzRg5NxdCrHkU/cm3IIzBkeEtzAiSn6lhiCD1U4mo+KJCqSERrYZEZ1v5LhbyVinvnBc3AaLG4rGy+BVdSudp/lxui7RrdgH9pMMDoePPL4U3jiicfwvW/9K9y5dVvGJ+jwPXv0vkc3nWC+Mw+nUvkFfH8UErzo9BIl/a1RsOVBNRhSOkNIY2BbdE8P7/eyM8bcApwvyCGEhogNIl1TqghgsVikHWzpYKey6o7IgWj4Pohf02k4/Lfv+8A685FYinr8yQ9/gKc/+wIuX7mcOl7UVBmeUg2F5IGxPtprL4gNpeEkSqxjOkwBUTaYcEtYtiZOELYmDGHSaAVNsM+Pd6dWRJxMP15BZO/Oms9CaFvPjGc+8xlcPD/FD155DeyjSiksCXFOmUw7zOZTdE2DtnMgk90omrocBetE9CQ1LKWrEAd5xyu3ZLm3TNOvtm8aRAJm/dFdT/0ctG6xkASuDWiaJrG3hUik7wBInE/MTTF0A2fRCc3n8yJWQHdx4OMP3seid3jyiSfjWyUqRUVncU2fV5NxonCbLUwWs2osklJ0/7qoF/q9iS0kvWf9RJQ3P23YSPnovced23sAIKm7xTasER5Cnz2nIBbApdOLAeTaWmHTxiiD1f4ofsrXRE1UitTdMPB8mjeQiELdLmRIJq/1hoG2Mt2gfqu2KudCNwEw+sURvv+dV3DgGV946YuYz7r0mlkMi6Mj3N+/j559zP5E1FaDe+K0uFLu5NgedbF2GcF2CWmthpzEPk5qaSBQ08T4gtqwk+Q/s4ssjL0e5JtExRJKf3+1KoAYfd8DPihpu0kLcjJHrCSVAfa48c7beO+9j/DSF38FIRk3iSopr1N3by9t0sGPvjEZ8VJWU9svhEXEUC7KHAMdY/tY5othgwoR+t+0zUD5qGNFRPCLBRbeg5oGXZNMtd77MGYGdnYeSOVjDRQbDctVQB6ME4w/KVeD7FZM0LMWo0xnii41xQPdBil5SsgzkN1MmWPtk+1PWaN6d2Undm2Lz3/xRezd/gCvff9VeOoiMlqF02Q6xc65XXRy9kQklpWyrTkyZVsaYckp+T/06NFQvqsSuWSmU6JNGtWRIxyYRdvqg0xsMUQYGjgqIkapKMISMvMMhT4zhwN/J7NJOMtWrsVlycBibx/v3fgIX3r5V6QNyaIzHIeheOCkPO+Mg1n0kk1WsDiPosDe2HOWjWs/RYNpug1IlOrycktCWsLG7TombJeoJXIDyekmAAfFWjS22dFHfF7lthRug1gmOy/KK1e1YLCUQRovYVqTiELOdUfCov8sIQppIXMq2Jg8o7bfvksO7XSGr3z96+gP9/BHf/hNHOwfIu5PHESivu/RNA12z51D23Wyk/bQRKCpL3aRqMyv7t8U+6KEMhwojziePhsUKYM5bY8wEZHGehEJhiSKlVfNoNm5kjFdQqzs2DIz2Idgtbbt0E47QD1DOQ0zMfDBjZ/j1e//MV548aUUTJtpDchYZuzWTcP5YcCxN+ZLho2dsN3R+jW79DDix/RPGuxAxkMyjKG3HIqUF734lzDoKR1tZSM7S+UZtuIYdNvOJyqA7dCQQCj7nlaoFkliUsuJhH0s1WBt6JQ3QeWxQWts0E7aiYG0qw12t5G2UlGHaQmms138ysu/goOPP8D3vvttyeGqnJEhOkSYz2eYT2cAOO6YajKjGC2DghDnO1EWNqKiGan+3bbavpvaY/sEKEubxiiUbcYHolWv+EusY/okIsymc3TdJPRbfR7ACNYZxp1bH+BnP30TL//6V8OBtVa/YvUdZKwLcYqSlYnlHA8QwRPDixs5mf9KbrAkfeO8r2J3eFrdaCINLd6K5a5Y3Bzxfvi+LrsHNohqzOy4XNsa2NK44CtF1CbBe4+jo6PijgRgVdTBYVdKz/YYmvZWQRWpDbaUu0wJk9kufuO3fhMNjvAH3/hnuH377rCNzGAidNMJdmc7aLsGwYEosPa+F2lKtlL2lD6Rswm7r68oZ8PCEK9JsxvmUxdMlIQmm9NkQlyyMJhQ07CnuBPKfnsJdGq7Jvg7cJ/5WYQ9psfbf/Jj/ORP3sCXXv4ymBfQ/A1xKXOqXsVNhoen8KlyggDUWKlLLs0h52NixL5VZmzrJ0E8ig4ZrDaNVzYAUfLW754ebK58vHMHAGHSTQEAjD5j6Up3aIDAfY/exrETdHaznzrIBGDR9zg4PMBkMkHTdIFiyk7N8UHFFLN27Q6wzBIyojRTRqhUym0Kvj/Ct/7FH+Dmzfv46m/+m5jPplACqqc5R06GCIeHhzg8PMRi4dE09sxLHxavoUoD2Z6MroIRTKPRlBHKsBDOpQgcQLhQDEEY4Kqir6poFD2F1af0i/Be27ZoO4emaaICzbL7HB7Ga698F4ve4UsvvxyWL6X6nCeIAza84xj+HPvDppdl8yxuyJir+5iOSvS/zcokMSh7ODTBTyLWwzHaNYgdqgRO9TN8dKrTjF41z8c03kDfByV927bZc33fn7ny8WwIg+/R98aNN84sx0upQYjlMBJbX9Hbr+QEPgnCkCmRmPH6H7+Gn/34p/jcF7+IJ596Gs7VEp0GpOn75FJNwcURAZ1dlHarTTZ1+qMFFosFjnoffPNFj6H1pE5ap2uDAkzwHJCza1u4JtlMahI3iVmyRKPa74FrNDMODw/xw++/gp3zV/Dsc8+GMuM/MjYaX2MIHFdwhs176UE7j8I1UNA75I7lQybUciiOJdeI2d2CGzqiCJzoAsf3omPUmoSBmdE0zVLCwMzY3d09VcJw7JOoAuItf0YHbOwxVvHRPDB0rTWzXzwbpypyFKtp3WlreRkAN4TPvvhLuP7IVfzBP/sm7ty6jc9/4QvhMNbCchDiBChyC4nt1A7rdx72XzzpCACaBuQ9+KgHQyMjbavCkxx1RTABQwj5VAmy0zfJPJpqqEB+PRCBhegQGGCXEQbtx96tj/G7v/N/48/+238eFy9eMKU0APex2OSrQWJtKMZ6zamMHIItgOp4GQiHkzqRIjYl1wNLu1RRqYUFM6UPsTPFyGSRqmUfMiXwEMa9h08HNuYYbt/WIKopgvvt8PXkx6Dv9VkIctaAAdlWG3lSwmQ7ga4LO7ZmrYRDZAFmn0xthguI6clOkjBIrJe2czAmzLh75yZ++Or3ce+wx/Mvvj9j4Z0AACAASURBVITrV6+CHMe2lco7/fR9H9yDdSyWsDFB9GYcHR3h6GgBBqFpG3Av+RaN4jXbvc1g9r4HUYP5bIq2cwgu0UEPYemLBmUxACbxbqSEwHa+M10CgP7wAK+9+j046vDcC1/AZDaJesAUfZp0UqnaoDtxPugT4sJUGSqOgh37/EoUWcuxqyw81bEqQ5wig22zEoE10eiZWJKcvhq4hlDyo1rvYhES5Djn4gahY+kXfYoMZmA+n6ObdKe2wW0tRjPW25mXFUBhM1mb4m8CUTtdUOLST/9kKpPxGOkHO4fzF67gV7/2dTz5qUfxR7//+/jxj36MfsFxt4+KOu+jQ8tisQgsZQPRrHP27KAe1n9CCHPf98GXnyj62bPnLJqxNNP6vodaR3QxZwpJkqAhcPTbT155iO23/UnmX4+D/Tv45u//Pq499gxe/OWXMRWiMASrAZAPA+QZ3pVEYTOozXw5nkqzmRBTqimZCpJwOtNE+63Jdbwh9GXZyziCpX4qyEUe66dzGnBsUaKE3OsxwVKZ3jxNGT3PZeBlIkmcNEUoK6gWpZ0KLCncCYZ59vj0Zz+HK9eu4wev/TFuvP02nnvhBTz66HUQkSi1kj4BCPJlkE+D1yMvo6KUc0KZTkF21agDjpSMQyISWci993CNyMTUYGj0EI2Ds0Ms5TInHZPxGwAR+sMD/OC117DoPb74a1/BhQsXwFZpKk3yA72H4TQzvQKl9HpGMVgqDEju25uExDnGmpTjEzy1b+Rt4kgcbLMy71XhMuxiDpYLxlBXpsMVFJrWGcoSbW/Kqa+Ak4WtCUNAirG01+s3PC70OPamDBELiPO8y9XSqSjHtoeyPydPadconxW9uMGFy9fw61/9Gt752c/wrT/8Jq5ffxxf+OWXMJ/PA0IN+uDAYp6rsZllW0pFn1oXgjlO9PuGdqtSLXAMHmjVHyBa6gcEx3sfciUwBmd76lgwAO493nv35/jGN76Jr/wbfxaPP/4ohC837LvZCDIF6ZpDz4iepnZL4Sjzp1nQe2qbyHQtBbFQ5WKtLVkiGEJYC7b+QhfC4CxJzyjEphR1yoBS3sxTgxPVMSS31hxZmXlgblEbvXMuCyMlSR3G0bMlEAZd+IOdAYishEfIemTrPWtX0hpIRAmYjewm/djf28NbP/0Jbrz3Pi5euYJnnv0MLly8EB8gIqhqOygCU9x+zaGImHF0tMDh0RG8h2HzPfp+YZDK7meRD0DvF5hMptjZ2TFnPahoIL6AsphZxAymKH1E5S+xx1s/+ynefecGzl+5gmeefQ7dpIVGfBOQ9SO2IvPBVlncKqKiFJ9ECYvBZoPReJlsuct9F89XTQ5KFpJvAhc3RV9gCYNLiV0IyHQQlhtpqRVuTMmONjXFSnjPoCY/BDnGSgj+eOaQX3Q6xWnB9oRhOkWIuMtX6tBcGZCmXyyGSkMDiljBAw7FZBvnFQYCHzuizDwuYagh2Qm/o7K7cl3kg9nule99B+/8/F089cyn8dznPoed2RSa7zE8apFUgsRkpZVmsPJkoxpnl5CvEaWWzxDazmX5PjHJomJZJMqReHz4/vv459/4Jp75zGfx4ktfCkrWQsyxgxYUxroSG+mdXc5Bfnd6Gi0D3hn3cFaWP14SPwTJiDQQT4yntfxNugrSThqpJLn+r0InkvZpsF5g+Cj2vxbzoniqIe1qrlQuzzOjXwhhEO5v+qAShslkUqxyMhwDYCeB2aOX1FQ1wpAtYF/Rh54lYTgDyHwdlArKurhz+ybeeetNfPThx5hM5nji6adx7fp1tF0rhERXLiF3Ta+LMOv0PyzMpDCsybjDTkjNIVgDd+/cwhs/+Qn29w9w/vJlPPHUU9iZ7yRev2yLldGzcHA3vB95Lr3PSPZtjm7R3u7unLigpDHIuZEMgwrC4FSHIWNsOSJgfIOLvfAqpggxo5SlaVvCoIalHoz5/HQJwzGUjzU5ejmN4coP1a5GdUDJLSx7eS2oyR7jYJFlXZONN8Kl9X4bA6J0XrSyqyE0l3D+4iV84cIlHPkFPrzxPr7/yndw6AnPPvssnnzqSUxnk+Q5accMGOau0B0rEo+xxoWU80SyuNS0GDmL4nEOuSjQ97h58yO8+r3v4d6dfXz5K1/BI49eF30FAldBI8Q5uxT9A5FbI9IYRaIY9x1VMpPBO0orloynbaysj997KpKtaPYvudaTj1mgVO+zNEahQDMWCajUGa1DqAdWJyXQIvKsCgk/CdiKYyA4CYSpPMPDnZw5yLf5xbFaKsvRsnUrRiXtdlpJQKtT5RwEcz3WIwzVIkamoe973Ll9Ex+89z4+vnkTvWfsnDuH69eu4crFy5jMZ+EgGW1HBMHkLDANpnH2YePwUcS1B0269G+xwJ1bN3Hjxg3cuXMXcC3O7ezg+qOP4dLlS9AksWMOPJB76s2qZsz4vNnw7ekKXrlD4RY16oGR79yk6e+gDkmh/y7iQep/Tw7EiRO1fgxEJAlwRcSl/H7RsazF2hfNlG31Xss8Hy3H0LZmv+bgB6Sew2elY9iKY7A21DEbbY4IlUJGye9IIJaVUDZYeGcpShynprHF1DQNLl26ikuXrwIAjg4P8c7Pf47Xf/AD3L11G+cvXMRjj38K169fx+65HTibDISDASxEXIZFQuo3lIn7UT0qqoJADPq+x+HhIW59+AHe/NnP8N6N9zA7dwHPP/8Cnn3uC+gmrQRIaR8YY3yWVaZFvwZQFGMApORVAJyvcStWKzDEH6ZkLo2EhYzqksfnaFu/lsFp30vKKUW1sfqZ0+nX3vtj4dW2sBHHwMy4desWgKFVotQvqBkqIEKFYxhjGbItAHbTjztK9EFf1rGCwp8Fx8DAaBKYrYrV9tvNjhHH9OjoEPfu7WPv7l3cvbuH/f09HB0coO8XcE2HruswmXSYTmfoui7kgHBN3BGZGYv+CIvDAxweHOLg/n0cHB0G92xqMJ3NMJ3PcG53F7u757B77lw8R4NheWS7iGtKJL1s9CFIFn2uyI/sNVuViFnmEZX1S44h0DU9GIaKuVCrQRIlxuaKKKRoL5qczbOL9RnpJUxaeiH+kfiMJcpHIMVKtG2bOA9xEIvnSuAB5BhWUTpzdRxJUmmrr7Jmv8FA0P0kqOgoWDw4wYZFrizXxEWlVjeZ4uJkigsXL4p3XHh+sTjC4eF97O/vY29vD/f3D3Dr9h0cHR3BL0JiGI8QD9F1LabTGXbPX8D1xx7H7u45TKcTuCawFsFPIhOSE50i06ilHcm/EEn+jahhqUPgTJMFRDcFXZD6sqWbWbhdldswv5Y0u1aGJV8lw6tmxUGA3HgVGdQ9WT855fmJez6eFGQSoSHCFiEeLOpwepAIhB2XtCJItjFN1tK0LebNLubzc7h65ZHcb7+QyZglRyznC9TLiVOOmowwMcUaNwDLUi25b+oJloq6yKDtIM69HADzW/pzkuuKjKijLbbXoiVBn9lwYY8x7yfqvr8mbEkYggbdKo5yf4YYfxbuFXkTBt2MtqA0iNk3SixbOcyBLdY6fKa0InJS2SkPrJFdTyPuQ0GXSvwViaVZULDhyYHdp5reJqq4ReSitNuqt6RlhW0bNgIO8n7kfVixQ/MxBCVgOE/Segfm1gn1lUghzikZDVl/i9hIipuK+kR4VOYnZzeWokpskZgf7YnmpdgaiULhkQmMEwwb21Oa3TnONU6W2o3A1hzDODVk8wmw1v6im0rhfFN5ZNAOle05OvCbN/6UcBUBKP3VVTGC7GNrIC2skwHhS6TS4JJd7vAWU5bvslbYT3/LfuTxEaPq7LzIWkEjsOkO/qD60yyDY4gSY3yhJQz1xT2ActCMHDv+EiInEZydnOwmFmnK7eD04OyZvQTW3Bd+mx/gws3Yvqfs9oAPG6+MlzxSuRf1ipTSqKW4ATkXQxV2RjlYK8sSkOi6ONZUY4rMLCVFudZ/Rps65tCVyuPIcWlqePsMW/SvlDXm6JVVV75n230GyLYlYeCQZxO57ZdAYi4qFTA24jEWkdP/uNkV2h4AaoYInqXG9z1OlpqmSsp8RlT6zDaDwd448nMNQig76jCdyCood+0SzHnQlK7YleWMcBN292CydHqX0zynVqpY6sCe0Si3wEY8KMRZ9YeKqdti3SkaMw3ZmPJQT7hmqB5H9SxgTXhjyhKnLmu1oCUH/egYDIZTna0o+YYwB/dzfwY6hzNXPurJzSFQaimTl95xBOs3pTudihChXBRf/jWELLPtMcUkW9YGaYcTkqf3NXUczJ3NdC3D7T+kTNOcC3liE3KEBXvJ0mC5S5uurgjkiy2r9AlhsR2X3WcqVbtrvQVm8TXJPFeD/4+PuJ7rME4btlc+emCEQ0Vati4+HxJtrIPMhuorh5aNtiBQ8LmtvbW6eFpj4lZszqPPnuacZSLCCZc1UC5EXhiqzAOXxNwQiWLaoju06BSMT2L8FV13OEaMZDqH6N/IAMjHDEpATgJyBkXLT9fShszxnnUIXTWiKddjMrA6czWpepNIkfArKUwTN1xkcBJ5S1PeBgcz4eXYHGhzhnCisRIJxod6cPJR5U2NUEtVJXmRlcAg4Wu1nCVKzFjPsoasOROr6vmFAHXsz4i5IQwZatqJ0b43xTiEJePYhVAlmU99MwRvG49YoT0e+WEtqqAgNrqAYgsYtEbFFyP2K/dhg6psAtc6d5M8J5PSIPwmdqbM3Ncz5aPQE7hTliuqVURKcBGHW61EWmusvVgWpwnbJ2rZaCEIXSVgVZhSLNeQdaakV3Dway/a44AV+1ZR7MyV91RbtRpGffqXQunEJH/ZXmDhEGktYkgS9qy7oBbogRh/kHbWtJ9rVEwRRB5NnHHvt82V4sfSvCXGMi2z1Y7GxZgwskAYG89lw0tsrI6GqizjZhkA+5DRG/J+KCMEfNlx0kKWHfR8UnBiOobcJbqElH8RvgEcx4QsRE3ORbAyVQFhwtkmogJywRU47mJLZGNVhEY000AcqiFe7f0hqxpv2J+0qbPPElglvpSYaFjx9EheyHjwD0XMDTqctJ/HDIPiZMQaS+GByMSbtoX1osuWYRP6smluPGzX8N/OIeaktHOSLEyla3OsNT0rf5vojszRZ0GdoJA9ncQJrbdO7MSS4iWRioqh2rSiLZT1Nc2Ei3EikLE0GdCZI1GAtEOjZ5mD+OTYAXqcAqOSbu/kYSPCkHl1xeW7IRAD3qTckii2iOMcjonPmf3CzZXH8zFYRysiQs8cuAyQlLtNmzd/ZTtQdjW37uftGGDlUgI5yj3oVlRq4alag6m/dqdYuVnqbx4WSFb75IsShYcw23DU8sPym7VvRvShFJGb31cRQhOfrOaA7K6vYAWuqEIwD9UyjTF8yoq1CmSueUiFzgQdtyYMcmXD6hIC5d9g1oQEsRcDkpRQJIg3gr6KFzKwpJyMR0w+WiJC9rs6oUZUUIeqGhLxcMdedsCIQkZgCWF3ULrp0yEkylra6ER5Kn6PZzJyaonK/XmnvHAMkuk42uJFAUZabEmAk1iggXIBeVOqtPiOEnBOgVAxjZn2gTmknydtQiDoWRqVqMA0Mz6KeprOjWPqtyrd1Ap96GvTNKEt5fxLm7K8OCgEYg0kxBB9BkSPNThsBfhkcfG2vWcEJ3DgjCTlyPwYysVgRAkSah7xMEfI3DdfSbHoFbKBGRukfAHowgxInA5zyftQka8xvMQcjm8vl0pc2KSEIaHwWhmUKvK95nqkRlK4DfwzKD1XYas1RCmOuSUc0HEn+T8Qk4DY+lx6j+Dg9TQryTlJMVQbkiPDm/LtFhpcl1Xys+HXqU0uSP2U7jcwx/RFbjK0LhzOM7bzcmoHIWj1zdjZqHOmML7RDdmIHWOG9HqtiTCktqY6s2+ahsmAdYVOm4YohF0QPzhVs/F2vA0cmzDE/WMLaqZynt3ZGH3Ee5Wp7N/s/ZrbtDiGcLEw11aWFixvWZ+PGmOKsikbITixkOP1DcJuTaWl51/kAJa8r1hj7ehOd7jIKmuS3WFdduoaPSfBlO1J+sOh3xrvQAisuM9O9hlCzIQUKk1u7LEbjODfIpzLyNBFopGd7ZkPA2VfKpsAm9s0jrfJunC6jPsqZXEmvlPOlZwmHIswaPIP/QXoTjXS9OIYpcQXGOSPVEApAyFfOolssj5rYYxYYAPisAbQ6K+4Io9ZQw0FEnc1LF8HJKVFX4pA1TKAxO2ImAFjJ4j5DzmqKANjYfurBDKZ4Kw2iliJKqecBySKNoRci8wsqFKIQAzlg8T2r3XZoLFlfU4tzLwxsoEyHJP862K79YyJgiutyZ9QL8uCm2MGSybo1K7ERcQArHBWu0xrwvlMnDpF2J4wZOQ5LbrlnENJNpRdsKw0I9nVVy2u4TCt144VRS67PbJ7q+y8jVK2+nytCKvlYiBPyUZyiIoh1JGtDb/zeurfk7tvwsI8XZ5P8Q/6DucLJbM4azFKL5FmLeVuQiqTLJbkizCQAuFo2CX9qXI+ta5VeqntscMU+yDXncRCWCzkjPCkAShiOwVc9itwlmKKrND0WpvL91M/TpeLAbYlDIpolMtS4eo2C9JOftiZWHdeNthkISLQatiEU6idYLAJnImj0+huD9SwrMqu2m0yOvvks0dY0p/sfa2S4w/VHUd+z4gSetxbUihqAYXScQnEHT2TMcO1bXw5Uj85/ms/OhZ6N+jWUug4pPXKAZESAqU3QYESyyuFoUF7XfIVJdU9RKK1Ude2gmPkfHSoGHSXQNIWp40gsUh2QvRLOjHY0ORso/Oj1Zfx7OW1Za3cBs7U87FIGx+wzZnxSEiUtU+5jMzSwCn+gYEsKCVCntO6CoZ+x1mjkOpc3XutroHFUS00Nzgw9eYgYie+EEyu8GK0XpqijBwhkkVeW7OIk6UE5v3sLAvr+BjLUCVw+JCwRFS8lMK+xVfHcDyugiea9o1VjBDFcxDbEPVm+mxp4D0NOAUHpy0SsI+tKZkVJRlh0HJnkGXtAc54wX7SYAjsGHuqOc2jcnaQw2ILoIT4NUtc3IupdlXaVFyKYVW8Ip/CqqZhvHteOQyzKaVnM0+FeDWKjBXcq/dzOQxM15mo4gDq4UTjcAYSRIQtCENiOzeXdTimWPdkht6MTRyYXLwM7Jld5IaCZmNWE9f/VBCHyoosLw3VD0FsW8F2lzqEQR2DScvr17fzFHMWeworBWu7Snma06pbNaVGwlARRhvCoGFULkql+Tg5GrVkKKsP46exBuoREDxPY4MZ6q9DTGnc5PIZSBJbEAaup4NPfgy1l3zQXFNwOknsprxrvuupATmhVva35iNR3xU+OWIQse/kKfwY9VP5XkWFAXjTJlZeN7VXkpqEMdMDc8uzRkNFQ8c9l85gyLQFLNp8F9nyUf6RAovPZn5Jgq8YpUztkaR5XXyE6EdBdqnHfTfGXKoAEnQBGkzFcg6FSdd2jMljSqnoLE1lTocQWz8MDfnWaSTATDFHnUzoC51q+kCFrZWPVhmy8esFN2A76r0pd8nirrmhPhCguRRPMo98rZoTFZU4ihe0drt1AjzIBfNjOM8KaVeW++uJlJrePTlOrQ/qOckYbuYcuFNpmBEKQvSn6FuciCyl38uQ1a9fL8GKGyp+6Lulcxa5FDEsV2xBISdDMSXLzqg4CTjxRC1jfgyj6bLCS7aAeCPJwag8WL5zDNC1sO1aHsya/D2pOSvLH2SqsjDGAhvZK1JT1QlR+sk+ad8zOU13ZsrLq9Wkir2yibEJPjs1SsVSFoJSlp33KCUatozPwGRq/jLbU8JYeFIhAMoxVPqwEdh9kjmqRzNBiLnuIi+Zo9g22pQFETNUHPPbtG9DOFYy2BqsNBXVxBDLPWRljb884Ko/ST3CqbMtIyts1WMlZEK3YnKhfGQg8r+y8mLWaKMIKO3qyRFKQQnOSL5J5CQmJwdkrvhC+ZA/lf/C4JdtFUt/ShcwwpD2rg0q91saqu3Sa1a8WYGn2sNR8psxE6eH86eWj2FbVjdDAbPznuayV0WoVYhuWELlmkX904ONbPZRF6EyecBo69HsCCbAiWDjWvLuFAuUZPcdUOzlosR4y226txqbvT4xji0hwMl5Gd7Jns4AbTDr5VgrnjoKujdbVxyXZW0jGpxHMaiz6PJZiM9bE4ZwjNlwQOPZgVEkMAiUEQlWy1lFlFAlpGpdlisfjwuu+LsuJBlvizbFYaE1ZtooDDPjPGXKrVz5uCShjWXRiME+tb/X+zoxrN56Hsw+KMrYAZSOWiMJQAoJdZwUb+bdFzjAYb/WnAXEjURBWsVawp2Ym0HaonqBmN9B7f+VYfTeo3HJj4IjXkr/aISs27JcziXlHIB5zrxTkwpqZahCstRJuDgWhY6DH1TCIM41m2htSyUMkFitMfrPxcXIzv5rA2lhrgbF6BXPRo5gW8yxnIJhwZWDWHPOQ0sTxVeHnFJ8iM+yZCsa4bIsm680p8b617I6NaVMT+sNT1Z+ySWMKP2yXb9yf4x7rpal6JGJQjgLJhTAGWaJtsQhXlsD14cFIS2A2ijJ5fXReHs4loynrrzlIKzilDOuunzoGIKyLUJZ1rir9QZTLZEo6he+mWOZsSBTU7pLSMNg75Vg3dQz0UbfWoFDWq4GflXZ+1Jckr+eN+MHbVPGxOmaziHT2djAEZModxt7zbawlR9DYGFXIaElb3VNOQFLcNlocmy6sRpC/qJC3OHHbupi9EueAwAH5t7IyqpDELAcAKdlGIvPMN+KNvo3KSGoFHizmsjMaWp/0h0OMm1I0zRyoN5BZwhRIjfWNZpimeYwvNR9FNxEbE54piHN+Sz3DVvvMFy8oxvCivMjVr3vYghASndIxOksDO3MGcB2sRJbsqrbJSodbQUAGgzyGbkRnCxkW+BAKs1v1Rw4op08PD9uMUJcpfVn0rJN4gNiTkL29UFlo71cL6xtO4hpKqutyCFLDCtyK3E6GzPqJ0CFiJv7B+TJUxCvrRQlRmCZOKHEKW9PcIf2CK5nwYnw9KnD1joGG4jDzCHx6jKHJNuZbNchbKRNiVUcUwkZ10Cxh1khdhvCUsbzbtwmOx75jhj9A6LOIa/XWnESAaHIcXDMcREZ+aIB5e8i92S2ZWVJ01EuV2YPsAM5ZfVVz2DalYHPhowpEafaEXvEGoRlYmegQVuU6WpTVir7vuVnhR81AVGhqyL2lENdxEs42+9BS/P3lkGe5TrPJRX55AdXxzBUAoaUbG5URqxDsdNXqPAy7zN1Jx8tdR1Jp/agssFbT8Bgq1oNXLDSupCMrJXGh1EmvBnWb+VVIz0Uzw0Jef5e2f5Rwj9UJaSmQIiEXsrYbStq6uJNOoiyEhKiaZtWEywHPhWUSs9rtvwNAeY9P0LYBzhpiJ59vuSO1+MybCbzJpYfOeCijtOEE1E+Olpuh1VIA2P/hp1mXaKy9sJfCTqxkaeU35aLOStZxOgD4m5v2qeejnHLsDb+EbDmQouQSwVVLXsdKMtIcxnqTNdWK2ntu2mnTKZgNs8IuEDxxiwUq8DmjUzKvgBB0Sc7D1cymI6IxGWsWalkdM6tGAseEOQwAknMOCvYQvmofzdwCkGYPM8cvc6yfAkewTbOQsNJmdMhcmts+vG9vgqCkCqSRun9DUn1SFr7lW3RpDRMyNKvZznJgUQw0nVHbILXKIpB40OUL+LwNeVcCEU7EzeRMkIHhyi7kAwHyVGCFxNlb2IECk4mo8scL9qjhRKMLAmieMqTBidFPDFdU6Ve7/sgWREBjST1ZRFLVL7XeAZFQgNKouzlgNfp+9JlX41vCAROnbI5Kvclizc5TfIWpXgeLevk4GzMlcyZTBcuFQivXPKZNGgNODnW5HTALCgff6drAETckgOBjXIyPWfzIIRDZ3TRpx2/Vq8tRxLwRPFHV2TKzk0xuUoCtS9su+OXbPoy78FYs8tPp9b+rItzYU/KZVg7TAPBrLBCbLSIo9iYcw810ek0YOtDbTd+esnGy8ooEaDHkY1vEsdcqMu46NqD68b/r1Mvlb+XrArbTiquUf7dm98uph4SWd1orBKO2cWvCGySllo7OtgguG2gPpMv+OjMFNtkRZ+8Y8sRnXMJYmSYAuFbslQyLgtQu0nEMUvLBu/lbc6FjbwNy2D9nT3pfQjqmm44awpr5TiJa9aFLQhDPeNPyscwbLbBzSoQ8rQdcnF47cRh2SkCJ0QQAESdQRbZmD1QECAyH2S7hiKPXiKCJF4P7LA9pt6mBCvbYkecVY8xUAyOLbhyvFzkRrKD4Cndz8vNepfKM6/o6VNJqCrSCNc8C0d1VZy1gs3z4XfSJ6Q3rAk2a/raW/bAlD5KIIKQUt5zzkXDVLRPEcUDbh68ICoGqNm8URv7MSy1728JWZlnQXtHYFseOkJagKwROxjunmGxW+VmOBGCMkvBWHIXICz6kx+nYOIWBK8fE5HA2QQqlbIslVmCXkqfnehQvBzoYiGS1cRkZJWum4+hBjYnQ9YuZlE1FGUWP88yJGBjwhConiqoVs2oyRwEJ3/XH9DTVK6srlz+Wp+GsR0/GswF82IKfAvmmWpiRFZe0TSA46upTbkLcOA2CZklI4IH+xA9WYoDOU3K83SSB/T0qNwh2eoVVs1jblJmL8oyILMG6GZhXaWZpIYlU1/NuSgc0tL3oKF4PhdxkUY8TN+QGAblH69Hz+1UG5FtiNNcJTzgHkAT2kuJaTyr1bCFg5Nfk3Rx8X25uaXGdpUM58lAjWLbdoy8tiqwI9OhkP2RbsbtR/o22OXUv00vZoXmTS/bmaVRT6NNGFtEqQhPabyz5g/fyvqWkLwiPvJwTgkcTsga5FhI99PxNpLrMAjbS7EgtmpdFt/8VUKUNaVYt9UyRhAljglhxVhmb1XmiPJOnfH+uH288FrmSt1Ba7LygwOFRF+BFe0mUWfFwKjincghjI1ZDSNXtyqB6BfIsqvBGjB2uLLunKWtUOnExgAACylJREFUIO7UMVhKD6MrFGErzmIv1w05AjknFoq4JEWZ5hGyOFZk56hLqbPh9bqXPEfDxmkos452yRE4+ei7zRpzoh7lmTBc9EE5iNLtOnBWcmTfBhz2ScIWfgzBY3u1u4XKYpCw2qDcGkaRleVbFdES2day+qa+rSDbIcp8BoS0oM3uaIVPAtQPoCFJ9a1lxDoUUwzbH7cuGSsw1PZfBRXJYtn5iV3hLAPxHYjJWFzdIyCrwsW14o1uwTRe2i51EoNMhtZwrJwHyEW/AsDsnhm3rCIDRS27OsgFqci8q3tQ5Gh0uBSPQv8zRyIgORbEs0ySGpOkzpo4oNJclvWDcmFqBd9oTJOmPVGWyOduLDjLOU2Mm4iWzah+FqRicx0DQux8+HRrvlUfznoeSL3GOM5aPx7kSU7iJNlHRnjXPiL+SPNPJcuGWUExL3oSclfLxJYAU+Way29lvZPRoREPRTAc0gnhFYY570mhZKxhzrL07Vm8iFS4zPa0Cdi9YIs3wzcOG56N/3DOwXsfE7aUb4Z+ncXBdAk2EiXKRve+H3mSs89Yttzq458g+xRgiMKBRUfBglpmPG/vcgRMnS1lYwIZ1+cV728gVHtYsWHJ+DKUxSvXtnlN+2sCvIzUY7NMJy5EzZiJX/fS/lE6yXWesVTcDXBJ28GIQVGeOOorVlkTVEGaSYJm+98cOw2eLOFuSxEjfz+9wtrGTS18G8JGHAMRoes6LBYLgDVtVs0yMVxUa/dhzMd/8Nzgy8lCxb8178e4/D/mW59cg5Ep/5TLULYzprQrix9g7GAvzcdMFqkrnlkG8VmWvIUM0ICklASyLHfYLmuwCfXIADglIlSw1LKZDKfBPDMOeVq01chHRFmEsINIJEVXNzeSmTknbXdaMwOxq/q+VG+5oJVxF8eDjUWJ6XQaCAMQTVCAnajcy23gw17TMZyGv8IJA5WLsvoMjVLzZZNo2eX4/ifCNekBKRRDNgiAd8ebn2UxBFbxlu2aFjVKBnMLM/ayJCnruCyfZH2152rrolRI2u9t2z5YsRJt22bs7qJfwLkGyeOtkJGOye6sO8AnCzk2hoCasHwZHJOKWomaAKBnOGPijyOinHmmt0A+YpYRMM9s3HLPIu7rypJ2L1sYRXvj30KqsWVkeWJMgwc6AwLyXY9jnXFMGLmS0vgKpBwUATw4xDyYtrDpQ9kn275NcEjjT5aZJWNdx8TNIEEXPg4iCvU2WA5AzwzXNtXzKU4SNi6diDCZTMKORhy00azyZv5ZnygYIXWkztMEbSZHxKYCKdRp25kdLCUvJRE+yQ2du4OruOB/JXCMYY4ngx0F2shEl8qtySC2rzz42EapDd5+mCUQqyh3MGNCP0tlp+oXUtZv0x7k81vDgmwc/FAvUdCeajmWK1hrTDcc9vp41p+pVRU3CcNteiQCZzfj6XS2WeO2gK0Iw3Q6lV/Be8xzHwhEQRRUjDgOnAWnQNmXfN+s1W+zIcQP5WcKRkXiEih3HSefQftWIHO2sFQ+j3nGT0gkUaK3rE+22gyC8o0qatmxdaR9znZGRvAh8IUSm0+sl1n9oX31krX+ml+Cvb8OeF93GtRcj7F8BN1C26zyOD4+EG/B6zMzjo6OsLe3B7AoQYjhHIHIiWJbFWhyeAQxRs+FWHX/2LCdjGyFibgTe40Eracc895Dw4CjIks3SkrysfWOrrUonEomu5w910A4k+BgJGJD5ch2ewRcUiKG+154bx0VddgJbaSiLD2eFpIzkePd4TgtBx2DUNbwvZgcBRgsOC0gtq7kEIjM5gQkx6yytcthXWK+7LlSz1TjVpTgeS9H7bHEjhChcSEbWt/3WZl932MymWA6naJt27Xauy1snY+h6zrM53Ps3zsAABAc2OMTUpqtABtls4EfQXrSI3ii+WqoQ0lbV8l/0ZlHYhLs29EdaSt/B8tAl4sk3U+qzcSyjpdnT5suy8+fgylzG9DTqIGRnZrGSx+60A9zQGwDmS5jjT20/ozmpkhWj8hNF2JVOMTJwfujrMy+73F4eIimadD3PZxzMQfFaRCHrQiDNmQymQBwuH9/H57VY89K2eVMjnWAl97PAkg22Z6yqjdAWLPDh1cJEMeuFJJARm9QYeVN26OEnTZhgE1kgNnYUiYfqcPpTmiax2lnDWKbva9WjUGXELkA4X5SYtbhk4KmoXyywXCGpJQ0oiLnlyVa2aGMgBidocQwxDlpBgvVEAb1+ozmYWmzTMAmu/2y54ARzmYAfuUzmriGuUfPfWatODo6wu3bt+Gcw2QyiUTlgbJKlDCZtGiaHdy7dy9SMj29OExKHlVfBRp8yUGxkAib7QLb+rxp1mD9mVCblUVNmsrwfCbvqneoA5jBMVNyeja69No+kVksJc6j+K3DMbaciPKFZ2h0pCtLcb9kxVnKqHBDzigWDa8f6ye7O4aKN4s41/MWVqWnTw0QklZBqfzCegt782fL55e9F9GseN57j3v37uGNN97AdDrFxYsXB86CpwXHIgyWsjZNg/39fRweHoKI0LYtJt1syFaPxPaXVDrzCch2Z7sbLxkcs7ttxN6y2BtNvoSsCkrUmr1MJtuFb3ZaM4nJ1TfoB3TfDboCkxvB6gsocRz6rm6Aocyh16XWl7PVFtRZyXA5NWQtuJQ0zkNvV28CrWJZebxx7EHUz2xwDBlTn4pU7qGwpuR/fXAa40AcljGL1YW65rVV17f1fej7Hnt7e7h58yZu376N6XSK+XyO6XR66o5NCieW85GI0DQNjo6OcOvWLdy7dw8HB4eikAyLwbMHe8aiX0SrhRKAUtGim0tUuKEgHmoF4HRaEFGeFJTitpomLxIqdeKRpTg22Mu0y6WScdXzWf2mzjxb8bD+cFqTGyz1MecgJ1GMesk5F4mKtrlsg36vIV7TNCAi9H1icWv9ts/beuyY2D6XG0H5XDmWte+6AG2fvFedUPGeUJYyJqHs75iYwJwsM4wcX2vKRnu/HHMbHqBr4fDwEHfv3sXdu3fBzOi6DhcvXsRsNoufruuiL9EDyzEoOOfQNA0mkwl2dnZip+7fv4++77FYLIK2fsEhZZcEjehCtjZgXdieGb3vRS5noDB/MpLzhz1N2RKbmleZ/a65EgNHPnx2GdS4m9MC22tr11aEK+u2SGd/bwLl8xkHN7IAyt+1xV9+L/+O3V/13jLivOpezexYll0joOU9W5YSTksI7XUltm3bxvXTNMFx6fLly2iaBm3bRkLQdV38WKL8QOoYsl3CBcJAFOIpdnZ2sFgssFgk7kA/lgDoAlaOwS5mD4b3iT3Vd1W55lXIEMJRvl+DWC+SyGs9flct8JPwzSih6vRiEdWqCirNW7Xw1/GSqy0G/Vu2b0zWXraLreK6xt4v21Xj0mrl2x3dUWGVKRbyumWSS5wrUVMlhCUXqOXob7Um2Oca8Uuw95RwKLHQ3yXBOS3Yyo+hBLvj930fP5YI2GfsO7Uyymv2ux2QWpiqPlv7vum1beA0OYfTgmVIZhfk2POrkHRT9911kH7VM2Ni2dj3ZZxQ+c4mHIleWyZa1cSokrDUnjlNODHCoKBEAEDM8qMa6/J8y5IQrCp7GzZ/22d+ERf4trDsTIaTgHLOl8n325Z/3HIGu3/FeS2qjEf6sDRjQuWW7v6rOMZ1fp80nAhhsLDpQj6pBVrb2Y4Lf5qIw2kj2mlCtNYcp4wCfzYZj3Vwb9vx/aTm5cQJw0nDA968h/AAwC8yUXtQ4WyOqDsGPJz0h/AQzh5ON6j7ITyEh/ALCQ8Jw0N4CA9hAA8Jw0N4CA9hAA8Jw0N4CA9hAP8/MeeuW6jRx94AAAAASUVORK5CYII=;" parent="1" vertex="1">
          <mxGeometry x="680" y="130" width="166.35" height="160" as="geometry" />
        </mxCell>
        <mxCell id="r32NBZHfsy_EUD98Y5zu-3" value="" style="shape=image;verticalLabelPosition=bottom;labelBackgroundColor=default;verticalAlign=top;aspect=fixed;imageAspect=0;image=data:image/png,iVBORw0KGgoAAAANSUhEUgAAALkAAADUCAYAAADAx4LYAAAABHNCSVQICAgIfAhkiAAAABl0RVh0U29mdHdhcmUAZ25vbWUtc2NyZWVuc2hvdO8Dvz4AAAAxdEVYdENyZWF0aW9uIFRpbWUAVHVlc2RheSAyMyBKYW51YXJ5IDIwMjQgMDk6MTQ6MjQgUE2iqoI0AAAgAElEQVR4nO1dWY9kR1b+bu77WlnV3VVd1d1u2+Wluu3Bezc2DAwDAoYBhPyAeJgHXth+AxLigR8xQrzwYAkJpBGITQg0I41nsz3exmPsXqq7upas3Pft8lB8UedGxc3Mdq2dvkdKVVYuN++N+8WJ73znRIRl27YNzzybYfOd9gl45tlxmwdyz2bePJB7NvPmgdyzmTcP5J7NvHkg92zmzQO5ZzNvHsg9m3nzQO7ZzJsHcs9m3jyQezbz5oHcs5k3D+Sezbx5IPds5s0DuWczbx7IPZt580Du2cybB3LPZt48kHs28+aB3LOZNw/kns28eSD3bObNA7lnM28eyD2befNA7tnMmwdyz2bePJB7NvPmgdyzmTcP5J7NvHkg92zmzQO5ZzNvHsg9m3nzQO7ZzJsHcs9m3jyQezbz5oH8jNtwOMRoNILb1k62bR94z7ZtjEYjDIdDx+v9fv/Asb8M5oH8jJtlWWPfH41GBz5jWRYsyzrQQQKBwLGd51k2D+Rn3AhYAEZv7vf7D7xGT+7z+eDz+TAajdDv9xXwv2z25ezaj5BZluUAtw50vj8ajTAajQDsAV+C3+fzKXBPGhlm0SxvH89HxyT/5t/BYACfz4dAIOAAMEFv2zYsyzJSFXr7WTfPkz+CRo9t2zbC4TCGwyG63S56vR56vR76/b7i471eD5lMBslkEu12G5lMBoPB4ECnmGXzQP6IGT04gd5sNtHtdtFoNNBsNtHr9VQw6vP50Ov10Gq1MBqNsLm5iZs3byIcDp/mJZy4eSB/BE1Sls8++8zxHqmLz+eDZVkYjUbY3d3F+vo6bt26hevXryORSKjvfxm8uQdyzch7+WAAd9RgIJ0IBoNTf77f76PX66HZbKJWqykPHQ6H4ff7HV6+Xq+jVqthfX0dd+7cQSKRwLe+9S2kUil1nYPBAKFQSP0GOTyvmZy93+/Dtm3HZx8l80D+/yaDOg71fJ1/jxLougIikzeSL9u2jXq9jkajgW63i8FggF6vpwLOZDKpwN/tdtHpdFCtVvHgwQMUi0WUSiV0u10sLS1heXlZ/V6j0UAymQSw14E6nY4Cs9/vRyQSUaCWHXEwGKhzfFTs0TnTYzYJYDcwH8fw3u124ff7FcWgMXisVquKb0shjLSEAK3X69jd3cXGxgbu3r2LjY0N1Ot1rK+vo1Ao4PLly2i324hGowD2gbu9vY16vY52u+1IHEWjUSQSCVy4cMFxTvK73W73keD3noSomSlNDkzXCdyOZzquzEpKrzgYDBTVaLfbaLVa6rP0/gwou90uarUadnZ2cP/+fWxtbeHBgwfY2NhAqVRCv99HLpdDo9FANBrFV7/6Vdy8eRM3b95Ev9/HgwcPVKJoMBg4NHefz4dgMIgLFy4gGo0iEomo5BKt3+9PTbdO0770npxKBIEraYL03G7PJ5mkQPJ3aAR4u91WXrvT6WAwGMC2bQyHQ8RiMQQCAQXsXq+H3d1dbG9vK49dLBZx//59rK+vo1arIR6PY25uDv1+H/l8HslkEp1OB1tbW7h//z4sy8LOzg4SiQQCgQAikQiGw6G6ttFohG63i1u3biGVSmFhYQHZbBbAHr1hJ3gUzPPkE0zPFJrqRMYZubMp6TIajdButxXdaDQa6PV6sCwLwWBQURi/3492u43d3V2USiWUy2VsbGxgY2MDrVYLt27dwq1btzAYDJDP5zE3N4dwOAzbtrG8vIy1tTWsra0hn88r3u3z+RAKhdButxEKhWDbNnq9HmzbRjAYVP8T+IlEAouLi5ibm3PEK4+COuOBHHs3q9vtot/vO4ZqUgOaCejTFFDpAO90Omi32+j1etje3lbHMdWpNBoNxbd3dnawubmJ+/fv48GDB6hWq/joo49w/vx5FAoFRT3m5+fx/PPP46mnnsILL7yAwWCgvK/f70er1UKv14PP51OcmoEvO4CkLq1WC8PhEKlUCufPn0c+n1cdw1Q7c9bsSw9y27bRarVQqVRQr9fR7XaVlwsGg1hZWVGfNYH7YT0ZaUm1WkWr1VLAo6JCoFJJ+fjjj7G1tYWdnR3U63Vsb2/j1q1b2NnZwXA4RKFQQDQaRSaTwdLSEp555hlcv34dFy9eRCQSQa1WcxRpBYNBDIdDNVpQmtQ9OP9vt9uIRCIAgFarBQCYn5/HpUuX1Otn3WYS5CadW9pgMFDqxf3798ceq9PpIBwOIx6PI5FIIBqNIhQKKe/M6j7KjibQD4dDlMtlVKtVtNtt2LaNQCCgeDZpgWVZ6Pf72N7exp07d7C5uYnd3V1Uq1Vsbm5ic3MT1WoVAJBMJhGPxxGLxbC2tobXXnsNTzzxBOLxuIozeHy9Tfi/bC+3z5DS0MO3Wi0MBgOsrKzgqaeecnyf3p9tclZKBx55kHe7XQQCgQNgHo1GB5Idtm2j0+mg1WqpIZu6r5tRpiNwQqEQotEoYrEYQqGQA/DSGDRub29jMBig2+0q70wua1kW2u024vE4Op0Obt26hdu3b2N3dxeVSgXlchn379/HZ599hk6ng0KhANu20Wg0cOXKFbz22mv42te+hmQyiXQ6jWAwqDoNAEeCiOc0Duim94LBILrdrmoLUq1EIoGFhQU89thjGI1GjvYnzTkrVOaRBzlNT+ZID2LbNprNJhqNBlqtlhqe6Z3GGb2TnijiI5PJIBAIIBQKwe/3K91a1pTwHOS58REKhfDuu+/iJz/5CTY2NpQkWCwW0Wq1UKvVsLCwAGCPn6+uruIP/uAP8OKLLzoCWlmSa5It3V6bBHSOBhwVR6MROp0ORqMRAoEAHn/8ceTzecRisQNtNxwOzwTQZwLk9ByAM1sJAPV6XYGu3W47htJAIKC+52a8UQxEORyz2i8ajSIQCCAYDKq6bY4WvV4P6XTaUevN86NyQo261+vh7t27+I//+A/88z//M27dugW/34+5uTnE43G89NJL+MY3voFnn31WjVLxeBy1Ws1xTHmOrDZkG00Cug5y2Qb6CMTPDQYDPP3007h48SIA58h6VnT0Rx7knU5HAZZGaa7f7+PevXsquCP4CTp6o3EWCARUJ5LaOUcKSoTy5hMUw+EQiURCvSaPAewBvtvtIhKJqFHAsiyUSiW8/fbb+N73voeXXnoJTz/9NFZWVtR3mY6v1+uKjvEc9SlvuocfB2oTyEnT2LGA/ZIEy7KwubmJ8+fP49KlS5ifn1eqyzSj5EnZIw9yaYPBQPFtybklyPWZNNPcCIKUAJeeWNZ265SGr8sOQLBQrkyn00rC7PV6ivO3222USiUEAgFkMhlEIhFFfwg2HpvnQs9KYEpO7gZk/fz1zw+HQzWKUaGRCbR+v496vY5MJoNr166hUCio43ogP0IbDoeOVDhT1JZlIZFIKA9HoAJQgJ8UeFJPZkeRQzU5q/T0gJO306T31z061YtgMIjBYIBOp4NoNIp8Po9yuaxiCBlg01O2223VgUlTCEQek5/nXx3kkzy7nHlEaiUVnHK5DMuysLKygitXriCTyZwJVYX2yIN8fX3dUZkHQAWC1H11gJFKTDOp1y3DKf8SDNIr8n16e75HDT4UCiEQCKgsZ6fTUXUs9Jr07MFgEJZlqTiAx7EsS80MIgfnewR+t9sdS0fYBm6enKOYnEInk2btdhvhcFh1rsXFRaytrSEajZ4Zb35mQE4uCUB5QQKo2+2qIRPYa/harYZSqYRqtapuZDQaRTweV8N3IBBAv99HJBJRHpdACYfDqFQqiMViCAaD6HQ66HQ6KjFDT3Xcs9t1kEpaRM4u20O2lQSRBKmJQukqimx3+V39Qc5Pjy//8lgMoMvlMnw+H77yla/g6aefdvyePvqdpJ16gRZvqF5fLYM8Fg+1Wi2lljBLubW1hWg0inQ6rRpPgiWRSKjhPh6PK8/q9/uRTCZh23vzJIPBoBra6UUnKS9HYfSKksJIEEUiEUW3dIWDHVf3U25yomxb+dlxZgK+pDgEOCdv9Pt93L9/H7lcDufOnXOMBLrydVKe/tRBruvZfI2vM4nS7XZV6Wm320WxWMT6+roaktvtNjY3N5VHz+fzyGazahTg/EcAiMVi8Pv9KJfLigqEw2EVSMmkzXHrvDwnXjdlSAKp3+8rT85OLFWUSecnPS5NPh8HMjmSyWBdpzYMdsPhMAaDAe7evYtoNKpALqmdrM2ZeZBLQNP0BhiNRnjw4AG63a5DMQgEAqjVavj888+xvLyMe/fuoVKpIBQKIZlMIhwOK2CcO3cOy8vLKBQKyOVyatpYp9NBqVRCPB5HOBxGOBxW2UIWa5HbHnc7SA+n0xJ5HnLepg4204PH0NvcBHLp/aVNAjlfY7DPisl79+7h888/x+XLl41Apnc/CTsVkOucUKcpzE52Oh1HuScbi/XPiUQC7733HorFIur1OgaDAYrFIj777DNUKhX12cFggHQ6jW9961v49V//dTzzzDMA9hMX7XZbLevAgPSk6qWp2MgYhM85Da3X66HdbqvOLgNrBqJuQDeBXD6XcY7b902glp2IgTLjh1gshmaziffffx/z8/Nq4rT87ZMYJWknHnjqDU3g8kbyQbWEyQWfz4fBYKCyeP1+H6VSCf/yL/+C999/Hx9//LECeq/Xg9/vRzwex87ODmKxGOr1uvLYX//61/H6669jZWUFi4uLSKVSaraNHFJDoZCDThyXmcoQpARI9YWdXvf+kzy5G1VhPDJuNJAlEONAzntDx8DR8o033sDq6qqKH2QS7aQC0BP15KbGJj3gPEYqJaQl9EQMTNnoyWQSiUQCf/7nf4633noLd+/exfr6OpLJJM6dO4d+v49KpeKohLMsC+l0Go8//jieffZZrKysoNlsKo0ZgIMS6KvAHme7SI8rgzR2PFYcMmYgpdIlQF2D132Yfg9kYmncSOBGVxh4cuSRVZmj0QjvvvsucrkcLly4cICfnxQnPzFP7uZNPv30U6NXogfiUMgCKOrJAJTHLhaLePfdd/E///M/+OlPf4pKpaI4ebPZRKvVQi6Xw1/+5V/i5s2bWFpaQqVSUQEcNd1+v6+8C6nLcddMS/DIRYFIY+TMIsnVGextbW052k1/6LxXB79e28Lz4WvsBG4SYigUQrPZVDOZmJFlrfq9e/fw+7//+1hbW3NQ02nLKo7Cjv0XCBzeMA5jMnEBHJS1ZOOzroNcmd9hQz722GOIRCJIJpO4ffs2yuUydnd3AQAvvfQS3nzzTXzjG99AKpVCvV5HpVJRnoTUh+fCm0dJkalxPaFDEPK8eG48bwIxFAqpIItLSOzu7qryWlnRqBvbRM+mWpalaMGVK1fQ7XaxtbWFjY0NjEYjZLNZNQMolUqp9mbwKkuHqYjIGnv5O6RHPB99lODIKz0+HZNlWbhy5Qr+7d/+DSsrK6pGhzQoHA6j0+k4HIn07kyG8fiybW17X29vNBqqRkg6ArVmzkl5crk2iNR7GUwRKLyhembRzZLJJLa2tmDbNhYXF/Ff//Vf+O///m/0+33cvHkTL7/8MuLxOCzLQrPZxHA4VHIhi7vGmSkwk8M2y2UJZq5fwuF7cXFRBbb1el1NPIjH4+j3+1NLgKb2oOPgebXbbTx48ADb29sIBAIK7GxXgke2czQaVR2SowOPLcse3IAuwS3/yvNvNBq4fv06fuVXfkUBUp4PXwOgYiqW7tZqNbUg0qeffop79+7h0qVLuHz5suoENLlEhuT8JwJy295TTFiHLGs7mLihJ5ENDUwGebfbRSaTUXo5JTf+TjweV8VPcoRg5nMSHXEL7niO7ECDwQCNRgONRgO2bSMWiyEejyObzaLf7yORSKDRaChZcDgcotfrHXq4tm1b0bZgMIhSqYTPP/8c5XIZgUAA8XjcUTVIY0elZ9Vre2RRmX79/B+YLFGORiMV9/zpn/4p2u020um0el8CU/fqtB/96Ef4u7/7O7z77ruKRr7wwgv4wz/8Qzz//PNIJpMHViQ7cZD3+33HTHRZNUewSG9O4EuKMO7YlNlKpRLOnTunalboQaUawd+kDDepQAswT8jQyw7YiYfDoaokjEQiSKVSsG1bgZ2dmErQpE5sSpbpIGLdCLA38jQaDdy5cwd3795VowyXktMXMpLA1imjfu0mkE9KNgWDQZTLZYxGI9y4cQOvvfaaKi9mvbmsO+cCSIPBAG+//Tb+4R/+AT/4wQ/QbDaRzWYVxePKYX/8x3+M3/u933MUopFGnhhdof5ML04PLod9yXF50yghTpLwpEeil9jZ2UE4HEYmk1FeSmYw6b2mAZkceWS5LB/lcvlAoCf/f+qppxCJRNRoxk7V6XQQCoUmKji6N9WrBqn1s515fVxNi4F9IBBAOBxGJBJRS8Bx1g87rnzQ3OiK/lx+Rj4PhUKo1Woq5f8Xf/EXAHAgzup2u4jFYrAsCz/4wQ/w93//93j//fexubmJy5cvq+vL5/PodDq4c+cOOp0OFhcX8Td/8zd46aWXAOyLETJQP/bAk8uPkaOaMpzSHrbP9ft9xGIxlbG0bRvpdBp+v1/Nvo9EIiqI5IPaM5dNG2cS5P1+X2n53W7Xoft2Oh00Gg1V7gvsdZIXXnjBsWY4jzlNxs8tw8j/qaOT31OPjsfjWF5ext27d1UZMkeYcDisRhoZMOvg0ANK/tXBTTONCK1WSwWipVIJn376KVZXVx1LZJCmfPDBB/j2t7+N73//+0qkOHfuHG7fvo1MJoNcLoe7d++iWCxiOByi3W7j1q1beO+99/Dcc88hFAoppynb9kTUFcnvdIVCLpfA4Efnh+Msm81iZ2cHfr8fiURCTS6gokHAMyNHtScYDCKRSEysMpSji9So+RukRdVqFbVaTWVqWbT0ox/9CE888YQCFYdSOZN+nEnJTj4INI4G5LZMzPD3FxcXFdB5DVRVEomEkmYpAUpHZPLabgEmzURnqNJEIhG88847WF1dVU4omUzif//3f/HWW2/hP//zP1Gv15FIJJDL5bC4uAgASKfT2NrawieffKIcDUfQc+fOodlsqt8PhUIKayfmyUklCBZZ46CXvzLTqQen44zeOBwOK28RCoUQj8dVSYBMh8vFdBikjjOfz6fmiMoiLwLj448/VgBn4DMcDlGr1VCr1fDRRx+h3+8rbi6nynU6nanazwRyvl6tVpXCw1UBSPN6vR7Onz+PcrmM7e1t1RZsay4YJKsZJeXi9Y8DupsOz+ehUEjJjLFYDHfv3sXu7i7y+TxKpRL+6q/+Cj/+8Y+xs7ODZDKJfD6vvt/tdtXCSpVKReEjFAohm80iGo1ibW0NqVRKqSy8n6SnwWDw8CBvtVqK38kbwxupz2SRcxJ7vR6q1aqj4YLB4IGs3Tjj8ERuy+PL3i07i/Tc+rAmOS//3r59W3FaBnC1Wk2tiVIsFh2THJgMIUWQy1H0ej2kUilUq1UViLLTyMpCCWITZ5fXw9VuZeAuKxQ7nQ6Wl5fV8nJ+vx/RaBTFYhGhUAjr6+uqDiiZTCIajarKTODg3p+mc9GVJ9kJmFDr9Xqo1+uYm5vDP/3TP+H73/8+fvSjH6ny51wuB7/f76gQ3draQrlcVo6Po3U2m8Xq6ipWV1extLSE69evo9vtqnvP+8XzODTIOQTTJMBp8ibIv2wEUwOdlLHx2Bm73S5arZaiHaPRCNFoFJZlYXt7G7dv31ZrEAJwzPXkuobk34FAAPV6He+88w7eeOMNVWqQyWRUXCC5tu6x9UCW58s2paOQ39PzDcwFzM3NoVKpKAmTkzWAPa/HKXhUq0hjpOn3xu1+SbrAoNLv9yOdTqPVauGDDz7Ahx9+CGCvE7FkwbIs1Go1FItFNRmGdMyyLOTzeayuruKJJ55AoVBQHBxwlmPwHI6MrtCjSKVEAlxOCiDnlhKhLPU0NdZxm5QEecOoYXc6HViWhfv372NzcxPFYlEthi9nGEmZk9yfwefc3Bz+7M/+DDdu3MCbb76JX/iFX4DP50Oj0UAul3OoM9IJ6B1fglh2Agly3ZMzXojFYigUCrh37x5qtRo6nQ7S6bTy0rwnVMEIOlY60kycnH9NCg3vH2kcO1a9XsdwOMT58+cRj8cVnWLgToBzhtbc3ByuXr2K1dVVnDt3Tk27azabeP3113H+/HnHefJ+sJMeKSfXa1AIFv0myN6vp5Fl45wEyNkQMgvLKXFci/BnP/sZPv30UwSDQTz55JNYXl7GaDRCtVrFhx9+iEqlglarpUoBBoOBqpnpdrsol8v4zne+g+985zv4nd/5Hfz1X/81zp07h42NjQNlAzqI6Z1kDkHOfGLBmu7F5UjZ7/cVj2XswAePLzuX9Ip6zOIWWEoFCnA6P7mWYiAQwPnz51GtVuH3+3Hv3j21NmSn01HxUzweRzqdxvXr17GwsIBLly4hHA5je3sbrVYLTz/9NF555RVcuXJFZUdlAojXfSScnKYDnIEPuZGcAiVrOU6q0s/NdP5vWZbaZcHn8yEej+PChQtYW1tDKBTCxYsXHd7k6tWruHXrFn7+859jc3MTpVIJ29vb2NnZUWUEKysreOGFF/Dqq6/i5ZdfRjQaxfr6uloibhzIeY56VljKkeNAztKJwWCAXC6HBw8eqMBUB6e8P+TB9JDS8eiOaJwXl5yci4fato1SqYRKpYKdnR0A++l8TnR55plncPXqVRQKBUQiEVQqFdy5cwcrKyt48803sba25riPOnWSFPTIk0FULRjFM5A0eSJ+VjaibsftzeXyFbzZpiIwWW4gr6dQKKiNquRED3rEaDSKCxcuOOgNAUS+OY6uyNf0Qirp6d04uaQ0iURCqUGcZS+FAV47F2tiZlG2idztQnJvN/CTLrEjWpaFH/7wh/jXf/1X9Ho9hMNhFQ/Mz8/jiSeewNWrV7GwsIBoNKpWFsvlcvit3/otvPLKK+oesNjMtA4m1TTgiOmKXD5NDn00CSZTYGXSZY8b5KahVmZImcyQN1d63u3tbYRCIaRSKVWTITsJt0MheKjQsM6FJQhunlxW+ZlKHtjObpycGjULyFKpFBqNhrpe8l7d+/O+cLYPJVPdEbhJsPL+UarlpGyuuU5lhctOX7t2DZcvX1alCdvb27AsC3/0R3+EV199VXVYLrLabDbVyCCxxvjvyEFu27YKXnhRpoSHPitfVtFJheGkjKWcvAY5sJGfS24ro3mfz4dEIqGGeF43PXS73UYwGES1WkUul0O/30e1WlWZRimXSpDxuWwfXZWSEuM4T25Zllo3kdV9tr1fpipjAl1eZQEdwaOGf8tyeHXZdhLctm0rEHJ05+tsp6tXr+Lq1au4fv06UqkUbt++jXv37mFpaQk3btzAG2+8oUoA/H6/ygfY9l5WF9jfvS4cDqtRSEraR0ZXKENRdmNhEJf9dTN9+htf436VelWafrp6I+vP9So/+X3btpHJZJRiIjOwtm2rmS48J+nBpI6sH1P+lTKh6cH20j0xPbT8Kz25HnjqjoIPTmDgEsyBQACffvopqtWqoiuS/xO8zH72ej1Eo1Ekk0kkk0lH1nY4HKqssRxh5Mho23sJmVarpTz59773Pdy/fx/Xrl3DxYsX1cKld+7cQTgcxquvvoo33ngD58+fH4udae1IPTlNpoUnGRuE1WgEFbOYzAq6gdhNepRZOxMI5XPO7pevSU+oX6fUYt3OSx5HHk8HoaQbJk+se3I9uNR1c5328XsEHWmH9MpyzURJ2UajvbUaWfNiWlRfdjo9WGZwPhgMkEgkVKXo2toaXn/9dQQCATx48AA///nPYVkWXnnlFfzyL/8ylpeXVeeblJGexo4E5PoQK1+bZCwssizLsUEqASBTziYNWZcb9cBHgkCeG204HCqezMBOr5Djd0wg1gEur1uCWLaRTkfGeXJdgnWjLW7nKLcg5yoH0WgUjUbjAGAJeNb2+P1+lYnk6/KaybdN91/SFY7SVKv8fj+2trbw6aefIhKJ4NVXX8Wv/uqvqq1rZL3TUdiRglxevP6am8npWORpDJZ6vZ4KzCg78njkj/oIontf/Rz08+GuCQxm9OBFz0pK7iy5p7xe+b6beiI5taQjuqfWM5qmczBdF9sjGo0q6mXbtlqxQO6gwfvATiCTQWrigSYQ8DsS2KbEXqvVQiKRUDLmaDTC3bt30ev1cO3aNfzGb/wGrl69qmrIB4OBoqgm5eSL2JGAXN44/fVJJjk1sL/oDJeUkHIc36OH1UcLHXQ8nnxff87gUEXiYkKBLJcl6AkuqR7pdEMC0M1TSzoyzpPLTqIHp7rpoxivR/f08jj00OFwGLFYDLFYTFFF1ujL9nLTw91mUDF4ZbFcJBLB6uoqHnvsMdy8edMxS4gVlCy9Pap1WY6FruhAG2elUgnBYBCxWExF4nL7Drk0MoMieZNME20lXdA7gfwL7HWCdrsNy7KUh+MN480nwAHnVoASzJM4tZ4n0D2ymyeXI5b+m4DTe+rA4/nys1Litay9ydAEdDweRzweVyMp1SKZkZ4WB/IaQqEQtre3MRqNVJ3Kr/3ar+HGjRvqe7JikF6cxzozntyNmkwTODDNHIlEkMlklHZKMNBTulW7Sc+mB2T6+Zg8uZwdI+kK32cREDsub6AMrvWbq6sjfE+v3TGdv1QpdEehUzPgIMhl9lLeA5mRZi09+Tn1e7lgqlwsyMSPTfecnZoCwnA4xObmJrrdrio13tnZwe3bt7G6uqpoolwGhDOETJudfVE7UnVF8uFpPXksFsPGxgbu3LmDTCaD5eVl5HI5BS79mLp1Op0DvyW97aTaCy5JwXS5zNDSu8uYQcqHDGz1TqfTinEPydf1TiqdhCn24HP50FP0gDM3EQqFFBVIJpOOkZKJJ36XerM8luy4OsjpreWqDKxXCQQCuHr1KlKpFCqVCt566y3Mz8/jF3/xF5FIJNTsLjnbvt1uq61jDmNHopNz+xLAeQOoUkjqQX5GisKeXSwWFRebm5vD/Pw8Ll68qNkFvwwAACAASURBVHR2XT2h0fuxgk7O2JHeTHpX6bWZduYUOdatUCMnXZG0gtuEc8sWJjp00Mr5kW4ZS7mWoUkx0UcZmVKX3tnNhsOhY6IIJ4HwflH3liCWo2IkElGjqEyI0dNy8jaBzS0QCfLFxUXkcjm1S56kme12G6urq/jqV7+qsqmyY7vN3n9YOzK6ov8vwag/l0M/+amctcPaina77dgR2XRsHlMmMWRAR29rUiMkDZEdQdazSFqh/xYTLDIw5bF1mU8CR6cjpgePQ3lVT0TpJc1f1EycW54DpT/ZyWzbVgsWsdPKbR1DoRAKhYJKHsViMUVB5bUxLuB9B5wl20e1etmJrYWoD7EEIjOjsVhMeQrWFdu2rUCu0xbp2Sl/8fj0kJzPKUHG7+rH483mKMPjStVIDv8sB2g0GgrgsoRBAl/n5hLkemBpolMmkOt5gC9qpthF8n12dLnQKEHNUZNTAy3LQiqVQi6XQzqddtAPObKRPrHkQSareL84ih6FHUvGk/9LUEvj8MdEkD7kmjyvCZg8FgBHkDIc7s/rpEeXwNKPJTV4ypeWZTm266NXpTfT5xTKoVy2AXmuzmUnBZY0WepqUlAO683d2Cp/Qy4+xKCSk0I4ecS295I+6XQac3NzjtWwuL4KPyc7LemrTL7JHa7PlE4+DV2RIGIduZxcwJ2SZZEXeaM8pt5x5F+Ck5lSDpEmkOvDPc+R8prkv7qXlSMHS2cBKBBIc9O5dYC7AVfe5KMCtjS9DXQ6x7IKBqZy7XiCMJ/PY2FhQZXlcnRiwomURo7gulDBOhlSFXL0o7BDg9zNE+k3kK/JYIlVeWwwyfG63a6a5GyiKTrYpRdmml4GhKbA0wQm3kwOp5IXyt9kJ2DNM4MmvWBL8nTTQ1drdLCbAG1q2y9qpAoSUPI+0PFw3iuTQyza4pbjyWRSZaf1UZbPCXI6BZ/PpyRGrgVjymQf1o7Mk+sAN3ld+Zw9mrNn6DEBqAVzJEBMQJe/J5NFwWBQAb1arTpAznMgwPiaXK+D/JrJCxl46vFALBZT1X0AHL8jz8/UTibJz0RJ9GPI1w47nHPFKdIIOhhO/uBzBpWBQEDREoKcmjgpHqcA8tjyOjmS0YHQg5N/y8KxM0VXpjFT4MlsI7ks+as+gRYYH3hKpUQGotS8dZrAzxD8smF5LI4s9HI616bxXGV5gqRFJiVIjwvkecvnwMGyBBPYD2MceWSgLbdv4YrBcjmIbDaLeDyuwMzRU54zs5U6TSQXj8ViSKVSeOGFF5BMJg8kDo+KqgBHAHK5dggjY1mXzR4p/8q6CJk9pMJChSMYDOInP/kJXn75ZfU6SzYZuErvL1+T9eycZc+bRdBb1n4BEzsY9d/hcKg224pGo2pmDYEvwcjPRKNRx5IUNKmMyIfs+NJ01UUe52F5OYM7mbnkgzSB3Jt1I9VqFeVyGfV6HZZlIZlMYn5+HvPz86r0FnBmtNk2eie0LEt1hHg8jkajgcceewwvv/wystmsOs+jBPWBNji2IxvMpLLIajiZdrYsS9WYV6tVlaCRQYtUHnQw8H8OxTIIlV7FxJMBZz24SQnRr8sk78n33WjIUbTjOJMJOcDZ5gRmr9dTnFsuc+f3762vHo1GkclkkEgkVH2PzDHo5yZHWi5bbdu2msu5vLzsAPhx26nt/kYQ09Ow0SRYOBxubW2pjCQ9/2i0PxGYpgelABxbfDOIktRAHk+nNADUcg4mPZlG4MhFM00e+DAA/6LKCiVAGZhz25N2u41araaULK66Gw6HkcvlkEwmsbS0pBJ1cuIzTc8hSKol24YigN/vVwDXF9E/Ljt2kBNAuuekTCSr/gA4vCEbtFgsYn5+XlEScm15TJM3B/ZrNUKhkFJxJNgklTJp87wRjjmDojPJYFdejx438K/Jyz9MWz7s93SZjm29s7ODRqPhWIfF5/MhlUopSTCTyajVw2h6YRnPRRcEZPszcUQKyyQSk4HHbScCcprMIJKbU+qTcyn5PXYEDqNcJ096ZX5Wb2TeAN0LyVoRqbbIRI0ud9Gbu6XSGXixM/AapEc3Af6LtuPDfFd2almDQpBTj+aGAblcTnlxXpNeNMZrYzvqJh0FZdXhcKhUMyo4M7XFoUnTJoA5EZYBoxwO2fhM9csqQXYYDsduvJyBIbkkz0H3RG4qjFxiw00tkZ5cVvzJuZNu9kXBPu33ZKwj4xFWb3KUowen7i3lVWl67YypLEGCvN1uOzoLObo+Qhynnagnp0lOnkqlHFkx3UMEg0Gk02lH43ERS324lL8pPbusl+aQSZlQji6mAFNOctCPz+c6J5exha5ry79ftC2/SMeQwSfbI5lMqskSmUwG2WwWiURCBab0+rosKk3OwTWVLZjaghuTnZSdurrCrf44q5uNIQNRrlPCxux2u47lhfXjmyJ+0wLzMtWsg5s3yG0Cg/wdXSI0cW/TaHOYtpvWJPXi9bIyMJPJKKCn02mHB2d7S3qnn49l7UuwUgqWQOcGu6xL0ae4nYQdGuT1eh0AHLQB2L+p1M0BODy1HObOnz+vNPNKpYLl5WU0Gg3lcTg9rdvtKs261+upnd0Ap/eWYGJDstKx3W6j1WopLZ0Uhg3PGmouUxEOh1Gv11VJKCVMbtctl8xgAioQCKh6al3/fViFZdJnJ71PhxCLxdSIVKlUcPnyZdi27Shllpxb76huf3n/AXOnB/budTwex9bWljoPUlQZgx1GfRpnpyIhOk7g/9fwTiaTKjjc3NxEIBDAxYsXsbu7q5ZPiMfjGI1GKlitVCoT9/yRQyb5su7xTUGrHHIBJwD4v0lBOWvGayHtCgQCiEajyOVyUwV++nXJ9pjGgsEgarUafL69dRVZmShjK/3YR92Wpw5yn8+n5htyXcH5+Xl0u1288847mJ+fx+bmptJuGeSFw+GptigkEOll6Wl13Zt0RFcS6F3oeeTahbpJb3RS4J90fNI6ec7hcBjpdFqtvzLOZIwkufm45Jg0auM8FzkaMzlkUseO0k4d5Iy4I5EI5ufnUSqVUCwW4fP5UCgUFI1IJpNqdwEOkQTvOJMgp5Qo62XkjZIBKTmmnNzLSRgADqgtOsDPimdn4RMpmW7T0CE54k2TAZZWr9fVjsq1Wg3JZPJAQsk0kh5l+506yBngcClhbmq1u7uLTqeDt99+WwUwsrZ52lkj9Mb0/uFwGMFgUEloNHkDZSUhQc0aHS6bMRqNHJKkG7hP25PTZFBMxzJNhZ8+wukefVLNCUsvWNX45JNPKvHAlNfgNR0l0E8d5ACQSCTU5AkGcz/+8Y/x0Ucf4U/+5E+QTqfVlhm1Wk3p0dRgxxlvhPTkBKeJskig8zV6QX0ChLzJZ9WTs9ZdJoSA6YEky5313MI0xo3ABoMBzp8/j2vXrmE0GqmtDE3HO2oKc+ogtywLzWZTJQwePHiAv/3bv8Xm5iZefPFFPPbYYwcmODP7OE1KWAaeMmFjkvN0Ti4bmJxc/i9lTPnZkwT5NHTDJN0yc2xK+Ehzi3l0FcvNOC/g3LlzuH79OtLptFLcxkmyR2mnDnIGQ61WCx999BG2t7exu7uLJ598Er/5m7+JYDCIZrOpeHs2m1Uz+am2jDM2nFRX9CHWLQCVja2rLSZOehp0ZZLRQbAKU5f5JpmeBNP/TuokxWIRyWQSjz/+OJ555hk0m021Ypd0GsfJyx8K5IfN2JmMcyQ///xzDAYD3Lp1C8888wy++c1vqh3YgL0oPZfLqYIpWXJrMjYQ68fJs+PxOAqFgiovlTden71i2zbq9bpjM9x6vY58Po94PI5Wq+WgNXJFKhYkHbdNAwTW4kvplG1oqluXz2V9j/y+Xv7ANWtGoxFarZZK7gWDQbz44ot48skn1Swtn8+nFnSV9E4vGTgqO/67MMEIPnrYdDqN5557TmnmH374IYbDIebm5lAulx2AnTZjZvKu+rxGmpTH3GSzcWW3Z1k3N+UCTJle+VwuZiRnXMkSCW5wW6vV1D2i1Pr1r38dKysrSiXjeTDRdhJ2JkAug7t0Oo3V1VUAUDNWbt++rVa2su393ROm2ZteVz/0eaDyMzqQCQLJ08nNpYSo05SzCnDJo3WtX4JdPmf8w4SSrE8ZDodqphb18E6ng1KphEKhgN/93d/F/Pw8fD6f0sSZBNInfB+nnQlOTimLW+BREWAH+Md//EeEQiF85StfwcbGBixrbwJxvV6fqJPLG6t7I7nzGE2CWiaCCFyqLCb57azxcWl6RyRITRTUBD52CL0ArVqtqprxTqeDCxcu4LnnnkOhUEC73UalUlGjMie9cPoi9988bjt1T069mZF+OBzGvXv3FM/b2trCxx9/jB/+8IeKA7N2ZRp1Rfe2BDnLb6XpXpxei/RIThfjDCP5G/rvnQVj59Y9uZyTOe6hL6tMRYnf73Q62NraQigUwuuvv45f+qVfQjQaRalUUvkMLugv4yC5c8Vx26l7cgBqRkoikUAwGFS8jq9/7Wtfw9zcHGq1GtLpNPx+P7a3t1X6f5zpgNNBbqIqcijXPTtBrten87fOqukgl6XGNDevLlcsoLLF+v5oNIrXXnsNV65cQbfbxebmpmPZP2B/1w5mjOUEFn1VhuOwUwc5PXg+n0epVEKr1UIsFsPu7i56vR7Onz+Pq1evquUrMpmMql6bZjdnk7eVlEU3XT6k15OTBOSKUNP83nHatLzWRFd0mVQeT+fnVLroVOLxOKLRKF599VW0Wi3s7u6qFQs40yuTyaBSqahqTM6gokY+bZHXYe1MgJwBZyKRUBWJm5ubaLfbWF5eRqfTUTNLuA8ld0KelJp2U1ZkRaJJJzd5djnhQk9Dn1Uznae8Jtl+Jk8uV63lCreFQgFXrlzB4uKioiqcdM7ZXsBe8k7OluLKAZz6lkgkTgToE0EuyyH1DKDJEzysUVZqNBpqMXYGdp9//jn6/T7y+TxCoZDKlsViMdRqtalXV5J6LidPRKNRNVmgWq2qnZNZR07PJwM0gpxeLRQKqel78jNSXjts+0zy1NMcn+vYMKDn+UUiEcf243LtcXLvcrmsJjsvLCxgeXkZ6XQalmWhWCw61jeXeQa54JDMQ8gJ7KQrbirVUdmpe3KuHEtJT+7iHA6HcefOHVU3ns/nsba2phqLC/48jOkZP31Re/m5cV5df42mB6GnbZw4TCDL+Z79fl/t/DAcDpHNZhGJRFCpVLC1taWUpwsXLuDy5cvIZrOOtW/kqgRundFtphTtJNro1EHOhmJygBJiNBrF/Pw8PvjgA1XX0mw21cji8/mmmvEtQS1vhAxA6d2lLi49kAQ3E1fSe8vfkB7tpHTgcSavQ6pGrApst9uYm5uDz+fDzs6OSrsze/nss8+q2nO5coHM7ALuYGXHmjQ9kHYcHv3UQS53VQsEAojH40qe8/v9ePfdd/HTn/4U+XweN2/eVAEfQToNp9NT0jw2QS6DIV1d0RNCDDypFuirU+mjwml7cy6Vx3Pn+ZCyRKNRFItFtTjnaDRCrVbDysoKXn/9dRXcc8SkqtTr9VCv19VGZqa0vBwpdbBPI7seVdudOsgl+NjolJqi0SheeeUVvPXWW6jX61hbW0MkElGLv08TuEidmP8DUHSHSzLI5dRkIkj+zxvNYic5i5+fd6M/p2VylJGA47nv7u7Csiw193VxcRFra2sqVul0OqouhSv8ct3ISCSiZFQGlhwVGdSzM8niuHEcfCY9ub4WCsHNwO3GjRsqEr927Rq2t7dVyWyr1Zo6IUTTM5+cRMFAiOfB39cTRDyeDnLTsHwSysEkSsRzkMpQr9dDpVJR6fh2u61qhgqFArrdLnZ2dhAOh9W8TH1BT1YSypV/CXC5MoLeCaQnpx13Au3UQc5InA3JZX2Z1h8MBrhx44YqzWw2mygUCggGg46Z4pPM5MnlvE+9ApHe2wRymQGVCspZy3YCcABKJmXk0m3PPvsslpaWYFmWqgwMBoMqL8HjsBSCujmntrl5cnpwSWFMD92Ouv1OHeSUtwhy0gcmewjKZrOJXq+HQqEAn8+HVqs1dSmrKQg0qSu6SY4uAa8XcJlAflaArgfBVLF4/teuXVObxMr3hsOhylrK2qLBYIBEIoFkMulIkkktXNIV+ZiGxp2KhOiW9uWw4/f71R4/lrW/0wBPttPpIBaLqWFSrv9NzVuvUGPNA49HakBPC+zvwz6N8XO8FunNuUJXq9VSuyrwBskFcfg9DsGj0UitJZjNZhVP16mKTpXkX/39w5hbgRXvFZUoatNXrlyBZe3NyuJ5SGrDbDDbQgcvR2COghwZ9ZXE9IIunZtLO7N0hQ0ql+ZlQALsT3/iZqU7OzuwLMuxu4CUEVleyxoR7mggF/lkZ+DE4sOY9DKT5C15zSaP/jC/eRbkRZqJQtAhSKVEPnTwukmE09CT47ZDg1wuJ1atVpUUxSh8MBjg8ccfV7PjU6kUdnd38eDBAywuLh7gtLa9tzcm9xIaDAZIpVIqwJSLfD5sIshk9DamZaT1G6IDmwGolBH1mykBrT8/CybBrEt9UpGRXlh6dLnnqXxPlxNPk8IdSaktq844G6TX66FWq2FnZwfD4RDf/e538d577zk8cbFYxLe//W21Zrj0bAwwuUh8rVZTSxhI1eMoKth4c+Qk53EZUNMECtMOFjrQ5fOzZCaAStpB+skH8wryNfkwcXNT5zlJO7QnJ2ilhETeyvVNMpkM7t69izt37iCXy+HBgwf45JNPYNt7cyhJb0hf6PGo35LKZDIZBxfnunqHMZ6r3OBKB6zk0hLg7NBypwyT99I9ua70nKbpiRtd55ac2+TJuWueibpwJABONyg/NMgZIBIAlKjkBlLNZhPZbBa1Wg3f/e53UavVVGFTq9VSa1VTJ5fbVbfbbVUQZdu2ClqB/QrGw5guJcqlEmSgqgOd5yA9ua4o0CSo3ejLaZkOcgl0JsxMnYDfkwVWOkUBnJvtAqczkh0a5FwWgpJTq9VSGyuRX3On3kKhgG9+85vY3d3Fz372M+zu7qqRgHUQ9A4s3NKnnlHtYIHRYU3n5BwpTADUs6GSk5tA7nZDzwK4aboH1mmGnszRkzp83y3AdJN5pTR73HZokNdqNRV4AvvZQO4LwzJZboUyHA4xPz+PbDaLarUKAMqDstiHHmM0GinNnF6bK7NShTksL3dTV8bdAJOy4iYLjgs8zwLQdUXFjXaYVBR2Cv04/F/+BcxLwZ2EPTTI9ZvKeuJOp4NarabUlfn5eSQSCWPand9Np9PIZDLKO7KmORwOo1AooNFoODqPPmWLQCRlkYtz+v1+hMNhx/Q4U8PzBnIb7Waz6dg3Xu5LpGcPSa9arZZal4WdMBKJONLgbm3gBgKdMrm9P43xnNgx2U4saaATkUGlrDk3cW6+xtFLb2PT/6cVdH+hxYWkyW0HWfPNAivWe+u9XHpAend6BQKFXpydhsVU/Lxl7a1X3mw21U3Ry2Q5k2Ua02/itHUntm07klUycXRcnmrccfX3pBpFR8GOSwfkpm/LTu1GSdxAfJZUpKlBbmpYqh6cURIKhZDP5x3Bmb5Kki7DyX01pSf2+fa2WtE7gWXt77nOIJFyV6/Xc4Bcn6g77rp0bj4tyEejkaqKpFJDMB2lmbKlpv/112VNkAm4OvUwZSXdKIzbyGh6fpr20HRFZvuAg+oCPRmBz4IeCWxg33uwSIifoXfn+6lUSi0pJmvJAahts3VeyOM/zJIHBCiHbH0zrHHtwWo+dnR25qMIrMal66f5XKfTOcC3SVO4aKlJHpSAB+AK8nHe/KzYVCjQgS1fp5QmpSJ5g2XxFYEjPQepDQNLdpZ+v496vQ7bttV6H/K4pAncAhHAgeOw80xzbTrIGThP0zYMtFlsxus7SntYsMsRSpZYkFZyQrguG0qdfJI35/FNf8+STQS5qREl4DnMk/uZvDH/1ycYAPtKigwmh8Mh6vU6SqUSyuUy5ufnce7cOcTjcccSyqQVrVZLFXtFIhH4fPsruOo6rdv1SZBT7ZnWSFm4rDSv6Shu+CQQT3ovGo2qmIFVnlw6QtI+t8ckymIKoM8a0A/lyfmeXqQkwU3PLIdIWYtt27Yj0cNgs9PpoNlsotFoKMBevHhReW7yTACqjICLD5HLP4yOrnPyh/XEXE2KUulxLJozDS/X36P6MxqNkEgkkE6n1W4ZujMycfJJnlzaWQM37VA6Ob0ueTm9IcFHEPt8PsfyYqxf5hYl/H46nXZsduXz7e0YViqVMBwOkUql1IQKOQvdtm3UajW02210u10sLS2p4XiaawAOLgj6MDeMgSZT/DLtfVQKy6QA0+09TloOBoPIZDKYm5tDMBhUbR6LxYyKyqSHqQ3Oqk0EuUnHlZ5dBnhUU1hbLj0Baz0482cwGKBarSrAz8/PA4CqVYnH4ygWixgMBmrxyHv37qnVban99vt9JJNJxcW5HaLUzlutFrLZLEqlksq+krNzviLPjZx8XEWiqU0Gg4FaQi0SiTgqFceZyQvL16Q0SsrB4DEUCqktaKR37Xa7anuaxcVFXLx4UW31zfvE0dXkpSWFlLSN1yLjmLMMbtqRzgySCgkbIJ1OOxZcZwYT2N+8VvJxYH9bbJYMEMCSAvHzUgemls5OR+VDxgmsrRmNRg5KwXM2cc5xEpkujcqF7acJfCcZV4AFoIDJ62o2m2pl2H6/j0ajgU6nA59vb9vIQqGg9uuUqhfbWyouJk89jmc/CuCmHRnIpTYu1yOhjMjMGb09sLchFlfQIljJjSORiFqpicdnoCl3R+BuzVwnpN1uY3t7G/F4HNlsFs1mE5ZlOSYp8zfksWmy1FQWgwHmmy4TR1RZqN/LjOlh2pXAIyWS5wnsyYStVkutiZJIJJBKpRCNRg/U05A6cveMaWRBec2PErhpRzYziM/pzRgsNhoNxONxteMyjQoGkzgsyKJX9Pl8ykvJJdh0T86/bPxms4nt7W0kk0kVRMrMHrCf6ZOdhcdg8Mvvyu1EaPqNJtAZb1BJOgoZkVljuVmBBGSlUlEdKplMOuIWdnouu8xqS67oy1IEGXTKZJHpWuVrjwrgjwTkMnjTPbpl7a2nVy6XkUwmkcvl1ATZbrer+LX0qgQxFxuSE5qlBwX2RoNGo6FqVLicxe7uLprNJvL5vJrdz7X/2GFYAcnfZeAsd26Wu1mYbr5+7Qymp+Hj0xhHExn/jEYjxbkty0IqlVLtKkdEavb69iekbACU5CoDbrckjxuVOet2aJBL6VB6GRqDQC5LxvX3qGkzCJLZRd4kqdTQq8v0NDsTV1Lt9/tqkfdarYZ6vY579+7h0qVLmJubw8LCgqIucnkFPYiWnlxeh+k51RR5Pow/jiK1L5NlnU4H5XJZvRaLxZRawliHbcN2ZL0PR0F91Jpm5s6jzMeBIwI5YJ5GxQZltnI4HKJYLKJSqSCXyyGfzx9IBMmhmHRBvwESVFyVlVV/rVZLBbqhUAjVahWffPIJ1tfX8corr6hVt8jxpZbOY0tOztflZ+RzU/AsF58/rHE0ZLBJgOfzeeRyObV7Hkc7LuPGzibpiMxukq7Qe7vVozyKnlu3I+XkJjmKyoj09t1uF7u7u2i1WlhaWjqQsmeD82bxNcpp0ttQV69Wq2oJZnrgfr+PCxcuYH19HRsbG3jyySeRSqXg9/tVwCvpCs9PD8bk9enPZf0Hj6HHDIcxy7JQq9XQ6XQQjUaxtLSEbDar2oZ79pB2yHJkSpl8zkCTx5VTFycFnfL+Pmpm2VPcCTnM6dlPegvuLkAvKhdvlxWHMsVMj7qwsIClpSW1JJlUEGQWlR5N7vYQDodRLBaxu7uriqR4LsPhEJVKBeVyGfV6HblcDs8//zyuXbuGUCiESqXi0PglVy+Xy9jd3cXW1pbS0qmfE0iSGrhlI7neCTsof4deVVZpAnC003A4RLlcRiwWQzabVavLEqCMZaQT0NPxcoYPaY3k6Cwo02tY3KjLo2hTe3ICbNz7+kMfxk3vW5alvDprVNLpNDqdDhqNhgKHvBEyQSGrEwlAWcKbyWQQCoVQLBbx7//+73jnnXfw27/923jttdeQSqXU4jqm65EeblqvrH82kUig2+2qIJEdhdvDyBlP/E25s8PTTz/taEtZn8/1Z/TRZ5qHyXPPAqBNNhXIeeOkoiBf04FLD6wHovoowKGUN7TVaqHRaGBubg7JZFIVZNHrSzmPoJecU2rz9ITVahWxWAyZTAbRaBSNRgPr6+u4ffu2mpkkh3D+NcUXepvo9EVXWoD97CKpg5wPGo1GUa1WEYlE1PzYSqUCAMhms1hZWVFKFDsCAOWVqcPL89UnGsvMpXxP99ZunHwW7Atx8nEA10GuT0CQQOBNJ1dst9u4e/cuKpUKFhYWMDc3pwIpwLn3JH+PhV8c+kmZGAfMz88jmUzi0qVLuHHjBixrb0YRlRWWB+jZSVmsJZeckG0gdXDZ8fk+sD/1jGsMMoNJaS8UCikJNBQKYX5+XtXwAHvbzNAkOHl80+I+vB56ez2g1sFuGoVnyR6KrtDGBZvS6zElLwEiv8vhF4DybOTUGxsb2NzcxMWLFxGPx9V8Uanx8hgEqNTmuRV2Op0GsKcHcyUuSpr0+Dr/5PVQLye/N1277r316+TvyZlDwB5X56JJwN6qB5lMRtEr7gIhl4TQvS3jhHGcXHJuvWacr7Mdv/Qgl6bfSBPQAbPnkcfgsK2Dg/LXcDjEnTt3kMlklIeTKgvg3KCLGnokElEUQK7pQrDSS1uWpb4vr0v3fKaqRB1sfE335HIUI9jlBJJoNKrkVMvaW6OmVCohGAyqkmE94SbbVeYNTHRl0rop45QVvW7nUbWHArkeVMlGoTeVwz5VBFkgpd8w3iRmC+Uk5kAggGq1qsDRaDRUTQa/RwmPu/7KkgBOdOZNJcDI2+ldTUGl9IxytNCv3URT5Oc4srC+ndPROHFhaWlJBabMXugVswAACIdJREFUKXAFAyaa9HsgOTnP1Y2u6J1AXo90SPKaZgHY0o58fXI2qO55CCxTkMpOwCwkAchVa7vdLra2ttBoNFAoFFAoFJBIJNRNk8kX/ga9eSAQUGub8/MMVkkL3IJKCQa3a5XPTUBnKQEXMI1EIkgkEmq1Xm72xc7PCknW0MiaHtme/A0JYpOCIpM9bgqL6XpmyabSyU0mvyb5sD7rh56Zkyvorfk6P8fvURXhMQhaTjEbDoeIx+NYWFhAPp9HPB5XN4e/QZBISVEeXwawAFTlHoNMYI9a1Ot1lMtllEollTzSa7Hdymt5rVwyg9POGEhLoAIHJVi+pnNynXNLMMvAUgez2/cdYDAAfhaAf2Se3C1C1z23bGzJaWX9iMx+SonQsizVSYrFIhqNBnK5HJLJJJLJpPJ6nLQh0/8SCKQ/3BRXPw+Th3O76XK/eP5PObTf76sRh0kYCW49e6tzZODgWoU6eOnJpdwpP2u6N9Pcy1myI6UrEswADtxEnY8TfDqwJN/Vj+vz+dQsnGaziXK5jLm5OVy4cAHZbFbt6EwpUS8ZkCl4enyTV5O/K69JV4oIblZVcvUtLo3HqkgJUH4XcKoapmBwHKeWnl6CXH5GTxa5AX2WPLduR+7JpfeQHloHMLmxTI5QzmPAxQCU3psclBlDzurf2dlBt9tFvV5HPp9XgamkJrKQijIeO5ruzeU16Z5TBtW8LkqSTP+Hw2G1hbpM2+ueFdhf2s7EmQGzDi47JmmTGx3RC+hMI628XtPzR92O3JPrnorPZa0HPYzk7KQlBLrkzJT/ODLIgJMlAKxuLBaLKBQKagttmeyQ50neyv3mJcj1z0q6JEuLbdtWO9BZ1n6Sid6XNTh6hndcYKiDdJI6Mml9cBNt/DIBHDhiT07T1QjJr3kz5FxQvRNIT07Qs05DD+wCgYBSUXq9HsrlslrOIp1OY35+3pGalyAlR9fpkbwmPYaQQStHAQDqPOhZqQ7J2VASrDI45Ot6Mkf+rpsnl6OSie7w/KYF9KwBHDgGTy7/AgeDOekNpUfUvYxUXlj3LGtYeAO5Ci7XY+H66MViEc1mUy27kEgkVFmtlDIlCHR6pXtI2UF53vF43HH9cuFPbtcoj6knmTg6SfATyPy8HrDr6gp/28S3dZ1dmqlTz6IdaT05YPYMBLb08CY1RdIR03flkgxyEi/BRfmPAGHGNJfLAdirCATgGFEmBVw62HWvL+MEOVJw9JHLU0hAmwJDE+WYpHOPO3edeo27V7MKcOAQOvm0RuDpARufy6FfXzORSSFd65YTexmQmrRw/hbpTy6XUyoMADXpmN8D9utpGEjW63WVqeTWi8D+NuPAQb4rAchpaTrdMHlqvYCKncmNk8uRiOehP59l8E5rx74js7xRekbQFBDKIRhwbpstPT4f5O7yfRn8yql3nGGTyWRQKBSQTqeNnVBy3XK5rDqfSdKU527ixCYPrNMft4DRreO4URN5Lp7t24lsO643ugQ939ODVVOAqt90glsO+zSp3sjtWljWyqRNMplU/JnHYV17s9lUWVY5c0h6VelpddBa1sF9Lk313uMCS9k+Ok0xtbEH8IN27HRFn++o0xX5kKl8gpTSIemIPnVOvq+XBNj23uJDBA0/JwPPhYUFVTMjl5qr1WpotVrqGmRnk2CVICdQJRhNGclx6on8O86ju40mpudfdjt2kEtA868EunyNQNL5NDuAXhsj9XM3Tq7zfF3hAQ6qQRJA+rorUuqTnNzkiU0gdvPkJuoyjqbontsDuLudCCef9L6U2KTiIt9ngEjdXE/KUIHRQcxSXJkllUkZzr3kd2RtugSgCcg6lTBNSpAB4rhOYOL0wH5GVG9LN3riAfygnQgnB8wTCvhcAh0w17hIL0wFRPf+8pgyiyrlOs4souTIRBIDWCaZJJ+fJkAkePXpZfr7JnXFREvYRiad223w9QButhMDOXBwRpF8jc91JUaaSV2RXl9q7jxeKpVShVNy0i91d4JIlgJTleG8zEnqh65rSxCPU1gIcp7rJBrCNhgXeHp20I6dk08ynbPrz/m/5Nx6HbrOx6XkJ3V0WRDG70vObTLdk48LLE313CaqMy6Zo4NV0hXPvpidmRZ08976Z3SPp0tqJppjOi5/b9K2J/S0OsAn6dxuf/Xr0M/J9Nyzw9mZATkwnq6YJDOZDNIBRnmPn5OeXAau42o75G/rlITnM64Ulg9gvM7tBm4P6Edjpw5ynadLoPN16QGlbCc/L4EuPbiUI+UKuqaA1e38ZPA4DuQ6JZEeXFdQTPxbf+7Z0dipg5ymqy8m0DOwnOTpCWIADjCbOPmknSBMBVJSIyfIdaDLjmGiKW7e3AP50duZATlglhl1NUH3/Hq9igScrF1x8+STQGWaDa97csB9/51p1jif9J5nh7MzBXLAHICO83L6+uKAU0okyElndE8uOb7b+UyjrpgewGSd2wP38duZAzngnjiS709zDAAOimP6jUkSnT7B4mF0bhMt8XTuk7czCXJg+psul4wDDmrscr8hflZSnUk6uT59TAey5NzTnLcH5pO3MwvyhzGdv7vRHZNNkhB1rq9TJ0/+O/v2yIPcBHAJMIJUV2v4uUl0RQe5/lyew7jnnp2ezQTI3XiuDCxNxV/TJINMnluC3E398ezs2CMPcmAyHXED+KTv6r9hoity8Z6HOZ5nJ2czAXJpuoeV/7uV8o6zceXB8nXPm59dO/UqxJM206ykcSbnjpq8uZvm7dnZsZnz5JNMAnHa/m1SbTyAPzr2pfPkuk1T3uvZo23jc9qeeTYD5oHcs5m3Lx0n182jI7Nvnif3bObNA7lnM28eyD2befNA7tnMmwdyz2bePJB7NvPmgdyzmTcP5J7NvHkg92zmzQO5ZzNvHsg9m3nzQO7ZzNv/AZ375uBhg9TlAAAAAElFTkSuQmCC;" parent="1" vertex="1">
          <mxGeometry x="400" y="110" width="185" height="212" as="geometry" />
        </mxCell>
        <mxCell id="r32NBZHfsy_EUD98Y5zu-4" value="" style="shape=image;verticalLabelPosition=bottom;labelBackgroundColor=default;verticalAlign=top;aspect=fixed;imageAspect=0;image=data:image/png,iVBORw0KGgoAAAANSUhEUgAAAMcAAADaCAYAAAASTVaDAAAABHNCSVQICAgIfAhkiAAAABl0RVh0U29mdHdhcmUAZ25vbWUtc2NyZWVuc2hvdO8Dvz4AAAAxdEVYdENyZWF0aW9uIFRpbWUAVHVlc2RheSAyMyBKYW51YXJ5IDIwMjQgMDk6MTU6MjQgUE0E3YmAAAAgAElEQVR4nOy9ebAkV3kv+MuTa+13v72rW1KLkDBIyJ4JbAwaePbzRsvGHvthG0ME2BEOzD/PHs9gD6FhHGPzPMZBeONhGS+CBxLSGFkgCfGEHkIQoBUj0UJLr7e3u9/aq7JynT9Ofae+PDfrdkvqblrLF5FR91ZmZZ4859u3Y6QSsBUYhrHl+dfgpcHZ5v+lwtnW76U+/0Lf/4f1fOOslPEaXPLwcmdul+r4XyOO1+A1GAPihz2A1+A1uFTB+mEP4DV46XCpqiXnCpfq+C3g0h3cqwV+2JrtpW6Qv1T8fLHPf01yvEwgNQAjzf9Eko49D1z6zO1SZc6vGeQMBoMBTNOEZQmkaYo4jmFZkn9EUQQhBITImmlRFMGyLMRxjCRJYNs2ACCOY/Ub+o4gjmOkaQrTNGEYRgY5CBHSNEW73Ua73cXzhw/h9OIyTi2cwOLKMpobdTTaLfjdHsIkRtD3IWwL5UIRxUoZE5UqJmemsXvHTszPz+NN170R27ZtQ6VSQZIkSJIEhmHANE0AgO/78DxPjSFNU/i+j0KhgDRNL3niulDwGnEACIIAjuOwbxJEUaSQ3TAMJEmiCCOOY8RxrH4zGAzguq76O0kSeJ6nkCoMQ5w+fRorKyvodrvY2NjAyZMnsbGxoZDPcRwUi0VYloV6vY6FhQWcPn0arU4bgzBFGIZIkgSWZcG2bfVp2zaSJFH3EUIgSRLEcawIs1lfx7a5eVxzzTV429vehre+9a2oVqsAgH6/j0KhgE6ng3K5jE6nA8dx4DgOBoNBLnG/WuA14oBEduKiUmKEiqvTeUK8NJWISoTBiWZtbQ3PPvssfvCDH+Dw4cM4duwYlpaWECUxBoMBLMtCuVyGaZoIwxCe52FychL1eh1BEAAAhBDo9XrqO8dx4BYqEELAcRzYtq0kGBFHu91W46DzURQhCAJEUYRapQQA6Ha76Ha78DwPV199Nd71rnfhwDsPIEkTCENgEAwkodoOUqTodDqolCt4dcqN14hDQZqmSt1I0xGx6Ndwwmi32/j+97+P2267DcePH8exY8fQarVgGAZc10W1WkWlUkGz3UKxWITruoqrE+cnRK/X62g2m0pakSQpFAro9sOMukUqnFQBLQghEMcxAGTuSxIOSaSkH52PoghRFMFxHPz0T/803vOe92B2Zla9a9/vS+kH4zXieLXDYDCAbZtKCkSRRKgoiuC6LprNJjzPg+u6WFpawj333IN77rkHBw8eVGpJkiQol8sol8vKljAMA6VKGYCUMgDgOA5M00S320Wz2VRSRQihVCwiJN/34RWlCpSmKdI0hRBCSTbDMJQNo6tXRFCB30OpJKVHGIbqPCCJaXp6GouLi/i1X/s13HjjjZienobneoiTGGEYouB6eDXCa8QxBGk3SN06DEOFgBzW19fxz//8z7j99tuxtrYG13WVEV8qleA4jpI+pKcHQYBiuYTBQKoshUIBhmGg1+up77rdLqamplAulxW3J0fAYBDCMOW9aKmIMEh1sm0bpmkqtY8TDwAM+l24roswDBEEAVzXVf9HUYT19XXs2rULYRiiWq3it37rt3DgwAFYphzDa5LjVQ2J8joRty4WiwASNFtNNJpt3HzzzfjXf/1XdLtdheCWZcHzPARBgEKhANM0MRgMlLFuWRbSNEWpVFHeoSRJ0G63leFbrVaVtEjTFL1eD77vZ+yHBEJJArqPaZqI4xhBEGSIgaQT/R1FEVxL2iZxHCvJQeodERURc6lUQqPRwLXXXovf//3fx/z8PDz3NYP8VQwjRCH1xDRNNJob+OY3v4mb/q//G77vK72e7ALXdZGmKRzHge/7SjIQogOAbdtIU4n8YRii1WohCAJ4nqfcpyQF6HoaB6lIUQIlFcg5QFKNvGqkJqVpquwKOm8ZQtkYruvC8zwlRWzbRr/fV44Ccuv2ej3Mzs7i/e9/P37uZ//jRV2NSwVeFcRByMNdrtITJNUGQsIkjdDv91EqlnDy1En86Z/+KR544AGYljTAdc5NXJeMX/IoEXKTehXGMm4QRVGGw9N58kqR5CIiHNkVpiIoIQT6/T5M01REaVmWGhu9L0kQ/v66LUIE6Pu+snOICGl8liHwtre+BX/8x3+MJEnUOMIwhG3bmTl9pcGrijgA6c4kl2gUjdynQgj0+h0UC0V85+Hv4MMf/jDOnDkjOT9GiEUqDBEGfU//AyNio+tanV7G1UrEQQhcrVbR7/cRBAFM08xw/SRJ4LqFTMyBDG/ufuZIT+d1yAs28hgOHURodHiWiampKXziE59ArVZT0uWVTBjAq4Q4SJcnj02/30UcxyiXy8MrEiwtL2Hb/Dbc8plb8LGPfUzp6ABgCCuXMIgY6DuOcACUTdDzA9i2m/FIAVA2AUXTASgpkKYpbNtW9g0Z6uS+JcIhJOVxGDpoLFK1G3mziHi5JOSeLv190lAS7dVXX40//MM/xLZt2xBFkfRkFQoXfgF/SPCqIA5gxDV934dtm8ob1O/34bgWTGHij/74j/C5z30OMzMz6HQ6SNMUxWIRSZqVGpy7AtI1S4TkupIIwjBEp9NBv9+HW6jAdV0V/COun6apcgQot2sQKPvGsiylbpVKJUVE9DwKJJKRTUSVRxw0B/x7Tsz6OS5FqsUCms0m0jTF6173OnzkIx/B9u3bAWSl8isNXplvpUEchzCMFIaRIooCRRinT59GoVBAvV7Hf/79/4y77rpraDgHKJWKSNME/X5fcmRhIBUGEgOIkSJGiihNECYxUmEgRopUGIApMIhCNDttDKIQTkEa3oVCAZ7nwXGcTRyeDO1+v6+eVyqVYJom2u02Wq2WMrS5w4BsFEr3sCwLlmVlbCLp1UqRJIBhmDBNG6ZpQwgLhmECEIiiBIBQ5wCBOE4Rx3Jsa2trysh//vnn8dGPfhSLi4tKnXulwiv3zRhQakYYhqhUKgCATqeDnTt3YmVlBR/5yEdwzz33wPd9VKtV+L6PIAgwNTUFx3MyiXd5nJlUINd1EUURWq0Wut2uCrBx+4Jyn3zfR7fbRb/fx+rqKhqNBvr9vlKXACmFKpWKupYSGUnykP1C49KBpANXpzjwd8lVp4bnTMtBuVxWTOXEiRO46aabsLq6et7W6FKEV4VaFQTSG9NqyTQOQua+38X73/9+fO9730OhUEC/L1Mm4jhCvV5HuVxGpVZFGCRIjBGy6RFq8lIBUAhPqpDneWh3/Exsotfrod/vK2lQLpczHqXBYIDBYADHcVCpVLC+uqYCjWSD6NFxHaGBkaMhjEaeK90uIuBBzwwxGymKroc0idBsNjE7O4terwfbtnHDDTfgQx/60DAm9MqDV4XkIJdntVpVvv3FxUW85z3vwXe/+124rotWq6VSz6Moxvbt21GpVNFpdwFkkYqQjlQN7hLt9XqwLRfT09NwnQLqG004jqMQmeIN5PotFAooFovo9/vY2NhQLlIA6rpKpYLBYADf9zPRccqxItDHRgcnHHo+/z1JlzAMVfYvQA4D6TTo9XqYnJxEr9eD67ro9/v4zne+g9tvv/1iLuVFhVcFccRpAtfz0B/4cDwXKYA/+j//GAeffgauV5SuWmGh1x8gSQ04bgG9vg9/EKJcrko9HgZEChhJCpFi+L+AkRgoFsrodX20mh1YpgPPKyIMYoRxglKlCiMFkiiGJUz0uz24toNuu4NysQTHshGHESxhQsAAkhQF18P87Bzq6xvotNoqEk8E3G63lf3C00jIBuCxEoqtOI6jcsNINQOg1DNdnQJG0mQwGECYNgZBBBgmgiiE47kYhAHu+Nf/D48//viQ8AIACfx+N/P50o8fDrwqiEMYAu1OG57rwRQm/uun/isefPBBTE5OotvtKgOX5yjZtqs8SkhSmIZQxi5PKhRCKJvGcTzYtjvkxCP1hK7Vk/4AKDcsGdbFYhG2baPT6WBubk5xdoqmk0rIn+95nko1IdCDguQK5oVO9C6U2k7ExWtGTMuC6dhqbvJskptvvhlLS0vKJhFCIBxK6JczvCqIA4DipD945gf48z//c6nLr68rlYb0f1p4HvnmBiu/hq7r9XqI41jVV/AgH3mXKELPXa7E9dvttnp+GIbodruq+Kherw8Dga5SfXgOFxnnXG0jQqBYBCcOnphINg59T+/D4ziKmE15pMJAaphIDRMG5PGDZ5/BrV+4DYBAvz+A4xZgOx6EStwUL/H44cCrhjgcx0G318UHP/hBzMzMqKAguUvJBiC9nBBGN3aBEeEAUC5YblATMtJvCSHpGTw9hNyzk5OTmJycVM+Znp5Wbl9gFByk+AdHaACbPFL0XHom/U/nuFThwUkiZv3gkkePh2zbtg1f/epX8eCDD2akBc8ZeznCq4I4Ol2ZFnLTTTdhZWUF9XodxWJRJQJSaatOHAAyqeCc8xKSUy0GqSHcdUrA9Xuq0iPPENWCtNtt1Ot1tFot9Ho9AMDx48czzyePGFdt6BwhKhVKKbXINGFahjqECRgiRYoYSRohSSP1PYwESRohTkIkaYQUMWAkSCHUkaSGOijek0BmDt/y2c/AMAWCKETP70tbznz59vB4VRBHuVTGXV+6C1/72tcAQGXNWpaFhYUFeJ6XSd7TXbZ6oIvHDyhdnfR+PSbCvUEkCUhNCsMQlmWhUqkoFahcLqNarcI0ZbLhrl27VJr7yJsWKSlCKSj0HP58UgX5u+g1Kjw6rhM193zpuWMkSeI4RrfbhWEYWFlZwZe+9CXY1jDmE0cQxssXxV6+I38BsFHfwF/91V8BkAHBSkXWZJNrdGJiIlOoxA1vrhZxBOE6PM+05QYvITCljXDiKRaLKk2EjHX+9/r6OgqFwlCCJWi1GsNirGQY5RdIkghAgiSJkKYx0jRGkkSI41CdM00DSRQrpwIdAgYsYcI2LSBJYaTInDcNASMdtvlhxEMqVpIkiFN50Ly6hRI+d+sXUG81AUMgDMOLv9jnEV4VxPHlL38Zp0+fRhiGKBaLiOMYnU4H3W4Xe/bsQaVSUakY5LniATFgxIV5SjdxWYoPEIIDyOjwpmlm0tUNw1BVhJQfNTExgZmZGSXVoijCnj17VFwmiiLlyeIeKlKf6OB5X5SbRZ4oeg8aH4+yc8nCPXKUw0VVg9zuoHv2ej3MzMxgcXER9fo6vv71r2MQDF723qpXTIScG87E0S3LQqfTwTt+6u3o9XpwHEelhW9sbKhYAVc1eCCNkMQ0hpHmWCK467pot9vo9XyUSiUYrO6CqzUJhjXfGLlO0zTNIBsRpO/7KrWl0WhgamoKs7OzaLfb6HbbqtkCRdht28bevXuxb98+TE9PY3p6GuVyWc2D7/s4fPgwnn32WZw6dQaGYaBSqaiEyEKhAMuyWK8uS0ktsr/UeONo09wYhoE0Jm+cJNzBMC9sfn4ef/d3f4NyqYwoTmCbFtIUSJIsgRoGkKZQHjjTFKDp41gZhqPWSXp/sAsJrwjioPoCEuPENQHg4x//OP7b5z+rEIrnNnmeN9am4Ejg2lLlEpapXLbNZhOGIYNrqbJTsjEAIo40zkoj7nIlInYcB71eD6ZpYmZmBmEYol6vD2Mco5Y81WoV1157Ld785jerVI5isaiQmdy9ZNd4noczZ5Zw//3348EHH0ShUECpVFK/MwxDFU+Rd4ln2tJ78zmSBJ9CCAumKeMkpmUgCaUaJ4TABz7wAbzrXe8adi85dwVFqm0ppEpogx6rS748G+t8wyuCOICR+kMp3UmSYGFhAe95z3vQaNVVxVyhUECr1YJt26rxmm7EAiO1CAAKrqwT94oFFTDrdrsol6XhHKv6iHziiIJwk7qiJyPy1jqk4gVBMEyWLMH1bLzpTW/Cz/3cz2H37t1oNBqIogjT09MqVkL1Fa7rqlqSJElgCql+NRoN3HnnnXjyySdh27aaB8rXonHTPHD7gjxgioCiAICAzHY2EEUBbNOBV3DQ6XTwIz/yI/iLv/gLOLbHUlwEZMQ7+xnHKYTAMCNYPy+BGB/vKEmM5ULBy9fPpgGVb5L4FULgs5/9LJrNJmBApVqQIU4ISLYEMPJC8QPIEp4QQqVxqN9ov9X5Dffy0G94rIQCerwOxDAMFItFOI6Fyy+/HAdu/AX86I/+KFqtFhYXF1Gr1eB5Hk6dOgXDMFAqlVCr1dTzicjiOEYSQ3U2+d3f/V0cOnQIt99+e8YFzGM63G4hF7IhUqRxjCgOhzZMPExxF/BcB/1+jCgOMBhI79nJkydw9PAR7Lvicvl7UNWigSSJh8whVPMjv4+G44jUWOT62Blmpc/rhYJXhOQgFYEKhxqNBgaDAd75znfC930kiBUxAMDy8jKq1aoqQNLdt3qpqID8fhBKt+2JEycwNTUFy5J1FOHQywRkq/y4zaEH4PhCB0GAYrGo6jaq1SoajQZc18WP/dj1+M3f/E14BUcZ5rpNwL1cFIUnG8U0TZiQjRNKpRKCIECtVsPa2hpuueUW/Pu//7uqetSZxUi6SXXJtT24nj2sHTEhhAnDACaqNUxMTGB2dhazc9MwYKLdaeKyXZfB8Tx0er2MDacHK3nA1LZtlMtlTE9PY2ZmBpVyDXGcZspxeWDzQsIrQnJQyjSVj05MTOBjH/sYGo2GzEMyEpUD1e12N6VGcI8UgT7xlmXBDwaKAKXqhgxyjozJNKNWCXNUpET35lzP8zwlzSzLQrfbhWmauP766/HOd74TlUoFQegr1zN1Cel0OqrrCQUOJyYmUC6X0e12sbi4CN/3cfzIcfR6PRw8eFBVIpJK5ft+plyXE65EaANTkzUWSwGq1Qp27NiBHdu2o1arSYPaGiG9awvMTE5hY2NNvlsQwRoWZHHvGB2FQkHFecIwRKPRQK/Xw/r6OlzXxfZtOzE5OZ0hEK4GXigieUUQBzAyytM0xZEjR/CFL3wB5XJZLv7QF+/7PtbX1zE9PZ2p1c4D+l7GOEzl4m21WqhWq+p7So+Q12ej4inSzH24jaGnpfT7fVXjHkURrr/+ehw4cABXXnkFfN9XuVXdbldF0kkVi6JIGewnTpzAwsICDh8+jMXFRVlbYshM3omJCRiGoTJ4B4MByuWysqO4RCKvnOdJV/D05CR27dqF7dslQVi2QBJG8HvS8zUYSE/VIIoQGj0lgZrNASzHg0hipGmCJKEUmgRpKpCmAkEwGAYbTVgWlQ+HaDTqAAwkMdDt9pVHjlRaPb3nfMMrgjiiKILneQpJbr75ZnS7XVSrVcnpHakmBEGAXrePbdvsTEoIV62AbMEQAKTGKOWj3W5jz549Q9ewhSAIYDnUumdkWwghgCRBCmxSo6B91+/3MTMzg1arhVargTe96Ufxi794APv27cPa2hpsx1S2SLPZVFWBhiELozzPQ6fTwZEjR/DUU09heXmZdUwcQDiAELK3b7lcHMZHTNRqFTQajaF6FsMwAEsYsC1zWIVYRqVawnVvfKNKeRdCSCk2SGTavhCIokAFV03ThN/vo9frYdeuXag3GqhUS6qUF4aBNEkQJ6P9Q4hR8dy00XwZWFxcVO1WqUYfuPD16y8T4pAcV3fnEQiBYWd0gYWFY/jyl++CbZsIAtlMwRz689vtNsqVUoY7EufPM8DpuwQGLNOC7/sAZDp7ELTgOFBBNiEEYKRZCWEYEKZAHAw9LYLZNzAASCQoeg421lZQLBZRLnp41y8ewGW7d2LQ76I45Nyh30en2cD6yoqSJGRTLJ46iUcffRQHDx4EILsW+gNfxXQS14Yf+rAsB4khkbrd7sCAlGIDv4dKpSI5exSjWqkpKTE5OYmCK5mJJQDTNGAYowIv+b6AbbsYDKRXzvWK8AolRHGK2dlZuI4Nz5NBT8MyEQchnEIRoT+AIUx4riclZ6EmS4XDSL5DMAAAVKoldDotdLttHD78PK655pqhakkdZYiRnV9CeZkQR1bNAbIEQu5bAPjEJz6h+sFS2kbBcbC2tqY6+1EmLIBRzcZZnk2uVSp15ffI83Bxcc/HmpFKxojoXdeF7/fw4z/+45ifn1VSqlAowPd7OHTokKrCK5VKmJiYQKfTwSOPPIKHHnoIvV4PQRBk4halUgnVahVdn8p2C5iYmIBnOxBiFo5tqSi54zhIE8kopicmMT09jUqlgkKhkOluwh0XfN6I2ZBNYRjUENtGGARoB7LQTMBAp98ftlwtwzGl9O31ejIFnsWoKLuA2qvWG+sQQmBhYQGXX375BS/PfVkQh04YOoEQYXz729/GV77yFRW/oIYKCVI0m01EYZzpSEjG+FbEwb0rshO7rbYhyPudrkJJIhGZsau/kW0valkW3v72t2NyclIRoxACp06dQqfTATDy86+uruLQoUP47ne/q5qr0YYzZFj7vi+7mdhZtYUqC11H3osSHYWRwvM8TE9MqjkkVVU3onVGQBnBXEUlgpman8fGxpryMtG9e70ejh07BtN20e12VTqM68qKxQQpCoUCbNtGsVhUttKZM2ewfft2lTGgJ1OeL3hZEAeBrk5x7txut/HpT39aRbw9z1PZou1WSyEXlxSUPj4u0qpzfiI28lhRYIoITI8iK4Mx5zsASDFS39rtNt7whtdj7969AKC8V+vr6zh16hQmJiYygb0nn3wSjz/+uGoKEUWRau1DKfRxHMP3fUzOSAcESVMqmzVNofK7bNtGuVRArVbDZLWmXKy8wnCcu5ufo/fjEfbDhw9jcrKGOI7RbDbxvX9/CidOnMCRI8fg+z5uePt/QLVaRbVaHbZGku+SGsg04yMvYTAIcPr0aezdu/c1m+NcvBEPPvggHn30UdW/lVSCdruN1dVVxKwDB6lFxBn5lme6NNBVCEI6ipvoLto8FUof/UitGv3fbrfxEz/xE8pNS/lGi4uL6lnU/LnZbOL48eNYWVlBqVRCvV5X75UkiWrxU6lUMDMzA4Olf+hua3LhOo6DiYkJ1Go1FFxPMQCKH/Fx56lY/DypV5KwgLm5ObTbTfz3+x/A+vo6nn76afR6PaysrOENb3gDZmZmcP311+Oyy/Zm1mUQSkN/aWkJzWZTdVc0hY2lpSXMzs6iVqudFTdeLLwsiGMrIHXnc5/7HNI0RRAEKJfLqv4hTaVKBQCGyLadoZQNIJ8AOQKQSkD5S7xOg8ahE8mIODZ7qvjfYRjCdV1ce+21Kg6Rpqna3GZ6ehLtdlt1RD948CBOnjyp8smIeAkhSf0Aht0YhwYrxRL6/b5Ue4RUvWZnZ1GpVFAul1UvXno/0vvHqZD6pxAi0xR7MAixurKEhx/+Nr54513Yt28fLr/8cliWhccf/y7a7Tbm5+exf/9+bN++Q+WFJUkCCEP1Dzt69KjqglIsSPfzxsaGKj+4EPCyJg5CorvvvhuPP/64UnmohT5NZpoAwjSQJCPXrfSlj/Rp/b66BCBpwes5iPjoPEegjBTZwt6ncezevVs1lCYj9MyZM8q2IXVoY2MDx48fR7PZRKkkN8XhxU7UXI64dxiGKJRLyugnmyUMQ5iudM/Ozs5iampKZhgbsjKcOxx0G2+cW5pLkX6/j3q9LpMnh0mE1113HUqlkuroctVVV2F9fR3bt2/HxMSEmgtKF7EdB7blqr5evV4Py8vLysZaXV3F5OQkJiYmXijqnBO8LOo59LgD/y5NZfcLyiNyHAeNRgMTExMQQuDkydPAsCEb0lHNNCH02VKfiXtyw48Med6IgHOvPGQZN3Z6r927d6viJ0KSlZUVVKtVdDodtfXawsIC4jhWBioZ7ZRtS51JaByEVLQFAu9PZRiGqmKk+VPJiqykV0/3yFOreDpHEARoNBo4efIknnvuOWxsbGB+fh4HDhxQNSpBEGDPnj1I01GbU2JWlC08GAzU5qG1Wg3z8/Oqh5fjOGi32xgMBi8Sq84OIm+x8hZvK7jQv+fqDxmZtCh/+7d/KwNl2qYvSZLgzJkzo99FCczh/uK9Ya4PLQBPHweQQXhu8Luuq1ylpGqRV4YTCD2fUtPpvryfFK+fCMMQV155JZIkUUhPhEvIT887duwYBoOBagBHY6e8KiIwnstE3imSJJS/5Lou5ubmMqqJriLR/NMzCLGJ0AipaV4AoFKpYHV1Fe12G3v37kWv18O+ffuwbds2zM/PY3FxEV/72tcQBBFmZ+fx3HPPw3FcGVC1LDSbTTWffO2FENi9ezcAqHlZXV3NqLa6BOeNMl7oYfEJebFwoX/PO6JT4IvclF/60pcyXQLJ5mg2m8Ptw7JtwfKexdUH3fsi/08zBMOr/HQmoHPVNE2BdHOyIV/ANE0xMTGR8e8PBoOMgdvr9bC0tKRSQohBBEGQ2XCTCpe4ehWlMpJMapVtWiqfisYsf2MqQqBeXMQAOOj5aJ7nYWNjAzt27EC328Xhw4dxyy234Cd/8iexZ88ezM1OY3V1FZZt44knnsDp06dhGAaOHz+ON7/5zbj88suVlCJCo7WUteiGclHHcYy5uTm1gSnlhsn5Ha2Lvo5bwTgG/rJQqwDJdclbQaWln/rUp7CwsJAhDqo9WF1dRb8/yEzMVoi9lZQjnV/PiSLOybNKc7N6Na5Mv+Uu4G3btinVhmIUNE6q2FtbW0O9Xpd21FA68WYLvIyVSy4e3+B7FZI6xsdCbl6yxUhi5LUrooO2U+t2u5iZmcGDDz6IxcVF1QlxojaFmek5HD9+Aisra/B9HxsbTeV2rtfrWFxcRBQlCAJJsNI5IIu1SMpRYubOnTvR7XaVFsFbmPLYy7loLVvBy8IgJw8Olbk6joNjx47h85//vOqKTpNRLBaVlwcYcgVtjvKIgU8qfXJxzav4uOqmxwDynqHs8nTUxypJEiRprAzlubk5hWjEmUcdUUaGOyE2j1moug3WZ4qi5YZhwAhNpfJ4ngfXGjoh0kTNZ5qmysvlWraqf6F3JvURGNWf8xZBhLiNRgPr6+uoVqs4c+YMTpw4gb17LlNRcFIdt2+3sLGxgYMHD+KtN/BnuhQAACAASURBVPwviKIIjUYDR48eRbVaxezc3DBYmCJNxTC5caCeRThBdhWX3DoBv1iwOEKMgxcrls7X77l+Tov5N3/zN6q+gTcRKJVKOHToEKJI1iDEcariCRnEZMlteYmHo+o1WftMUoN3CSHDle6tSxQlGczN0f04jjPEUSwWlSQgRBtx70hJINq9lqQBMQxJtKP6COL4Qgg0G3VVLVgsFlF0ZQJhuyWbXG/btk0a5q69Sd0iO47+5vt/cCnMc8yWlpbQ6/UwNzeHjY0NFci87777sH37dpRKFdTrp7BtWw1nzpxR8RzfD2QfYLcIpGLYA9hXbX6Wlpbk85JRh5hzqQR8sRLkZSE5OAcrl8t47LHHcPfdd2N+fh71el0tDOnga2trADB0iY467nFDmXPDcVyfIIriDOITcG+XLs71tJQ8zsa5m1QNTTVuvskNvRulaJBDgTg4SRrDGKXDk45OyZW8RWhsyc+B38fp06fxxBNP4LLLLsO+vXtQLpdhJGlG5SN7hj+PvxONudfrYfv27cpbdcMNN8C2bRw+fBj33XcflpaWEUURms226mz/S7/0S+pZ09PT2L17N2am5xAMHSXFYlHmmW00sbq6KucqiJW00wuf+DzT/y9WerwsDPI4jjJc86//+q+RpikajQYKhYKaANuWkdMwlOnXHJGBLHFw5NURVwdqvsZ1d0JCTgxcMtH9uGFIn3rR02AwQKvVwvT0pPK68a0NqLaiWCyiUqmo3r70TLmnSLZDI72jaZpq70NCNFLNwkB2bHzuuedkl5NOS0adyxV1LamO45wO9Mx+v4+JiQmsra3hl3/5l/HNb34Tu3fvRrPZxKOPPoq9e/fi+08fVAReq9XwH97xU/i5n/15XP0jrx8GQqWzJYmldzBBqlzzKysrap2pYwoRBk9xeTHEMU6yvCwkB71gGIZ49NFH8dRTT8mEwqHPnjiabdtYWVmBYci2L1EkuWnK7pPH2fMmhyMADwDqnFO3PfgzlGEuUhhIgVQMVSz5HdJRTbs0ZqeUCkmICUBFviuVCiYnJ9Hv91Wkm4iHCI3UDJKMtm3DtWzAFLCFiSROEBlRhts6joOlpSWcOXUapXIBl+3Zh8uv2IvZqVnABBzTAkyhPk2YSIVsWZQKA8EgQKEsO5oYlom3v/3tuOEdb8cXPn8r4jjGer2BXzhwI547dBhBFGH79p24/sf+J/z8z/wsdu7ZraQaZR0XvBKSJMFGo46FhWOIkxBLS0vKHd3vDVScplQqbXKy6DluLxYuKeKgBeUGcJIkMC0LPb+PglfA//vxv0CUxIiSkUqTGoDtOji2cBy9vg/TkpVmMADTNhEFw0ZrMGEaFixhwzQs0N53AGCaAkLIZ4ZxDKTSlWcJgSgBym4BwnIgQLpwgNQwESVAaphIhk1okjRBnMpoPJIEQgAijiG7dJhIkhQpZA1KFMUIghCyWYEkiNF2Bo4yQjvDKr5atQphGLAtCwaAge+jVC4rQ544KSBrSaQzQh5JGKEfShUzMkf7daQp0G53ZLO7NEKz1cGJU6ewsrYKAQGv6OGy3XsgLBOOZcN2HXiOC8dz4TkuLMfG/OwcGs02HMtGFESoVmxM1KqY27YDO3bswM/+/AH0+338xnt+Cw98/X/g+uvehAM3/hJ279qFSrUqCduUsZfFxUU4roue38XRo4el99G1UCoVhxkPXcCQ37meDWHKuZS1MbKsV7JDWtezazXjJMslQRw8aEVAjQLou4JXwN998u9w/PhxpGmqahBI5aGMVIAkjcSLKIo3PY+rCHrgDshOll5XTee5l4oTNVd3pOFqIFb9tFLtU963UCjg6NGj2LVrF4QQqv+uahwtZF5UuVzG7t27VbCPq4E0pkx8BVk1LmGSkq4jA5xUMSK0fl/uVGU0DFUtyHvmcrd1s9nE5KRMc5+fn8eNN96IcrmM/sDHFfv3441vfCP6vQFKpRJ27b4Me/fuxczMDObm5+H7vopL9ft9Vb3ZarXQaDQwOzeNJIkzUp5sMNd1MTs7+4Lx7VzhkohzcJcgTQLp3KRb1ht1fOlLX1JRVMo8pQWj8lFAepcUMjOpqnurgGzbTj1eIe+V5P5Oj2PoOm5ezEN3HdM1YRjisccey6hGnuehVqvJpgqWhUEQoFKtYu++fZiYnITtOCiVy7AdB8I0IUwThhCZv+n/OEnUEcUxojjGIAjQ9310ez31fxCGCMJQfd/pdlFvNNBoNNVRrzewurqGpaVlnDp1GgsLJxAEIY4cOYrnnz+Er3zlPqQpMDk5hSuv3I/nnnsOpmnKriQixU++9SdgOyaqtTJa7caw5LaH2kQFli3Q97vYqK+hXClCmHJzzrw1oWKuqakpXKh9PC4J4uBAvnCuP1umhX/6p39CvV5X23ZRNJUauLXbbYTDABKGrSfFGJGq+8V1Y46ngnC3rJ5mQpJiXL9a7hbVbR2dex85cgSrq6uZoN7s7Kx6V0Aa1PPz88P9CisqpZw/n3N23YNGwN+HAny0SWe/31eMhhgDnaODBwXJA1atVpEkCTzPwy233ALTNPHmN78ZZ86cUV4zcp5s374daZqiVqvJZg1DZhfHcv9Dz/Owvr6uEgzJjqBYjBBi9NsLuMXBJUEcfPGotSUwiiIvLi3i3nvvhe/7Kl2gVqspLwXt4ApgRBDp5qZfecGhsxnjAJRql+exyfteJw5upOd5s6gDyCOPPKLc0kT4u3fvhhAWHMcDIFAuV3H11a/HlVdehWKxDCEs2LYL23ZhWQ5oj3EhpE0FCPU/HbIz4+gYDEIMBiHiOEUUJeh0euh2+5D7kI8qCrvdrjp6vZ4ilHa7jXa7rebqO9/5Dh5//HFcddVVmJiYwDPP/ABBMECpVES5XEKh4KHX62JlZRm9XhdRFCKKQliWiU6njU6njfX1NdRqVczNzQ6zqRP0en10OnIL67m5OVkxmebtGXh+doa6JIiDOCV5IABZCUfI/6lPfQrNZlOJU+JChiGT3RqNhjRkjSxBJEkCXkpBXJsjNo94E+jIrJd/8ggxqUVcqmSJK8vF+TtzQrIsCw8//LCyQVzXVfsClstlmKapXJh79uzBNddcg/n5eRVJ55JjqyMvvYXmhfKxaF4ox0rfmIdH40kCUP1MvV7HzMwM7r33XvT7fbzjHe/AwYMHceLECfR6PUxNTsFxHLUzLVUwdjodnD59Gk8//bQq8JqensZgMEAQBIo4SbrMzs6iWqle0P0/zI9+9KMfvWB3fwFA/n6qtCOD9vvf/z4+9l/+TC08uTXJhbu6uop6vS6JIwUwNMSB0SdHTGqurNrEpNkkNSGE9HUwG8Oy7EzuFu/cx5GL3yNjtBqQAwMlx4mhZ8WCECYGgwCO46LVamPbtu3Yt+9yGIaA7w/gOC4sy1SBP0LycrmsUi54kqL+bO7mJdClH4+2U9CQ1NogCCBMMUx3STNEkQyZRzCsqTdNE5VKBd1uF+12G6Zp4i1veQueevJJfPvb30an08Fzzz2n3NHlclll1R4+fBgnTpxQtfAknZIkge8PVOrI1NQU9uzZg+3bt8O2XGS4H4T2/0uDS8JbRdm2ZGPQonY6Hdx6661KQtD+1xMTE+j3+6jValhfX5f+/qF0TeLxfm2OQEQQxAkVYaQpUvLuMElDv+dShksW3Vjnz8CwBywPSurX0LPvuOMOXHfddTBNualOGIYqC9UwDFUmOzk5iSuuuAKrq6vqHCcATvC8GCpv/CT9qCaeEjnJSUGeQ26L8f+pQzxtB+26LpaXl3Hrrbei3W7jumvfiPvuuw+PPvooLrvsMvT7fdxwww0AgI2NDSwuLqJaraJSqaBSqWBjY0N5z6QtItXTUqmEnTt3YufOnSh4Mgn1QjZYuCQkBw980T4aAPDII4/gk5/8JKI4UmWXRDie52F5eVnttrolwxjSC7l/VZ2DbaktjClqXCgUEA7thHK5jFarhXJZ7puhG+rAZklB5wjphBCIo9HWCHm2CiEwZd86joP9+/crogviEF6xgBTAIAgQJwkGQQDHdXHl/v3S0xSFaLXbSNIUwjIRJbI41nYdmJYFx3NhmAJRHCNOEhimQJwm6A986d0yBVJD7tkOw0AKIE4SmLaFNE6RDp0cco8NA2mKIdLGMqYEA0EQAjCGuWgm+n0fTz31JH7h538eBw4cwPr6Oo4fP456va5q/J9++mlUKhWVSNlutxUxkzpFjS32XnY5rrjiStRqEwBGPXalffXiJca4QOElQRwcSSjRbTAY4C//8i+xsLCg3pvn+fi+j2aziU6nc85RUFLLlG7OGg8QV7UsC/EQuS3LGvZXKqlxjuIXm410XZdXBzZniHLuTWnkRPhHjhzBddddh927d2NtbQ2FQgmFoqda2lCqCF3/ute9TiYSttvK1U21GzRX5MggtYXehXo/cUmzSTXE6F3IbtELvPhvs4fAoUPP46qr9uPXf/3X8ba3vQ21Wg3PPPMMTpw4gWq1qtRk7jnj452ZmcWePXtw2Z69aoMfHks6n6oUh0umyzpXbQDggQcewO/93u/JBDxrlBZNWajr6+tYX19XeikwtDHy3mb4HUWdyeawXSezNQFdEw45EpViTk5Ob0rEA6C8ShTE5DETDkaSb+yr84aBVquF/fv3o9vtwvd9XHvttfjQhz4Eyxbo+b4aJxmolNxHJaSUX3Xq1Ck8+eSTePbZZ1VFHe3XQaofRfg5gulqHx+vaWQZgE4UvL1RXnyHOir+zM/8DFzXRa/XQ7lcxp49e1TfYSJqaird6XRUDta+vVdgbm4u00tY4oOzabwvBsaRwCVDHKQykY77wQ9+EI888ogkCM/OcL1Wq4VTp06pljQjLoyxxGEYhtqoRVXEuU7GE0Neo5jp4kEQoFqdyHXhcj+/jjAZQz/JEgL/BKB8+e12G1NTU9jY2EChUMCNN96Id77znRhEA2WTcWPZ9320Wq3MfoS2bat8o3q9nimQOnHiBJ5//nm0Wq1MRSVJI84AyNGQJHIjZf5OOhMgWyXPKSGE3JwzSSNYpoNSuYAf+9H/GW+89kcw8EOE0QBRmKDX7wCpQG2igkq5hnKliJ07dmPXrl2oVCpjav1FJq/txcI4ErgkDHLOSU3TxFe+8hU8/vjjqks6d6MS8fi+jyQeBfrGkriBTa1xCLjnBWA7LA0Xn1JTdIQhnRgY1TzkqUwjI39zCyBOZKurq9i+fbtC+j179mBjYwP33HMPnnjiCfyn3/hP2LFjB2ZmZpRXj3ZxqlQqao8/slHoPvPz89J9OjWFkydP4pFHHkGr1QIA5Z6m9HhyTPCxKeIwNwcSdS8dD3DydzdhoFSQe48IYeHH3/wWJAkQDCLMzW3D0tIZLK8voVotY9euPbjiin3YsWMXyuUiHEcWOwEjRiRrXEZ5d7qL/HzCJSE5uNek1+vhve99ryp/FULAdke7KFFzgdXVVcX1aCPGTVKDipyGNdxccliWBdO2MpKD3MiC1ayXSiW4bkERB+/QoWfp8ncBRipIquV36VNOqqJhGOh2u5ibm0O9Xke1WpX7bpjAtddei7e+9a14/etfr1rREJFQdJqKnsh+abfbisiWl5extramvDtCCBXXoApA3ZumGJaVJQT9Xblapt/DMAyYiUClUoHv+/j4xz+Oq666CkmSoNPpoFqtZu7JCZRiX8Wip1Q3aWMINV/nY+PMS1pycC764IMP4tlnn1UJaDTxpmmqaCxtQENqxgt9Th63oQmSasRocXQPFc/J4gfdV4+Cc/VqHFBNuG3b2LdvH1ZXVzE3N4dut4uJiQnUW3V876kncfjoEezatQv79+/H/v37sXeYwNft94a2mYluv4dTR4/g2WefxVNPPYWjR49iampKbYgzMSVrRrrdrlSHQgNBGGzyoGXWJRJI02zcyDAMlfGbJsZQpRUwwG0u+b1lOVhdXQcAhKFE/iCIFGEMBiFTxUwQr6E1TtMkU/FHjOmlqlNng0uCOICRkfXlL38ZpmlieXUFO7fvQLPdgm2YypXb7/eV313WEp+dOFIZfxv9DQBiayIBkJEOJNbpO65X88AgqRsZtURDqjwiNQy5FfKZM2dUi8skSdDp91Cr1TAI5eaZp06dwunTp/HAAw9kiqDIA9Vut1U2QbFYxNzcHKIoUnlNtAMUAOW1G5dSo4z1eHN8RsWEciSO/l5hFGFichJhEODYsWO45pqr4XnO8B0B1x2WHqSyDidJwCScAcAEMGoDZJq2IhbeXON8w0UhjjDM37A9BRDFkXKbHjp0CF/7H/djcnISTslFq9OE6ViwnQIGQYBGq4P2MOdHEkucVaV06TiMmAOyhiJBioAMWmHI/cPTFMkwriEsK2Nv8AATd2NyIHWDl95ypEnTFCAuN4wfpEPPgVBOAIkofhigVK0gRoo4DGB7MpWj25VdOoQhkEQpTFPAc6Sql8Yp6uuNTDS86JXUmMNBNGQIco9v3aCWVZMmDGMkAYmo5RHDUvuKUMq43CeQq5WSwLTpJyKzgK7fhWvbaHdbwDCeIgwBQ4yWjX4vBEC1NSOQ46dSYoLzQRjjJPtFIQ5VlMTiGTQgnlX593//97LDX7+HOI5RrVYxMTGBbkfuFES7++gR3XMBwzRhUMeMnDwjjhAUXKJ8Jd3QpLFzjknvNc5Vmwd5aRyZyPoQeFkuj9oT4eoIwmMwyTDgx5+lR8jHHfw9uVTUjfBxMZzRd0OjOk3Rv4AdCs83XFS1Km8iCZZXlvH1r39dek78vvK+dDodVVPcbrclEkE2/EriGMI0kcSbC5rGAefqRAikktBBxEHR9CCIcomDIyz3QuUhGbdJaBx8Xriqpuv/lDEwLsuXWvNwVytdH8cxXMvbch7y7KQME8sZM79O/y5n1tVfrVYLKS7cPn7nEy4acXAEAIauuWEnPlOYuPvuu5U3yvM8FAoF9HpSgsRRmmlzCeAFEQQHXe2h/2lc3PPCdy8FslFt/i6cYDi3zZOU/D70N3loaDz0jjQOatGjj5PPJZdi9Hdeblje+9Df/P24NOPIzQmcP3/cfeVYR8+v1+ty/gwhieQCRbfPB1yUlHUeEwBGk2eaJkxhou/3ceeddypOLISs0aB9NsjAJPUhiiKloOZFdXUQ5qj5WV7vJT4+7hWhuEFeUwUAGT2fc32uIo1NKdlC0ugH95Dx1HROiHSOf08xDAKdW+sEm6cS5p3TPXN5v827V5qmWFtby5WelyJcNMlByMX1eZqau+++GydPngQgO/J1/b5qAECdtglx+X7ZKbBF9G8EZ1t0Gt/IAxZm1BXLGuUi6YtPf497Ln/3PLWKq2h5KqcQo0rAkeE7YjLj4g9cUvOxjlNn+D31a8b9np7DbRx+vzxCIcmhrr90BcfFd+WSZACkD6nb7eL222/P9CGyLAulktxTYnl5WRmCegftc34mM7bHGZ40Jm5HkDEOjLxVBLpxyr+n99RVkK3UsDxDXEcweoc8l6tuMwCjuIwFjVCZLWGkkAeNhZ45/B5aXlietDnr/LNrWq3Wa5KDA58EHryhzuGnTp1SyE/1yEEQoNPpKDXC930VyTUM44XZHEa2em9cZRyBik+IbDMzPS2dxsx3UM1Tl8YRBv3P5ynPaaFLAE7QhmGo9A8iDiJiHptR85Zs7rGlj52f42PM2iHZMeuQlSKj7y7kfhrnGy6KzUGLRcXxBI7j4B/+4R/UQliWpSrJ6DetViuzwLrxiSG3G/27eaH1dpYAVH4UGeDUg7fb7arAGkkLwzBU4Q1taUz3paRBIhTuNaL0DF3CUOo87yjIz3E1hRCaSzBuxKv2PcPfpWmq3o3bRHleMF3t0d3EvFkDXZdoUphAJ04epCOCoPPUrlU35C81uCjEQTozLSQV4zcaDXzrW99CkiTDPatlpV+xWESv11OtdjhxnE2U553LMxg5AdGikS3Dd4nln7TovMOIrmfnSSD9nG6wc8TMO7gEoxR0z/MUcfFESCIIzhA4MnPmwe0sTgw0Z3qulD6feR453cbJuyet/6Xuzj0n4hi3aOeqc3JuDUDt3Xfbbbeh0WgotyltAEl1FDSJxJHjOB5vgJ+DLrwVcZDhaxiyFJUQjzg3vQdvfzPuntwG0FvzZIe8OfYxbn45cVAdPc0pl1h03zwEznvGVs8dd+j2Gz1Tj69wwuNzQpLjfBHHS8XPcXBRbI4843V5eRm33347qtVqpuMhqTa0hx0V/EdRJJNugAyBGIYha741ROMghGxwptsB8lYje4LsB8psVb810k3cliMejYMjCD/P4ylqzC9g4fQYBmWk5sUx6DuSNlR+S8BtBHoXvptS3udWjhDdHtHvL1W9bCr8ysqKOn8pwzkRx0ul8DRN1XbCgEy1/vrXv45Op6MIgjiN67o4fvKEIhjKcUqSZGu3baoSqbJjp/wfy8pdDMqf0g1gUp+AUWCQ3oV05TyJob83ISpdx3/DP3XVhN+X7kGIzF3NPHWEODb/rWmasMWIc8u5HI4BKYQwZGIkERn7lPfJbn2W50zghKMTPb+G3mF5eXnTvV4KXCj17KJIjrxo8xe/+EVV9koLR4u+sbGhvqfvMoTBFm8rEEKoAKDQkga5ocnjB5ROQsQha0pGPZvybIxxyMDvn4dU/Pf6AvP7ckObymQBZHZf4ioiJwx6J56ewsdHjgP6Lk/dyns3Po/cu8dBvxc9b2lpafSOl3CU/KIQB00apRc/9thjOHLkCIRlKuObNqCnlpg0qVEUAem5id88VYlHsPl13BgmlYpqRshTRW0qKRM0TzoA+Tlj9AyuxtHfnBPn2QT0SQeVs3JPGY2Ve92IgEnyqWdGkuB5IwceEzmbNMirV6HzeblZulOCM5Y0TWWvqvTCVvGdDzgn4jibbny2lzQM2UCAOkfcfPPNsterY6PRaCj1oNfrYWVlBZZjq0ZlSZLAMmQVcypvdi5DztgACaAKmOgcJw5aPApEkjo14rqjoifOeemacZyfgHdV5ByUCIXGwe+rXz8YDNDpdGQi4bCSkVQsXt3H70/PNpJUdYjk75CHzHnvIES2OyIfnz4fHGj9hMgSVbvd3pRr91LgpeLnOLg4NgeASrWKOInxvX//Hg7+4GnVMIDsDLkdlmxOloQRHFNybSQJwjhgN9NSJVghTopEmR4pUqSGrDswhECSRjANA67nwbJMJGkEIzEyblna3dQwTFiWg8EgVIU1OicHoIKWeTYHjweQoU/3IaQmzxOlqfDdmIhQ6dqNjQ0YhoFt27YpJKX54/ECcvValqVsOsMwsLCwgHKtKrddHs6RYLZWnndHEbEm3ThO6A6BfNvERBD4mKzWIITA0uIKjhw+hiuvvBLCHClVaTrifUEQQcCAZZtnTTF5WdscURypuo3PfvazqFQqCIIAJ0+exI4dOwBA9aAiTkSqlXzxMblLWzzTENl8KfrMi3ITEjiOg1KppHo5pekoXZwvgK5y8D089IpAXaWi33CJpUex6Xk0FxQ0FELWhVM1H92Xb65J9h2l4VvMEcHzoPLUJ37PvHcdB+OcDHQuTVO1uSkxl8ceewyve91+DAYh7CHTAADLohZJFpACURjDci5MR8OzwUXxpVmmhRQpDh06hIcfflghJSFhHMdYW1tDq9XKqAPnCrQWtI6GQCYewaPjPOpLBz3LdV3VAp8WVS92Is7PiZe7UIHN+53n2UIcYccF2+g62piHsoTTVG4pPTExgbm5ORWpl7UngepVS/fQpYOudm0lFfR8Lf0a/VyeFAWG/cCSGIMohGmaeOihh9T4TNOAZQlYlqxVV1NhYFTW/EOAi+ZoTtMUd955Z2bCp6amlDrVarWUscl7u27V+5ZAl6o6IeQtHr8mDENVj02SgKsZusGsJ0HqHch1TsoJgfR0/bvx72aoWA9lEZAaRtJudnYWMzMzqFQqSnJRnb1uF+i2Ul4qCF8znXDO5r3KA5IWygZMEiwsLODJJ7+vnB1EEIZBgU15T70s9mLCRSGOOImxvLyM+++/H0IItfFht9uFYRhYW1vLRKWzKtVmSJFVqdTaGICwjE3t+DcZ04ncyxoYIYlURTyEYaxygQgpaVE5V+SuUXoWgIyaRPfPew9+L24o5yEtec8cx0GtVlOJmfxZtEc7Gec07jyJJOdsa8TP+z8PuPqnSyj6m9aUCH0wGEAIgXvvvRcAEIRyZykaquPQpp+pbmJeVLg4iYfCxF133aV2C6W9NwxD9mkidYoWVc9pOhukqSzKN62RgUsHNY/mDaTJS0T3p8pDbhhzbxYnMJ5fxfV33QOlR6HzDN88ohu90+g6bpgXi0W1/YBt2wiCABsbG9jY2FDp4J7nKYNdHyPdOy+6rp/LG0se6F48/XoiXk4oruvi4YcfxlNPHYRtm/A82lecYjvUxeWcUOCCwEUhjo36Bu6++261CWS/31dItrS0lHGjco6nq1S6xFBgAIYplNpB/nzTsWE6o8bRwrBgYIQshOzlchWmaSsVZFQqC9AU6Qa1nkekIzu/Vkd+3T5Rr8EIjCMiIfpguHF9GIZoNBro9/tYWFjIOBSojb8uffSx6akv9I563OVcIC+5cJwKF4YhhG0hiOWmmF/+8pdRrzflXJgG+r4/Wu8fptjARSKOxx9/XHUo7Ha7qlt4vV5Hq9VSHJ2S6CRyDgdoGlt6pQjIo8MNcZ7+rQOpQ7ZtKwOcns3VOyBrZ+h5TkTQ3OvFCUFXqfKM9zyE5OoWuYLpekrSnJiYgGEYchvmWk19FgoF1b6fGsbxe+rSi49N5/pnc5NyotPvweea53p5nqf2ZPnmN7+Jb3zjG+h25bZ1ejrMDxPOG3HQi/CmYdSu8uabb1bGLhEGqQOUAkE6dJoAAz9QIiKJUwghPVAcLEvAtAUgAMeVqpOwLRiWCWFLqaE8UakAUqEQXggx7DNbQ6VSY3aD7MNqmvZwj71RbtU4Txd32RKnJm9WXqp7Xso7t4l09cow3N7bUgAAIABJREFUZByoXq8rpAKgvFilUklJFto8s9/vY//+/QCki5xvy0aqI7X9p7XjcRa6P7eruCOF2zIkZUkt5gfVsximgLBMQBhwPFfl2QnbglPw8M+fuQXPHT6EIIhU+XTfD+B6DuR27kmmSCoMwxeser8YOC9xDsr8JJ2YvnNdF3feeSc2NjaUd2UwGMCyLKyurqLVailkVZxXcF0XAHftQXozbFu6LoVlKuSyLEkYfBHlPVKESazyuDzPUzZGoVCCbdvwh6Jc17/1uAV9l6cK0d861+UpJFyv58/Li77r19K+gISwnucpAmw2m4opDQYDpaZyKcUDhmSvcEnCn5XnkaJr+XzQ+9Ea0nl+Dz4W5domxscI7M/+7M/wsf/nT7F//xXodvsolQqqdahjmyo3j1zaW0XmzxecF+IgwiADkbJs0zTF7bffrgxxIYTiAMvLy6rslYw1IgZocT8iCOUOtEyY3Ni0zExukWEYWWMUpooFyEbSBRWtHgwGygikh/Kot56oNxpTVofP89ToyMd/y2FczQWBP9yfg3Z98jwP27ZtQ6FQQLFYRL/fVwyGuDY5IJIkUTYeR1JuW+URL38nThR6AiOf8zwXdZqmqj4941ZnTIUcNP/b//G/4zd+4zfwq7/8K+j1fHieByFGrn2S+DTGC7nlGYDz12W90+mgXC4rXRIA7rrrLvzJn/wJ3IKT0evX19fxzDPPKO4XRRFyd8w1JGF4jjSy1aaVGPnNAcApeJlFIeOUOIznSmk2skscpf9KrpeNIlNQkNQhaoOf53YFkNkFV1c/dJ2ePjnicWLk13EkpF2bSHroiYP8e/qfDGBiVPPz84rTU2EZneOByDwVUh8PJyaKE/HOjPx8nGbnQ83hcMeoSqWiGvbJHyQ4cOAA3ve+9yGOYxS8bJYCJ4oLSSDnRXKkaar20igUCqA9NO644w41maQn2raNkydPKmIIg0jaE5q0sB0rE/CiXZh4SghNiunYCjHiOEaSprBsG9ZQdZCbP5KnKLtlllQ1ssmASIfcECkSkYBpUbmGZp7Rqqsm41QVAJuKkWgsPFZjWRaazWamJy+Px6RpuqnUlVQoKqnlUo5ze3I86OPKGzOvZSGiGucFU++eZJmCIm4hYEBqEWEYYseOHUo9vOuuu3D//ffjve99L37mP/6UWkcC3/dVVsCFgvMiOQaDAVzXzXS8vvXWW/HJT35SciYjUfpukiR4/PEngFQSQBhku6QL01AeJOoeTjoy6cnKxhguSJSOcoaSRFYFkjvXMAxYYtQEgRuOI8KNM5w3CuPRtRapCtkUa2548p69uvuUG6/A+OQ8fh7IRvkJeTkikhcrSRKVWUDvxtPS9Yxd3gOLDlJv6XvdVspTlzixkFNFt7noXnE63htnGAaMFJifn8exY8dgGAa2zc6pXmUAsPey3fjwhz+MnTt3Ym1tDTMzMwCkNKVM7wsB54U4uGgjD9X73vc+LC0tSeRArGojFhYWsLqyBss2EYWj/CnTki5KOnj9AU+e44sVpSMvC3XzAGS2aWZj+WizygLIbFHinNztm8RsIQ2qYMsaq0II9UydOHjcQyeO0bPPrlbRc7gLlO5HYyYbj+vl/N3582izH4op5UkO7nYlQidCpbUGRu1Iyc7hxLFJrRQGojQB4s35Z0IIuLYsjXYcR+3ZEYYhQn8g92ScqKLT6eDd7343PvCBDwAA6vU6Jicnt0LLlwznRa3i6Qqu6+JrX/saTp8+Cd8PMDU1gSBKldG+uiKL62kCbcdSLt5yuazckVzf5WKbiEOqEvI7FfQjAxO8ORuQxIniqPRszv34YgohZGwlhVT9DACUCo/N9RYc8rxMYGPhkOGczECm35JU4J5A2hSTiIVsO0JiOkfP4+ocEYTnearLCydiGqeuJuYZ63l2l/5e2Tk2ZHETM/S5ZCRCNU0TrVYL/X5fMcdKpYIgCjE9PY077rgDzz33HP7gD/4A8/PzyvN5oVSrc5Ic4y+QSBWEARzbwSCQ+3D86q/+Kk6eXEClUlOir9Pp4OjRo1hf22BPB0olmV1KPnHixhnisGRUPU1T5dLzfV8RBhGTvmAjw3Zz7yb1bmQ0slqKkSdG7jJEXi16HmcGxLX5M4l7EvLxe3JOTMgbBEGm3oPiEoQwZPBzQuLP0nV93aDmxJ/37mdT9Whcm5iIGLX+0e/HCSrBZnWKr9VW3jwB6bbuttpyj/gwxN69e/E7v/M7uPbaNyCOU1imoVRjY+jE8f0AnusgTQDjRdLOeQkCOraDdqcN13Fx77334tSpE5iYmECv1wF12N7Y2MD6uiQMYRoolYuYn5/Dzp07MTExgWq1imKxqIxw3cAjTsL1aL3TYB4XA5CLQPo1nHiIY4fhYJOxyu/DEYa4vR5MyxsfV1mIgMh45sFD/f78N9y24c/heWD0u7y5eSHAy3HpvXm+F3/nvLQUPXOBr22eAc/fB8JAu91GbWpSuXwXFxfx6U9/Gt/97vdgmgYGg3DIdCRhNBoteJ6DTru7KXj8QuC8SA4A6HTljqbvfve7sbh4Go7jwPf9YTPoEE8//TRazTZgALWaJATKMKUgEnfPqgEaBsI4VRyKODhJiyRJMnuJ5+nu0kY3xhKSzhGJOAxj5DGiCL5efadvLJOHsNzA5dKEnp23BOdiCurqj87R+fd59z9XycE9W/rc0TttQmp2L8uxN0kTfSz67/l9TEN2oSENxEjk9fPz8/jt3/5tvOUn3owoon0C5T1brQ6q1TLa7S4qldJZ5zIPzovN0ff7KJfKuO+r9+Hw4cOYn59FszlMJhMCJ0+elIQBYHZ2BuVyWXmjAGS4nT65QggkGO33Tffk1/Pf5S1uHsHwReJ9s5RRP7w/71+l35Puw3X2PDWBI4b+fPo9EZZuFHNC0u/BjeC8Z+UhfN7YzgZ5BLEVMenAHRJ5v+NxIn2eASCMQpRKJdTrdRQKBVRLZaysrODMmTP4x3/8R0zUarjmmqtBt5SbcZaRplA49mLgvKhVpmliEAzw+c9/HpOTk2i326o52sbGBk6dPA0AmJ6ZwuzsLKrVKmq1GsrlMoQQym7Iq4vgXhnytvCdjrioHvuS2nlCRB7w00EnNp1483RmnWi5NMmTKvr1OlPQ7z+O8Lk6mJcjpUMesW4F9B6kRulqls7c9OfkjflsRMy/i6JIBUDTNEWn04HjOCgWi1heXsZ/+fM/x0a9AUC65W3bGu51ONo458XAebM5vvCFL+DkyZOZRS4Wi1haWoLj2ti2fR47duwY7uvtZuwFgnH6ud5lg6tf+uLnLXoe5+QLk6caEaKNUls2u3K5oa0DN8p59Fl/Vy79+D35mHmNOb83fcevH6f3583ROJVOhzzi1Yk7j8j1d9XHSMxvq/sYhoFSqYT19XUV0+h2uygUCiqtZmVlBTfddBN8n7rwywrC5lBbebFwXoij2Wri7rvvVq08S6VSBqF37tyJnTt3olarqbgFeWWI4+ncjDhVFEXDqKmA6xZgGNKFS9mz0hNlDl9FQLp39WN8GrUe4MpL/cgrm+WLpxNJnuqzlU7NiZR7sQj00ttxKqQucejefEx583w2oPvqhV556hb/DR8/J9q8g49Rl7ZRFGFqagorKyvwPA+ViRrWG3WUSiU0m01UKhUcPHgQf/XXfw3Tsoa73cpkzcHg3DdV1eG82BwPPfQQ1tfX0e/3VVq14zg4evQoyuUyKpUKisWienlq208RdT7JRBDU2S+OY0SJGCYMSjcupV6P82/r3HBcEI4ffJE49xZilCyZZzgCUE0YdA7PiU5H1q3Go7tGCXQCpPHxv+k6bpDnzc0LUavGJWLSMU568jXV55vPI58f/jsCMsiJGKhcmMIErVYLtVoNTzzxBP7t3/4Nv/LLv4QgiOA4sgzhxYKRSjjLVaO2jVE89L8LE32/i4JXwK/8r7+Cer2u/PWDQR+NRgNpmqJarcLzRq1u6JNPDiEXHWEYot/vDzNmY7gFKU6Jc1EshBaH++Hz9H+OuJy78jFxFYeALz5HpDw1gz51+4KrEvSuup3C78Hfg67hrX/yJBTZd3pFIn/HrVyo+lbNeYTD50JXKccRIr1XGEeZcXHpyB0R/Dv+LLqPmrckuw6EGyKVJc833XQTXv/6q4dzJ+MgOu6Nk3gcBH/wuCNOYhjDKKdljnoMFbwCvvrfv4pOp6N0c0JCIUQmH4ofed4lznVJciRJopLmdD85R6g8fzkX0XxRdJWDJJhuaOb53/l9dJ99HlKN45Z07TidX+ec5KzQEYV70/JsgHH309/pXCFPagJZB4duZ+m5XXlOAz4n5yrNOFiWpfYaTJIEn/nMZwAAzWZbGeQ6zuSt7SY8PZeHCyEQJzHEMKJimRaCMECcxLjtttvQ7XYVEvKgHSUO5j5YM75owGQE06TSfuQ8Q1V/wXGBJFqIrRCHc6hxtkGeLZKn0+scfxwjyNP5daTIk0w6cuUR4laGcR6cC+Gc7V76++jSSXcYUFUilxp5cziOUFIDmX5WSZLI6HkSo+v3cfDgQfzbv30JtVoFW9HZ2YjwnIjDgKEIJE6k61MIgYceegjPPPOMcqkS4lLJZqFQ2IQceRIEgKo/oCYCjuMMO4I4mQxYHcH4S+r31BFQR1b6Lm+DFV3N0xeUI2meKjZONdlqoejQkVytQ44U2ooDbrmmW1x3LkSVx4zG3S9PQvJ5zFvTFyLRwjBUCYsUFL7jjjvQ6/lbEof+HjoIPqixx9De8H0fpjCRQqoit912m4pRcMQ1zVGDNArc8RfWkZOrU/1+X6lTrusyfXvklUpTA0kCkDeKzuUdgMiobHlISC5FnsKRRxA6h8xz0eoc9GzqExHkVuoYqZW8uwrPQduKEPXnbiWd8pA7D0nHqZF5uJMkiXKsbPWcce++FXAJ0uv1VEqR7/sYDAb4l3/5FwgxPt4ybszKvtry6QzCKESpWEIYhTBg4Fvf+haefvrpYSlj/v4TxHXHTSL9Hcex6pZB6d9kuPLtCPSJ5JO55STmiHs9bqAjNCFlXvReP3R1is/BOEQaN076LX9enrqWJ1H0uc07x+FckVAff576o0tb/RgnEfT30+f9XICXDSRJouywb3zjG9jYaOSuD3/+ODgng9zAaBNJcmt+8YtfVAVO/ME8WksiMw8p9cGSd4pqvXl0fNyLkHFMMO45+nkuEbhOnMdFabG2CnDR/fK431Y2B5c845Ca5pJLNf15eWPjz88D/q7jzuvjzSOQvLjQud6LzuWpkzyOkhhAsgX9Goah3PxhGKJQLqHRbgEA7rzzzv+/vTeNtey460V/VWutPc9nn7H7nNODu92220m349huxx1DbMP1CziDM3GFLuGGmyCLyxVIjyeQkEAIgQChd/Ph6SIh8l4Q7wNKAgkvAWdw4jhxYux2utvpdne7pzP0mac9r73X9D7U+teuVWft08d2IE7okrb2tIZaVf953Mbh9f0YBPe75hyZdAatdgu5bA5nzp7Bq6++KkOIVSBTk2AAhCmqO7NfzkU2GlUsSSRSITD4MMNQkbgHUzd/EFWjc+iYOKpGQwVCKq+phovHbS6JgzpyqNzmZkq5OghI1GMHhZKoWX9xm60bH3Y7Bok8cXtH+6d7+tWXKnLHmdX1vVKvtZtB+0ocp1arIZVKwXZ6+NrXvrYj174p57j58OG4XWQyKQA+Pve5v4dp8oFcAOAQRQtMABwsACzDlIBHFijPC2AYFhqtDrqOB8NKwgdH2+6Bmwkk01l0Ot1wkQGRjecjCDz4vgvPc+C6Pfi+K78HgQe1ajfnQAAOL6xemEikkM3mkUplpK+EB4DFDSQtAwmTI2Fy+ZnDF/eABx8euo6NntsFM0RdXh8euMnADMCHB8PiSKYT8AIXXceW9zCZCZOZ4AGHAQMmM2HAADyA+QwGDFjcggEDgRvAd3wwn8HiVgToVYAhQCPuTeZzNT5NVXh1Myt9J+BSuZOK7Ml0CuAi3TWRSiKVSaPr9NDp2khnMyINlkGUSmJA1+mhbXfgI0A6m4Hvi/B/33eRTFqwLAOO0404V33fh+8BCDgCn8Hpeeh1XQQ+g8UsGIEh6huHNcjoON8T+wtmoOd4MMwEkqkMuGHB84F6q4mvfv1r0hdEBEbN3hw0duUhp2Qmz+9XDun1emi325J76Cw9jiLSxqrh4J7noVargXOOVCpq+nV9Dz7inVEq5dYHUV/6j6hK4PvSJ2OaJrLZtKiY0hSmaNPichG73a5onpKw4Iceeb13XrfblaIgOUANw5AxP5ZloduxYcAC2HZdi55T/23bs/DtHFLVoQgB9fPoXde31H0axMlUn0qz2UQ2m4VhGGg0Gkgmk7Je7+bmprQUMcZkXTDXdWHbNtbW1lAs5qUEQV2CBYFMgrG+yK4/2271If25dfH0uW9/F//bf3pcBqzSXhFsDOJQu0IOz/MASxSEfv7552U3UN/3I5XzaDJxih/5LUjkosVqtVpot9sol8uiOp5CHV2/34JMv576rv9OC0wjCAJsbW3B4BylUgmJhIl2uw3btuF5HqrlCra2tmDbNrLZrDRB92yRD29YFpxuD41aXdaOKhQKyKTSSJhh+Z+E0JM8J8xHZxyeI6iwaSW2iSKq6KTL3+q89f/jrFP6cfQbvesvfe3igFKdYyaVht0WabX5bE50jWo0AQBDlQps2xbr5Tiy9UEqlUIuk0U+m8P6+mrEIZxKhJbMniMBlTEOxgAGHwwGuCIaxj2Xvu86MVBh5MyZM1hcXMSePXvkb7tBul0hRzqVlp+ffvppGRGZzWblYux0QzKXGqH82XcYCq5B1UYAoZhTyRXGRHg6tTbTKQKNQVRT/Z5Op8EZhT/bsqJJOp3G/Pw8PM9DJptCtVrF4cOHsX//fuyd2INSRSDtxtaWDJ0+c+YMnnnmGSwtLaFSqaDdbiOfz0dMz6RDiQ5LHoB4i54+9HUMgn4yka5XqHpIHCfVEWGQEqoeHyebU+456VcAZKu6er2OdFpw4GKxiKGhIYyPj6NcLqPX62FzcxOe5+DSpUu4fv06giCQZn7DEEhE1VNoXnG6Yty+6s8ZizgAAnh46aWXUK1WpSmcxMg44ivPDQbdUb05fDiug7W1NXz0ox9FoVBAvV5HMpmUsfV6LI9KIS1DVAg3E1ak53ij0cL8/Dyy+TxKpRJ6PVcWmk4kEgiYUOg9p1/QeSeM1xeTvrue2BDXEU0nLctCsViE74tSmsNDZbztbW/D/fffj+npack5DMYRMKBer6OkNNrJZrMoFAo4f/48vvnNb+Lb3/42JiYm4DgO1tfXRUJO2EOj0+nA4lZkPuoa0e+DCEwQBPBZvLigWgZ3AhDVehfnECWCpR6nz0kNriQApgIIhw4dwvHjx/H2t78dqVQK9XpdFoRIpVLY2FhDpVJBrVbDc889h+effx7r6+vS+er72xv8iDmGFitjMMeIe6fBuSgcZxkMRw7fjt///d+PtLRTRf1YeNoNcvTcLgzDwNNPP40/+ZM/kRRSrXahIodut7YMMxRPTIm1tm1jY2ML6+vrqI6MIJlMwvch9QHTNGVivso54qgdKaCq4qkuoBde1+CQVIs2N5fL4cNPfgDT09MYHx9HEASyMrnJDVld0VNkcR0gNzc38Rd/8ReYm5vDwYMHUa/X0W63USqVBGf14z3bcSKWKmrJrTGiwZP0XLqCPkh0Ujvz6iKa5M6aaKUSIgrepHOoIsrx48fxnve8B3feeadcE9I/qapIt9tBpVLB/Pw8OOeYmJhArVbDN77xDXzve98LOUu0lm//GcW+qj0B1Xmpa6n72uQzgiHwHBTzBXz605/G8PBw5BpvWucgEefFF1+UiMG5CCMmTrDTkOxL2fRWqyVD3Kmah2UlI40VudFvRqlvrC5nxgUBygVkPgyTIZ1MSaXSsiycOHE/Hn/8cQwPDcl+e2IeoefZ8+G5Lno9B0HYbtjz++0LOBeK8OjYMP7P//mX+MxnPoMvfelLmJ6exlC1jNnZWWTSuYEbpyPzIM4RaNRe3Vx69p1oXBxlVRFRJyb0TtdsNGoYGxtDEATY3NzE6OgoTp48iRMnTmBqagrtdlsiL0BcwJfGglqthul9k/A8D5ub67DMJB599FEkk0l88YtfRLfbAeeAaSY0sTFEhkDZT/HQYu60Rn4AQBguIoQl9KCTWf7SpUsYGhrathaDxq6QgzOOjt3BpUuX0Ov1pJzIGJN1UncahBwB68vQtm2j1+vJPna9Xg/JJJcKvqDsYSi1Vk5Sj4PSh075iEtQwbnx8XE8+OCDePDBBzA9PQ0njOfqO+TCMj2MI2FacH1PtDbgfQpOuSg0X9M08bGPfQylUgmf+9znsLy8jKmpKVFSyIkPEVE57c3WTz8nTn8ZpJNJk7WCRCrniCuQoBKZSqUiueHevXvx+OOP4+GHH0Ymk8H6+rrMz1HDWeialmWh2+vImgKJRAK5bB6maeL+++/H8PAwPv3pT297Pp3Y7TSIq8XNHQDSyRRM08S5c+dw7733hlJKH3kHjV17iNbX12UXIbXCIZleierSRquUnrgBbTKxTmptTAhG5j8aVPFDfXDdoaYCrHoP2iDKPbZtG51OB8PDw9i3bwqPPfYI9u7di1qtpgCM8KOoiy6dnK6HwPVggCFpWkhZCZiMA54P5gcwGUfKSuBjH/4I3vufHgc8H616A/C2y/HqtSkC2TRN+fy0ntQ7j1i/Knqo8Up6uD0NnXioopOuY+hlhdRj4ftwez2Ui0V8+Mkn8a4TJ5BOJgHfR8I0wQEYjCHwPPRsG063CxYEood8t4t8JgsDDMwPYIDB7dno2W0U83kcvfNO/NePfxytRgPdTguWwZBLZ8D8AO1GEwkj2suEiCOtS6/X29awVHVKk5mdc44LFy5IxKDzdV+d+tqdKdf3sLi4uK3sI22yOtSHoO+yXTGLepRpw8iLSteX5koWXs/f2UNLv8cNxoTlKJPJgGdEj/GnnnoKGxsbMn+ZOIHvC3Gu0WhgdXUVWxsigQucyYqMlNlIn6mtwebmJqrVKjY3N/HJT34Sy8vLuHDhQmi2TgqnlTLXuPnTi9ZHzbGmtVbPUcUx/fnV6+0UMaCer4t39CLjy7vf/W4cPXoUpVIJ9Xo9Uqq1VqvJHulbW1syY69cLiKVSqFcLqNSqUgpIQgCpFIZ5PN5PPTQQ1haWsJXv/pVbG1toVgoRyxKZJBQn0tFEtu2pR+KrE90HK1hrVaDaZqyADVJJ3E+Ihq7Qg7f93Hx4sVtXkYdEQYBqcz0QyAdbEJvMSP6QgQxgqCvkA9ACJpbHCtVgYCzAN1uB2Mjo/j4x/8LkskkRkdHUavVxGbZomjx1tYWZmdnsbW1hWQyiUI+i3whC8Psl8CnJKxutysXOpFIoFqtynxm13Xx67/+6/ijP/qjMNdFB1pAEFbxwTAMMB7AMBnAGBgXEaFWwgA3+oopPXtkjXw/Is7oQKTravpQj1c5nLonyWQSpVIBH/zg+8M6AQ3k81nMzc1hz549uH79uqiBvLqKVEqYw0dHhyUndBwHjUYNMzMzYj84V3qlJLFnzyQeeOABnD59Gmtra3DcLhwXsBIWUqkk7F4PQD9eT+02zBhDqVSQ8/c8ZxsxKJVKso/i6uoqJicnJVzuJLbtTufgHJcuXZIebZqISoFUqkO/6QomY0yGpXueJygqBlNSP6zOzbT568F6uglZB4RUKoXV1VX8t0/8Gu666y5JRdLpNJrNJjgCrK+vY3FxUXqD8/k8OAtE4xfTk1Ss2xXFjTc3N7GxsSFNw7lcDtVqFUNDQ5icnMQ999yDY8eO4Wtf+xpSqUysoqsq13FEQoqNiBokVE6iigg7IYa+JnSceh312P5a+vBdF08++aQUXTjn2NzcxMjICF599VWcPXsWY2NjOHToEBzHQbPZRKfTkeLOq6+ew9LSEubnF1Cv1+UzkKLc7To4dOgQ5ufnJTe2bRF60+124QfRuD11HQzDkC276VlIWhHOWCabJ/V6PczNzWFyclLOjZy6cWPXyHHjxg05AbW4mr4JKtLQkJYMzsLFEKZFvS9FnHwcBCKXJO53faPjfgdEY50HHngADz74ILa2tpDNZsV7Lo0AHmZmBLfwfR/Dw8OwLGHRssMNXlhcxOrqKubm5rCyshJpQknr0ev1MD4+jrW1NWkN27NnDzqdLnq9fi/zuBB4Yv8E9GouuOM4YIYV+U2v/KHrDzpyxFmr1LWKi/DtX9dFLpPBPffcI4+hQtQrKyu4fPkyxsbGYJomGo2G5GTNZhOvvvoqfvjDH2JjY03TBaJZnalUAvPzswgCho2NDVkXmcJSBCG1ZJ1iI6x2SQXEG42G/I/EUZp/z/OEryM8h/aZHLQ7KeS7Dh8R9ui+Qk0brAO0OlRToed5YOCRAl0UQmIMaN5CSBH4US60k5igXoeOcxwHTzzxBFqtluwiRFxjeXkZN27cQC6XQzqdDjuw9s3Ha2treOaZZ6RCrwevdbtdZDJCdr58+TL27t0rn2Fubi6kUJZUDsnCpWYfqj1IaIPp+TzPA4K+TqBac1TjxyDkIGCN0230fdORh86/7777EAQBSqUStra2pI526tQp5HK5CDXv9XpYXl7G1atXceXKFaysrICxQCZrCUOEJyMrCI42NjawZ89kRKmu1+uyxYJqFaS1pHkWCgXpUmi1WjKgkdYqm81Kx+Ts7KwkUjeDoV0hBwEGAbVqAlNjpuhmqmgQMckpC04P3Ov1YGpigXqdOLFAv1ecSKe+yMGnyuWNRgOO28X169eRD1sf9Ho2Wq2GtMBdunQJ3/nOd9Dr9STHI+SgTeKMoVGvwzJNJBMJzM3Oolwuo9VshsYEH67vRKwjatEBEjVd10Umk5HrKh2hvg8vTHdTqZzum1CJx6B10xFI/18Xa+ma9957L6qVIayurkqR5/TLP0A6mUI6KcJ+qDbyytIgqkH7AAAgAElEQVQyXj1/HjMzM4KDGia6vQ66YcAhSRaGYYBBwE0mk0HSSqDTasuSTJQJmkql0AstcYRQRFipOKBIpzZlXFwQiHChbDaLRCKBZr0hu0dtbm5Gmiy9aYWcIinJM6ovOHEAdaPos55ToOoJOuehzxKhFKTWr6teXwcUXayYnpxCqVCUwEHnzczMSCoorC/Cz3Ljxg1cvHgRc7Oz8tr03GR6JSpOhKFer0vqRdxBli2VqbwMBgPge/ADXxqN7XZLcGMEMLlAKJgi9ohzgAUAY1pULoQd3mf9Oah+DJXy6wYLVdSi9VbXTF/rgwcPotVqhQSkJ4kledbJIri0tIQLFy5gfn5ewkWtvhlZJzUknjNBYNbW1pBMJrG6uip7jhiG6NVRbzaQy+UUuEHIYRk4EjAYMFIdwtTUFKanp1EoFLaVb6Iig57noV6vg7EgTG8IYJrx+gawS+RYW1uT1JJCtMk2TwtEgECAo9qiwcPGkwaXi8w5l0pbv3FjX54WIRvRkvf6UGV11TlJcT2k8N1+++1wuqJ3SM9xwAFsbWzg+pWrqFarkpOlUmmsrq5idXUVr732GoIgQMe24YdOQRUxGGPw4cMLQi5gip7o2XwWXacLwzIADlhmAoEHGS/mOl24rlBac5kUstksjhw5ghMnTqBQLglk8oC1jXV8+9vPoVjIYWRkBOfOnZMmY98DykMVrK2sIp3NAb4LFgTwSLxSdDRwBs7MMBDSB+cGDINFdJi+DC7Aodu1wy61Nvbt2ydj6UqlAprtFi5dfg3prCig4QU+0qkkrl27hpmZGSytLKLREmbett1CN/QxeF6/QWlfF+onkvldG8xg6DrCz1NvhtHN3EC725Ym7aRpoGM3YRrA7OoCRkZGcP6VFdyYvQIevEuEspgZ0c/eEfF8S8s3UCwWwRhHOpPEiy+9gImJCYyOjoZiL0LxLSUJoGEYu694qMppOlXSAVY9hhBGUIo+u1Z9G15A5knNUsNIQY33gtMgCqFuONm3AeDAvn1SRCGdh3JIKC0XEIr73NwclpeXt1niVKsYIT7pDVQGlVouUDJXIpFAMpGS4qTBgI7Tg8ECWAbDo4/8LB566CFZUNsO9Rc3APKFLDzvQXQ6HUztncT7n3gCzz33HM6ePYtWp4O11WVYVhIGA3puaEEksUgTq8jqN2joITpBEEhzaS6XizhSXddFs9mMVMgn3W1paQmtVktmUnbsNgL4aLd7EZgBtoepqLCkcjoPgYhN4xyu2wNgIJdKY2trA4VMGovzc+jaNh599FEcuf0QhiolNJptgAVgjKO+tYVKtYwg8KRTeXNzA52OSFm47bbbYHBLqgu0r77vw9RZbNwIgn5oAD34IHMkHa++vLCFgI/4Ims6V5Dnap1B4pRIdYMJGQhZGBNtfCcnJyOKtOeJ6u/Eeqlf4cbGBq5fvy6Ro59rHlqJuAmD98U51QlmGhYMbiKXzUUiP33fRyYM8e91wzD2VAK/8zu/g717xpFOp/tyuGkilUqh2bFRKBRQrVbx3e9+F3a7g3K5jJMnT+Kee+7B//eVr2Bubg4T42Vhlk4k5TowJnwl6jrpAKkDJ4lAFA8lDQEAKpWK1JEoyti27Ug/vrW1NczOzmJ+fh7tdlvCSLfblQYGXenXzfwq7KgwgIDLZ+JM/Ca6evmyqebhw4cxNTWF5eVl2LaNsfE9odld9PToWxe5zClpNptYWlqCZVk4sP82GR2sznHXTkAV6FRTrv7w6u+6/M9Y3yMeF4xHiyJTOcMsQAq822l+dA/1vqlUCqOjo0gkEmi32xJoVeoXBKLtWLPZxNramvRdGIYhq6GoYqIe5KcioRDNUtu8tIDQ29ZXVzE2Nobf/T/+dwwNDWFzY03OJ51Ow/N9tFot9FwPyWQSw8PDmJiYQDopwsDHx8cxMjKCX/zFX4RlWXj2W89JGV1w2pDbsb4OIZDc04Bvu3VK7GNf51OfSwVk8uvQMzabTdy4cQMrKyuo1WqS46g+GP1eKsIGQRBbjlTqkRRV4XnIpEUy3Pr6OsbHR7GycAM///M/j5977DHYto2ZmRkhTruitBMzhMEnYL6skuN5ntynbreLmZkZFAvCe8+5ETEw7dqUSwiwUwSuauFQgZQFiJTY0W30/TDw/nWE0hlFjjiqQ5RPD1Qj0yh5R0k38TxPVjopl4vyXt1uF6urq9IqRwhEFJOUPEJu9VnUvoS+L0rDqAGVK8vLaLfbyOVy+O3f/m2k02ksLy9jZHhIhrYQpUskEiiXhmDbNmy7iwMHDiKXychATdd1MTY2hocffhjXrs5gcXERVmgxGrQnqpId5+yL20OVqJHEQEpyNpuVz16v1zE7OytNpeTDIkJKxEW9l0rMhFLcB0PdmQkI4sVDsc7zhL67tbWFSqWCRx55BHfccQfm5+cjcEdi6szMDEqVYphMJ2AknU4jk8kglRLi78LCQliEMCthfNc6hyrD6/J3HLKonMH3fRjEJVj/eqpMzzSHmEpx4+YS91mtc0XvlL7LGJOATRHBZHkjwwLnXDr4bNtGq9WSij3NTeWIaqE10mU4j7Y57nRENKpIgErhv33i18B4IClXIpHA5uYmGGOYn5/HD06fxblz53Dw0O04dOgQMrmc6JcY+mCoPtPS0hLGx8fxxBNP4G//9m+lGOWTnO4PbpmgAil9JqKhRj9QIKhag9Y0uew5T8e2221sbGxI3wIp3WS5E8fFd8VSdUUdIfvzFGJUNpcLCRdHqVjE+voa3vvRD+PAgQOo1+uYnp4G5xzf//73cfXaDM6ePYuu4+HJJ5/E3qk9odk3KbmUbdvwfWHy3djYwNbWFtLpbMT6ad5M3wD6CUJqsJZqilVNteri04NaVlhZHH09RT2nb27cjghifjE5DgoCSetWKI4RcFK1dgJstQgCGReIKjLGsLa2hna7LX0aZElTK6PHhc8AkCVQqbjA0tKS8LLbNioVIZ8fPHgQhWIOywuLyGbTuH79OhYXF/G5z30u1LGEefmee+/DBz7wAYyOj8OyLDTrdZRKJVy8eBHz8/MoVSrIZrOYnJzEyZMn8fz3X4iIMkGwnQLTWsaJN7rjkX7rdrtYW1uT3/0wp5++U3qrTjxUgskYA1cMOXHv+p5GdNgQ3hzHicDb5ORePPzwwxKQL1y4gK9//es4deoU9h+4TfTzWNvAHXfcgZMnTyKTycA0E1JnWV1dxdraOhqNBrKZfFgoooRsNvv6dI5UKiXDzgkQ6MHVyiMqwKreW3UB1EWj8/r5BFope9bPRNOvH3c9+p8Cyii0mwCFcqGp1zkBOClszWZTbjiFJ4jGOVFdiDafxClSTsl6Va/XsbS0BEAEva2vr+OXf/mXYSUMrK2toVwu4umnn8bY6CgWFxcxPj6OVquFvZPTqFarOHToEMbGxpAI87SHh4fRbDZx/PhxHDx4EC+eOoUbN26gWCjjgQcewL++dCrU0SABSucSO3EOCpfnvF8elThko9FAEFA+jKgr1mg0ZE90KhhO8EGUOYIsbnyUMA0iPjTUKABw0ZulUaujPFSC7wsv+AMP3IepqSnUajX84OWX0W63cfz4cUxMTKDVtrF3717MLyzJKAVRPUXMsVwuY3x8HLOzc7h69aooGBHGgxFy+L6/u3yO4eHhiIWGRAi1Di49jCprEtCrZf1JxCGkUOvsqnqEGninUr04pyJTkIioPR17+fJlOI4jWziTs65YLMoiEfl8Hr7vSyJAnlkqMpdMphEEotc1wGGaCZhmAlSby3V9JJNptNt2GFzXlMcYhoF9+/bhHe84Lqnft7/97VCGZ5iYGMMjjzyCyclJvPbaa9i3bx9+5Vd+BYlEEl1biHXEDZvNJkzTxG233YZcLidaEBeL0uJVq9UilSlJtCQzpcywVIwhKlUG+uU0RfKZcMz5vi8CMA0DY2NjslJLsViUxISKYqjhMZQ7QYP2PpvNyqapJJ7SO5nAKW6K9Lt8qSjhyXEc3HHHHWCM4e///u/lGpdKJdx1111wXRfnz59HoVDA1atX5f7SvGht8vk87rrrLhm4uLW1FYHl3VVZZwy5XE5+pkVUFT1dPFOBOe56qvyuflfNo6ooo8cNqWOQfkL/ra8L9ul5HvL5vAxbyWQyaDQaMAwDqVQKIyMjwkoRcsZsNis5jPpMqn4k7OabMnydGoESsNB5lUoFiUQC3/rWMzh9+jTuvvtuCSCkBwllN49WS+RE5PN5NOoteF7fCue6LgqFAqanp5HJZDA3N4dWq4VWqyXDXgjYB+2Nvj47rR8ALCwsyKhWao1NDtbJyUlMTwuOR8SFCB5xFSI26XRazhGA1NF0eFF9YIZhoFAooFAoiAhqzrFnzx6MjIzg9OnTOHPmDGZnZ2UFmxs3buDUqVMy/+jtb3+7RAo1no3EM9IphQ4SNRzsCjlM08To6GiEe0RYX8xQAV6NwFT/V5UvdWFUMUq3bOxmM/V5nDt3Tm5uOp1GKpVCqVSS+hNRy3K5HDFbk6mXnkOtbA70s/kAUeWbolJzuRzK5bLQF5pNDA0Nod1uo9ms4/Tp03jttdfQaNZkeHur1cLp06exf/9+HD9+HJ/97GdhGBbm5m5gaGhIUnzVyMA5R71ex5UrV6TyT1VgyGmn7k+cvqHK/vq6qsd+97vfRRAEEuGLxaKipJu4/fbbMTExIcsTUY4LzYGqkKgll4jjyxg1DVZUWCBT+/T0NBgT4Sznzp3D8vIy7r33Xly5ciWMprZw5coV+dxLS0uYmpqC74v8GwocJevk5uamrMHWbDYjCXjAbpHDMDE1NSUXjKhDnL9C5wQ6qyWgItmdlGF1k3SE0Dd2N0YE9Zzvf//7kkJ0Oh1wzrF//340Gg0ZypLNZjE0NIRSqSS/0yZTYg5ZmFR277quDFUhCk5UiOT36elpqaSfPn0a12eu4wc/+AEsy8Lly5fxyiuv4H3vex8KBYGwQ0PD+Mu//Etcv34dV65ciUSiUjYbtZkrFArYs2eP/I/WmMRbXZ5XRddBa6b/t7KyIsUq13Vl3gY5ScvlMoaHhzE0NCQ5RTablYF/lNREcECiK73UuesIosJTvV5HoVBAu93G+Pg4TNPE3XffjVKphFOnTuGf//mfcerUKSkJVKtVHDt2DCsrK1gM0w7Ig2/bNpaXlyUyEVxE4P6mUBaO/fv3S4AgdqheTDfFqg9Gm8X9fpy9EMnEBhqSEkeVNrkwMfkccUPXW+j12muv4dq1a9i/fz+2traQSqVQqVSQTqcllS0UCti/fz9qtRouXDgvgbtcLsO2e5H7qznfqq2eCp9tbGyAMSbrOlmWgXwhC9u20Wh0kM8KufvSpUv48pe/jLW1Ddi2jXvfeUKkiZarYIzh7NmzcN0eKuUiEPZEaTQaqDebMmdkfHwctUYT165di+yN3GDThNsb3GtdX0t1H2mMjY3J8BHTNDE+Po7r169LwtBqCQ/+1NSUJAKMMaQzglv4HpNimA4XZPmie9Nv0jIIQRwz2Sw8tyfF5DvvvBNba6u4fv06br/9dnzhC19Aq9VCEAQoFMvIZrN45zvfCcuysLK2HBoV+pVu2u22LLjBIKQHCiOSaxe7ajHjwIEDSKVSaLfbUpEmYFEBMo41E7tSWSp955yDSY+slltAOeReNO4mbpP1/1UxzfMcPPPMM/jkJz8ZyQ04fPgwrl69KoFqfHwc3W4XKytLsjtuLpeD5/X9OnooRt98GkjKR9cTVjNPxnNlMhn80i99GOurIszhz/7sz9BoNFEqleF5Hv77b/42JicnsVVv4Y477kAimUY6nQwVSBFuvbKygk5oZqZ5yKzGdlv6XoC+yTwI3G3rpX4mRZfz+LB3MmIw1k/AOnz4MObn50WZVUPoVKQ/NRoN1Ot1GGGUc8/vV2xUOQOtn/osRBhJz3SDPpEcHh5GvV6T4vCRI0dg2za++53vSMmgVquhUCjg5MmTePTRRyWBSiaTKBRKMkyIEqry+TyajTYsy0I+n5d7B7wO5Ni3b5+0TqjZVjqljg2vQGiuC6L9NAiAei5VNNTkYlD1bW8bAqgULu4/1SbOuYWXX34ZZ86ckVYO13UxPj4udQUKL5mcnMTRo0dx/vx5rKysSIpC+e6qxU0Ns6AIY/F7X/FrtUQ93mazieHhIfzar/1X/OMXviBTcovFAhgT8UF333031tbWcNddd2FpaQmGKWry2p0G2u2WNCsThWMQ8jyV2aQoAKKOZNKO8yvEicKMbTf5BkGAs2fPYnZ2FocOHZQ59BMTE9JnQNG8ZNI1DANXr17FVm0zdA4aEY6m65b6nAg5PM+DGwgdzg4jGCYmxtGq1TE2NoahYgG33XYbyqUSTp48iUuXLuG5555DvlDCz/zMz+Dw4cPCCplJhuKlEfo31iI6k+M4smCGysl2jRzFQhH5fB61Wk36BYhqkd6gm1hpM0yD8nn7CTuqs4fOp5wH+p88vSpy6ApmHMfQX05PlOn81re+hUOHDkUWf3p6GsvLy1hcXEQul8Pw8DDe8Y53hpvKZZUNEgFprqRD0XMYhiFNqhsbG9IUapomlpZWwDlHsVLFnj17USyUcfzYO/Brn/gkvvWtb+GHr7yC4/fcK5FzeXkRExN7sFVrgLEAbbuDpZVl1LdqyOZzYCxM9/QgzZWqX4lBIK1lmAi8+AxNleP312274g4AtVoNp0+fxvj4KDgXxbibzSaq1aq8f7NZRyKRwsGDB1GpVJHP53Hu3LlQxDK2xZupOml//5W99/qtEsjKOFytYnNtFfliAVtbdUxPTcFnHBubNZQrVbz9WA63H7kTq6ur2DM5Lc+1LOHRb7eb2NjYRLvdQTqdFrDn+IrJPhlxTxh/8Ad/8Ac3Rw0GPwhg21289NIpCJrFYBgCUImK9hVxwaKBAEHgAwGT4hO1ABCBX0Le92Rs1HYnIOccUBaTRBcVSdTNV03AtOBmWDlxeXkZ1WoVe/bsCXM/HFhWAvl8AclkCo1GE67rYWioiv3798MwLKytrcK2bWQyaThOD7bdQTKZgGWZ6HTa6HTa4FysBb1nsxlkMmkkEsK82OvaeOjBd6FcrgBgqDUaKFeGcOz4PXjgxIM4+dC7kS+WkcvnYVpWmEvRhmVyOJ6Dzc0NrKyJyh5WMoGNjU0RDgOGxaUlnDlzVjxvwBH4AXwvABgHPBHGLri8CPyMCzokYOXcCPdA7K/I/TCRTiWxvLyMBx44gUplCBsbm8jl8sjl8nBdD9XqcCh2Cdm9UCiFFqw9YIxjdXV1mwNZjaxQDTuci8ok1InYNE2YVhKBL8qzCgOKibuO3o077rgD1eoIXnnlHPZOTmNsfAKu54MbJmq1Ovbs2RM+QwKcGVhf28CZM2cxNFSF7wXgzMDWVh2cGzh+/J5tYtUukQNwPeE0+Zd/+RdkMpnQrt7PtopSJ80PEfqBuMFl7JJgv0I+diVniCJHEG4iQ9QvErm2JirEcpOw3q3rurh69SpOnDghLSadTgcAZHHovkhiYWJiAm9729uxtLSIra2tUAwSfoxmsymdiKpVS7Xpk7OrXChibHQM+VwBt99+BIxxnD3zCh566CTarQ4yWcGxyNQZBAEymQxsu4Oe08Pi4iI6to1CsYiNjQ2kwqr3m5tbOHPmDBYWFkMqG8h3BKIEEIIgjLkanJqgEpI4cau2JVJLf/CDH+Dhhx8WEcRKUpvwQAvzdbEoQjBKpTL27duPd7zjXvzsz/4MJiYmsL6+jvX1dWn1I3+MqoeoZn+yZvYcF9lsFu1WC6ZpIZlMYW5uHseOHcPU9D7UanU888w38a6H3oVkKiUieLNZdNodNJtNuJ5Yq+XlFbRabZRKZTiOi2ZTWBcp5F0NLN01cpDsXylX8N3nvytNlYbRbylAQ1AARCgBFQiwwgVptVpheIYIQXZDWTmOcwCAacRX7IizzcchSOB7KBQKWFxcRCqVwiuvvIIjR44gCAKMjo5GEC+ZTGJoaAijo6PSCfjoo49genoaiUQCtVoN9Xpd+krUDVVNkqqnt9vpoF6v4+jRo9KhNT8/j2azhbvf9jbUa3XJuRjrl+V3XQ9WIoHLl19DNpeF3ekCEM82Pz+PbDaHL37xi6DYsyCgtSMADyNxEUREJn19+rpZ1DRPxxULeaRSKTQaDZw+fRrve9/7pF+ARBE18YvM44yxkOjkcfDgQXzwgx/Ee9/7Xqm7BkEgYUHnHkA/R8cPgGKxiCN33IH9Bw7gwP79oSnZEVJAMokXXngBL/7rS+h0bOzZO4Fut4tavQbTsjBzfQ61Wg2tVksGcDYaDXQ6HRQKBRw/fjzSqvl1co7+grY7bZw6dQqFQgGO04seJS0SfacO51ykigYBkilRU7Ver4dxOUIWhNwwHTn6nIOuH/lf+S1O16BXKimiXw8fPoyZmRk4joOLFy+iVCpJCwuxcuIcvu/LJjXJZAJ79+7Fu9/9brzrXe9CsVhEu92WPg3VkUULTBsrgjV9bKxv4MiRI8jn88jn86hUKnj66adRKhaxL8xUpLB0ch6apom19TU0WsK7v7mxiWw2i+vXr+O2227D3/3d/4t6vR6KQ0zZp2h/Pi9wY9dFXT+daquA6rnCp0HRt88++yyOHTsmrUAUzk5hGQSAfeONK0vopFIpHD16FJlMBleuXMHi4qI8nuCFCA3dP5FMSYo+OTmJu48exYMPPgjbFkGlU5NTGB4exl/91V/hxo0b2LNnAhMTE1hYWMCZM2dkIQdSwNfX12HbNkqlEo4dOyYjI0hJJ71415yDMw67a2N8fBzf+MY3Qk9tP94/CrBRYLVMwa5MSwBRo9EIFVYRN8QktVLC2MVFQso/uHnNbpCj2+siXyig1W4jlU7DcV3Y3S5eOnUK7U4Hk1NTcFwX3V4PPccBGIOVSCCRTIIbBnz4SKXT8BGg5zo4eOg2PPrYYygPVfDqhQviHM7Eiwn9zPN9uJ4Hz3WRSafgei42Njewd3IvkqkUiqUSFhYX8bnPfx4vvvQSNjY3YVomcvk8ZmZnUW804HouVlZW0O324AYin73ZbqFUGcJrl6/gK195GolkCtywhI4RrhmY0O9YOKcg8CMAH/ciy6HqfJPvhrhedXgYdreLWr2OK1evYnJqSuiFhoFCsQjTsmB3u3BcF2AMpmUhlU4jkUpgq15DOptBvdnA//PZz+Kzf/u3WNtYx8jYKLhhwExY4KYBxjm4YcAwTXDTADcNmIYlQ2V6vR5qYSOh0dExAAw3FuZRHR7GY48+hre97W2YnZlDbauOublZTExMwDBE9l+j0ZCSy+joKG677TYcOHBAwo/qn/N9f3fI4fm+yOdmQD6Xx9VrV3Hx4kWk06mI1aMPvFq+AOvnc1DglzABCrGqn8+hIRmVlPe3W1uAaIvhQRsPAIbBZVV48thT0tPCwgKee+451Ot1VKtVjIyMgBq9U1KU3enCtjvodDqYm5vDl7/8ZfzN3/wNnn/+eQD9/he6xYVWwnc8ZLJpLC4uwnEcDA8Po1gsYmJiAsvLy3jhhRdw7do1LC4uYmxsDDMzM5JS+yGnZWEcUCqVwtraOv76r/8aU5PT2NzchBW2VVNWSNvBIALwOvCTtW2QWOU4wkdDTsh0Oo2FhQV8/etfl/koxGnVaIhut4utrS107R6shImvfOUr+OM//mO8/PLLGB4eRiqVwvr6OrLZbITrqhESwjwtuNDw8DBWV1cxPzeHCxcuoNlsot1u4+DBA/jhD3+IVlgDoEvFNHpdMBjo9RzZXi+fz2NiYgJ33XWXLLAgw0WUZ/d9f3fNaxzPhWn0rb5nzp7Bn/7pn4IKLwPRbEHGtMhPJmRwx3Nlgs/CwoL0WAZSCYx2qEUYQu27UZ+KunFxSBMBi0CEW1Mgn2EY0hRdrVaxsLAgWXomk8Ho6CgOHjyIAwcOoFqtIpEQkbzLy8t45ZVXcOXKFYlonU5HUiE15iyCoDwAc30ZjwQADz30EI4fP44DBw6AMRH09o//+I+4ePGijFMqFouiCIQpkLnZactCdP/3Zz4bcZZ6nr6Fuq8p2mKA1oXeKUqAOAcBB/2fTqexvr6OStjdqtMRDWmuX78ujQgjIyM4cOAAxsbGkM1mpRi1urqMmZkZzM3NIQgCGd4fBIGMyqXQFIIjde4izSCDxcVFHDx4EGtra8jnRVjKamh9LJfLuO+++zAxMYbl5WUYjEujiAi/t6QzcO/evahUKiiVRKUXKhqnEnkZnbEb5HB9DwY30O2JoloJK4Hf/b3fxeXLl6RsqGYK6sjBIWJdOl1RnaPZbIbtDIywvVk8cjAjBLQA0Kepb7b+WVfWc7kcNjc3pV5BAE6WMxW5VQ+uCBXhUkmmlFkyTRaLxYgVTTUUSAoNH51WW8YbtVrCA/5zP/dzMgDy2rVr8H0fZ86cwfHjx8GYSOfsuQ6SGdGx99y5c/j85z+PQr4kDSFCR0lqz683s9nenEb9n4BTDQlSn8NxhOK7tLQEHnKwzc1NDA0NhR5yQ0YlE9cVBpdEmDloScKhRhcHQSADQtXoAgJU4hxBwCKV3YNAGHBajQZKpZKMQMjns7j//vuxf3ofqtUq2u02hoaGkMsJI8jY2JhMAaB9liukqAeUl/K6kCMIc7o543jt8mv4H//jv6NcLsNxHNlyWVSTM6QymsvlEHhC4XN9T05gcXER6+ubIrdXsnlTAqTrupJzQIm5UsUB2kT6TaV6qgWNgJ8oAokQ5Gyi7DXV868CCGN9YKfwDNWppccGqUM444yIFYQyKkkxJyCzbRvVahVHjx7FgQMHwLko7f/9f/1X6VAT1NaSyE0e3qhBILountevD6XPTeVAOuKoImuEaMUQAhKD1DXuGyriQ3zUe+n3JOQQRDLqQBRF7hhYWGE8kUgIBJd7Cyla/eEf/iHuu/f+m4F47Nh19RGDK6mODJiensYjjzyCZ599FsPDw9Iykclk0O124LqurHlkGWYKPhUAABzMSURBVIltC09hBq7rwghzJjyvv/imaQoFFxCORES5hfqZrqlnH6oytOo41EUfolpq3SsaAikg7zXI36LOj85TRU71uQHIFN719XWsrKzISoLXrl3D2bNnZVURu9dDsVjE1tZW5PrUTUnP3RDzQGQeepiGOl91/XS9Sd0vOk5dN/UZiUjEK/zx8XdR0W+7czJOBIwe39934rTU/CiXy2Hfvn04evRo7LPvZuw6fASANNkBQMJK4PHHH8e5c+ckS9Wphk5R+wqyIUPA2+02zDABxvP6Ea+WZQG8n7gziMqp19WPIeTwqV9cqKj6wiEgvfZe4IvoT0PE/6qKakQ8UsNjtHurv4nP/bpbfiAsVzwIwE0TzDDAfB8914XTaom1sixkw4BIz/PQCSlfMpnE+vomAsaRyeXlc5qWKA7RbfdkKEQfK3zh9AjnYegm8pi5q9xWDRD1/bDpECCbCSF8MVE3R0oTeryUpPSiyYhcI5JAguhkwpmHxfwYk2voe3Tf8Jlo2qH/jMQyx/MQMAbLSqDZbOM//+dfRjqVxRsdu8rnsEwLrhfWqmI83GwXhw8fxmOPPSYjHEl+JJ8BtU3WLSWcc2QyGWmloKA0SpDRrU1xIgH9HvebLiKQSKV+V7tLqRaSuKErifrxESNCzDxUMYFK1ZBMThG0aiITWXzod+rCq+p3KiGKy31QRU8aqjdaBeI4Q4cuuu4k/qj/xX1Wv8et8U4in762+t4GQT8H3vd9kW/eaODYsWN4573vRLfXjd3T3Yxdcw7f95GwwlBoxtFze0glE3j00Udx8eJFnD9/XhY0IwtRvV4XSlZ4DdXBlEqlkM/nhblUhhH0a0MFQQAEIRUPtrNUdVPikEhdWD8QVC6AqHDie4KwcsYQ+KKWrFo2iEzPkvpzfxtAqSKGmnuizwcQ9xM1k8S75+klUfslbSjGCej/ZpgJdLs9uYYIODxXiDHJRBoMociL7VY9da46wBPS64i07XyfiZAUkGldrGV4tCgmJ5gxPOrsyvpOXT3NWP1M948TsaQOEz4fgjDui4WELuRoiUQKtl1HOt1vU/DUU0/B7tpI7VDT62Zj1w0z6aEIE+mmw9VhPPnkkygUCvA8L8x/8GRJfbLqELVUM9UonomqhKjRmWrsjs4N1DkN4jKq1SXuGN2eT8fGUbhB1ii1aMFOL3ouVdT0PE8WQaNQBjXJh7gIlUUiAKPwFDqOxiCupe9fHBLrOSrq3OPWSB06csWJtoPWlY6J+z3ueeKuz5gwqVPiWr1exwc+8AHs37d/oK6127Grs11P6Bp+0Le4+KGS7Ac+7j56t+jnHTZAJ2WRElCAfsKTulgiAaUguYVaZlS1fOhxVXEvWjg9zkuVg2lRdbGD7qW+dBFBF8VUmTxuDmpYvPSec9FWgV5e4AvfTyqJZDqFZDoFM2GJ3tmeC8dz4QUkgiWRSCRhKP6mOGBW/4sjFKrJWl1rnRPq1D5uvXfzv36MPl993fVzOOeAwRFw1crAQTV0OedSlLdtG3feeSc+9JGPoN5qImElpDrwRsauc8g5E4tomf2KcYAQsTzfw/vf/35MTU2J0vq5QrghHIlECj4CuH6fhdNCkGJOuofvuxCh1QxU1BjYbl0atBkqYNPCqSbXOKAnjhbHWVQqrSKCnhevn68jCHEeldOo8j81ZqGCcqouRDZ8CgFxnJ7kKmrOON03zuqjKthRZy2TvgX1HHWtaP11r7q+7oN0ApV4qHOKiL3+9uIZKmFjPBAv1hep6DtjojIOFeF7//vfj6HKEHLZnJzbGx27KwcavlsK1cqmM/Jzzxb9HD7+X34VdruL1157DZZlolKpYnF5AYwxpLIZMMNAz3PBLQFwPa8HGMD4xChmZ7tYW6vB9XrIZvLgBhD4AQLPhYOQ9YYyJkLKS+ElJLYYVogIQKS3x3axS+UkARxXLCwPAQhM9LF1PVcGq6kUVaeqOvdQ/9ez8WjE6UtAv8BdhNsxD9zg8H0PATwYJkMQeHBc0ac8rCos7wf0axMzxuB4oS5jGOAIfTq+DwQAC3zBrdQ5BgqiiFkBDBCqkFgzKj2qEjwJL7Qu4TV5QHATDXHp70O01rHvQeiIAeAHHpJWEu12E4lECpwxtBotpFIJpNJp1Ot1WLkcWq0mHvnZn8XjP/fzcL2waAePN7nvdrw5oSwcmUwGvu+jVCrhU5/6FEZHR2FZSSwsLGB0dFyGAzebTZkEr1bwSCaTYS5AEZxzuJ4IZzBMBsft944jiq3WHwKwzVqjyrG63DxIDldHHCVVuU2c8hj3n/6/fhy9VCqpcyFACf83sCMFj5uDuhbEyXRKfTOurF8vbp12ms9O4qr+/Po9gyCQDY9cV3DV0dFhAAirR5ZRr9dx5MgRPPXUU2h32jCNfryUyllf7/iRIAcAGZ9TKpVkJfHh4WFZpJdK6pPCTqIBiRbFYlGWxSEPMmMsIuPrYdWqjqFvaNyCx4li6sYC2+V3XaGkof82SOHUESHuRfeJm7NuIVOflX6Lk+fV4/SQEBrbOep2a5uKXHHrN+h3db7q/Xbaq7g5EIwQEnW7XVnwIZvNolarYXR4GL/6K7+C6lBVOk9pvBmx6keCHL7vy9pNVJf0937v91Aul5G0RMAXxbR0Oh1ZhZs6IDEmvJvFYlHqH4QUqmk3TnHWqRLQRyRyJg6ibHGAsROlfyNjp+sNmjsNVWzTqb16Df26+nzjiMQgY8Wg547juDe7b9y91Jcaw6ZeV0eeVCoh9STaT/psWRY+9rGP4YH7H0DH7oCBoef0YBomek5PRna8kfEjQQ6yMpHjitoW/8Zv/AaOHj0qCg84LpgfoFIsoZQvwHdcdNsdmIwjaVpImhYK2RyGK0MoZHNgfgB4fqR8pC4aAPFmSxqDkCFuDOIKO226+l29Rtz/+jHqu6okx91Ln+PNkDluHeLOj+OWca9B60bXoPnrSL5NodZeYD7AfPiBiwBCnwLz5f8kRro9B0krgcDzkU6KmmOi8SXDhz/8YXzoyQ/BcR2kU2m02i0krQQYALfnbAvefz3jR4Ic1GYXEDFDdqig53I5/NIv/RLuueceVCoVBIEIfy6XyzJgTo2GNE0ThUJBhpY7jgOv54Ajupk69dGLLqhIFNc/hEYcoKr/6ZQZGOxDiPu+E4dS7xfnnVc5xSCqrwPtIPEmTt5X1yluHXTOs5PYFic+qfPUh8o1B91THWRcSKfT6Ha7WFxcRKlUwuOPP46PfvSj8hmBftki6g//ZsauonJ3O9ScCdUMG8DHc995Dt/85jextrYmK0vYto12uy2D/gDxkK1WC+vr66jVaiJwMZndphsA/c1UQ53jFpkZ8RukvtO1I/MO+rFeg+Rt9Vidm9Fc4uanzpMsYqQ86pxRD/Wg73QcWYtInKT/CLHiAFoV1/RySZG120Fnof/16+viGtMgTL8GrdGgNWUskMYYSrX9wAc+gI9++MMoFopod9rIpDPohLXHfN+XnbTU9uCvd7xxVV4bnU5HJpCoDV86nQ64yXDyoZM4ePAgvv71r+OVV15Bu92WMiNxDdo01ZK1sbEhfQXAdsAjoNhJ9PEHiAYqcO4kR6tD5xAkdgy6d5zMrl9T5YQ6JdWps24g0Oce9xzqb9sAd4BIqj+Lvh6DiIVKxFTipT53HKceJOL5vg/LEojRarVQKBTwC7/wC/jIRz6CYi6Pjt1BJp2BH/gyIsM0TeRyuTB9Itpv8PWMHynnGDQC+Oj2RJQpZxznXz2Pr371q7h+/brsL0dUTpVf19bWMDMzg81aC5ZlIZfLSXGLRCo15ERXXiXAsb6YEkGa8Ng4RyEQbfw5COD1e8ZRTtXxGQfwqp9EF0N2EjdoDNKp1Hmq0QakJ9B/+px0oCVJQBczVSRQP6tORs6jsXFxHJoMNBSRTHqm7/thwpRoXDpSreIjH/kInvzgkwCArdoWSsXSYL2CHuMNKh7/LsjRdWwkrEQkWcoPfJw9exYvvfQSlpeX0Wq1ZDlL2hDHcVCv13Ft5oYs70/9MoIgiOSEqAC5zQJkRLurqhupApCKHHGyfhxyqOxfvz4dSxsdd10A2xBcv4/uYNvps36ujoBqTSgAkiDt9Hz0m/rSOU7EiaeHo7j9vosUTEnSgmmacr8oQpkoPmMsLJgtmub8xlNP4cQDJ1Cr15DP58EZx+bWJiqlftvnyPhJQA7fd+UikxJOipPv+1haWsLFixdx6dIlWSaeZGnX97C2IXK46/U6gH6NXQCycrfq/1AtWr7vR3SOOBNmv+0aYjf3ZpxDPY/usX0NtnMWOpc6UQ0ScdQ2Deoxu0UOmpvKCdW5qp2w1EG/xRkM1O+6805HoJ7dkYQM6Ie9UMBpsVjE+vo6AGHxpFAQcg/cd++9+MQnPoHpqWl07A7SYVG7eq2GYrG4bb2gQ/RbGTmAfh+9aO6zFZFHu90uFhYWZCEDUsgz2SJuLC1ifn4e6+vrcF1XFlxrtVqRyhmqTC5DPfh2ChcHnHEOP/XYOG6jA4Qu49Nxg2KVAEREHPWdhmpx2wkx1M/qtg5CDno2NZtQPVcVG+PmpT4P/R8HTkFYWAOA7NFIRgoibiMjI6jVauh0OigWi2i1WhgeHsYTTzyB9z/xhMhnMUwECML4vRw4WLzC/ZOEHJ4XXXx1tFotZLPZCPIAwhR3/vx5nD59GrNziwAEBV1cXMTFixdRr9elV71Wq0WAUr2XzwB/22pFgV5PNY1ToneijDog6sCl6hzqvdVz6D0OsQZRbR041TnregMhgxonRuutKvVxxEG/tj4PXcHXh+86yIWFLaicDudcNrrxPA8rKyuyyuTKygruuece/Oqv/iruOHIHANE+mnMOFuZz0r1UY03MNocTH/D7TcaPRayiqtb0G/W2BsRDO44TkT+brS7OnDmD8+fPY3l5GTdu3MDCwgKazSaCoN+6TBUVZBEFHlLtcIF03WMnmVtVXtVNj1Pu1f915CARQj0vbuhboSK7Onf9s0q5465HHFHVOXQRME6sVJ9h0NCRShUP6bcE385dVdGXag37vo8DBw7gQx/6EE4+dBIAZBChXAvWb2WkB3z+RCIH4EtLRCrVz8xSy27KI31fWi/kMQGldgLNZhsvv/wynn/+eZw9exbz8/NaQ/hoIJvPQuqrIQfQD1ikTVU3DohaVuIoq44cutgVmYdmrdJHHMXWkYOOU9/pWPVdP5aUXkIOWuc448Cgeai/0e+601U3SNA5hUxaFt5Wz1Mb7bz3ve/Fe97zHkxMTCATRny7FE0cRu86rkgOy6TSkiBG9KSfROTwPGebrVvfSNU3QscJwAQQFkegAgzULOXSpcv4xje+gX/4h3/YlqcQEQdMQ6lkEkREDN0BpnrVVfFMBZJt1hjfjxyrIsegckE6p9kJOeJELX0MUsjhB7HIoSefxSHIIKRRxUXirOqa6IGhLOjvDb2Pjo7i/vvvxzvf+U6cOHECvV4vktLqheWgaLhKYUH16SMI8pOIHP/WY2lpCV/60pfw5S9/Gaurq9Lc67oumMGRCsMIdMqny9Oci6hPUhbV1m5xABNngSJxQeVgakVCOlbnUoOAkziehwAG+seQqGeaJkxuyHAJaiktmtIbYH4g4pY0kYzuCfStYWTxUxtXMtZv1EPtjKkzLBXEoMqFeiNMMrgMlSsysa1cLmNoaCgSYKoGH76Vxk8FctBoNpt48cUX8U//9E944YUX4LouhkdH0Gg0AB5tEa2mvVJvbQqlJ38LWUF0h54uNujGBp36u+72TDdV5lajA+h8VfxyfdH+iwdRDznN0ekKiw9VekkkEnjiiSdQzIkq6NmM+F3v5ErAm8/nJXIQEqhVSlRrms5J6VloDOJyuhhHz6nql2+18VODHORYImq/vr6O5557Di+8+K949dVX0QtTUcmUSIClxjMRYNRqtW3/7SRqEKdRc7OjyLC9yAAdT2ZNHWh05NBjvgjQLMtCwrRk08xcLodCNoc///M/Ry6Xg2UZwABFn0Yc93ozQycEuuga5wd6K46fCuRQAUl3MgICuDZrNSwuLoZlSNdlrS3GhBcWgBTHnn32WaytrcmS9XpYi/4CsM0goMrc+XzfUaXK6jR31U9Dv6mIGLBo3BIhFiCQJZMSvQgLhQJyuRxGhqr4X//r/+rfU1knfbvjOJ4O3PqxqkVq0LXi9gjYbul7KyPKjyzw8Mc51MhStRiatNZYFqrlCqrlCu6+8y4ZxkKDMbKeA612Cxtra/jhD38It9eDyTnqYRcjqgWsimSk26iIQVyHgIWQT+oI4YsAQ0UOXQ9S9Q5VzOn1eqIFdThv27ZlT7uhoaFwXQSxSCWtyPUGjR8F17jZtfVi0W/l8VOBHIZhyBbAVA5I9Zq2Ou2+oskN4UhiDH4QDdkGROvira0t2WCHFE41fovKoqp2et3JN4i60v8qMugeftWEyxiD62/v4y7mLxBcrRZpWaKXoTgfSCajUalqjNdOnEGfK7Dd605Dp/664q+G+Oim47fy+KlADgARMYrEDgK8TDo+6YUzDh7GXQUIwMBg8H4Pb7LStDqdSBV2XbxSEVHlIgQEuZwoMKEjRZwfhY6LWMAQDU/3XQ/w+9enWsWO3QXLBWErsr6Jk8GPINxuhyoK6XPbDQeid9W3pY649XsrjbfmrF7nIAqvUlW1pS+Fj0SsLZrxm3QL0zClokuOJlUxjwuDUQMDVeBT617R0C1ZugVI5SBSD+Fsm1FALTbhui4KhQJ6HZGBmU6nYZpKSAmiTsQ4riGP1ZBUf6bdDN1sTARAN3sPCil6q4yfCuTYyRQo4nF2cQ0rAc/34HouSqUSLly4ANu2USgUUGs0pDdfV6CDIECn05Eh1qoZmDEmnFupjPxNFS1UJ2Gcp5rul0gk4DEeRgv44NToxfXgez4yyRTqm1soFEQxveGq6LNtGMJxahjbudK/5Yi7xyAEeysjx1vXVPDvOHphV1yDGzANE9VqVTqpWq1WLJUnkUBty6AiDn0nBBhkriUk0MPCVQo7iNuoFi7SqRhjYQvoty7Q/aSMnwrOcbNxMzBJWtGecKlEEiY3kLQS6Ln9rMO4bD41eBGIOgwBRJR9YDuA6yKSykGktUoRUxhj4IGIlAgUZDNNE5ZpggEYHh6O3O/WeGPjPwRyvJ7R7Yoq8rLGrefCUoqKUYiIGrSoKuGEDGpIRlwckxqmQb34BnnadR1BD/8gHYvmVqlU/u0X6j/AuIUcQESX0BOwgFBkQT9iWP1PB2rdDCvs+vEZhTR24hR0r4h5VBO/DM5hKIgnCugJU+6t8cbHLeTA9qA/WUGec6TTaXQ6nYj4o9ebBfrOLV3cEhzG1L5HY7PIh6LqKyqyqaZUmqN6DJ0bBP32xdvCuW+N1z1uIQei0alkfaKgOMMSxeeCEDkoSYtaBRCAU4kh8kWoHEhFDvWlI4Nu1qWXrLwe6ho+i2YrqtazfD7fV+IDAH4QSRO+NXY/biEHFP2CsUhoB4V/M4PDsCwkKXSbOIjjwPV9BJ4HZhjgALqOA5MiYA0Dru+Di06TMBkHOIfFDTDTQMIwwUwDBhhgcJhMZC7yQKT38gCySSXnXPyucREAEWTLZDLgnCEIbiHEmx23kANQKLyg4rZtS27gOA7cXg92rYae3RWhHL7oiGEwDm4aIsbJ4DC5AW4a4GDwHAeB4yJggOsBhmmCmwHgMQTMBXM4WCIBwzcRMIZe20Hg++CGAdMw4Pk+At+HHwRIpBPC31KrIZ1Og0OoHb2eyOFwfQfMSIFzhIlgAXzfg6dEKf9bjpvFrt7MYvZmz3+zY9D9byEHopwDgBRlKNCw3W5LkctgHB48uD0HnbBVAlm44nwYAGCaCfm7+G4ik8mgWCwik8lgdnYWvV4vUqKHRDQAKFXL2L9/P8rlsuj0FObcUxSxOm9qu0yWq1vjjQ9zN9GRb1XM3u242fz04EM1bsrzPPgI4Hiu1DP0bD/qjzioJAxZuGh4ngcrkRDdlRiD54s+5YPCOrbW1zFnmhgaGtrmEFQ96Ywx2SiIEOTWeOPjFudANMxdpbgEeHp+hur5Nk0TvW4X0BRpdfhuFOB5aE1qt9uRotHhBSIxYpwLTrW+vo5utytNtRRcqafyEnL8JISEv9WHuZsF/HEv8r/X/dXAPrJWdToddLq25BSRqihhcTomrUOhOLXtygoFD02znU4Htm2LEPiwy1U4iYhPw/N9gAcIFC4Q5ycBIFN+gX7l9lvjjY9bq6cMlRuQOZQQgOptyaGKP4xtS0WFykGCPvJAAfwAgO95ArkoDZaSgVRuEgSoVCpIJBLo9XqwQ52D/Bmq07JQKETitG5xkDc+biEH+uVdVJ+DZVkoFApCec5l0el00Gq10Ov1BNfwPGGeNc1tOgWNPlDGl8lEnAimiViGYSCVTWHv3r3b8j5IvKN7cc5lZC6FrFBu/K3x+scthTzm+r4vqrlXKhVUKhV0uja63S663S4cRxQW63Q6MvuQztGToei6ltmv5hgXQpJOp7fVyiKfi2VZGB4bll1Ts9kseDKJIBB1ZjOZTCSUhboZqdHDt8YbG/8uJOXfGrjf7P3VdM5kMikBbGhoCKurq2E5UQZwDmYYSKbTSKRSEgmo9qsaYq4iSTabj7SHVuO4KMVVbRCqNoUEANcVYp3I8HPB0TfbEsLl83m4PQflclmuGVWOfLPr/2bHm73/j2v+t/gtILP1SNmuVCpot9vodrvgpgF0dz5fTdGloYaGqPqLGqhIcVWu68pWcKSs03mCi0Tr14JFAxU552i328ik0rBtG4ZhyKZAVEny1nj945YhHNFgw16vh+npaUxPT8N1XQmoOw0VEdRCC2oCEt0HwDYOo7Zl8DwPmUwG5XIZ+XxeArYeHKn6O5LJJGzbxvj4OEZGRqRnXzX13hqvf9wiKeGg5u6WZeHYsWOwLAt/93d/hzOvnL3puUTV9UaXAKTfRM+bVoFdLdfj+z663a4081IksHoPNcBR1T2GhoZk2zCgX8PrFud4Y+MW58D25jDZbBb33XcfDh48uKs6rqp/JFIYIfyPQk/U3wGBOIlEQnYw6nQ6MAxD9nFXk6nUe6jilGEYqFQq+PjHP45PfepTMAxDBkxSfNit8cbGLZKCvqXJtm2k02mpyFJJmZvZe9Q877hBtXJpEKATsjihE5Cu4ziOFLEAwHG6kRB3Hpp4qXTQb/7mb+L++++XnY7y+by8XqvVetP9uP+jjlvIAUhFOJPJRJKLhoeHhUjS64mSnPRC+NK+A9tL7wAQDTsZ4HgufFC5UA4v8MECH61mGyMjI0ilUlhcXMT169fR7XZRLpdRLpdhMEjHJGMMXEummpqaEjknXt8hSLW3stnsj91a9ZM6biEH+kXgKGGJBlmtbjbUwguRQggyVdaU9wCwTeQqlUpwXRezs7NYWFgAAExPTyObzcrweTpP95EIU3EWCSsBZvV/IytVt9t9y1Yxf6uPf5fYqh93+MLN7k+tfSn8nMSpubk5ZDIZtG0bgdtPhyXgUysb6kGKJKoJUUn4KPrOPQ7GAgA+kskUNjbWUK1WUattolwuIp/P49q1a+CcY2hoCCwA2u12v2i148iaWtPT0xLp1PuTeTrOzHxr7G7c4hwQFioqzEZ1cT/zmc/ge9/73jbrE33WTav673ou+E6DOAdxL8/zsLGxAbgu1paW+jIblfAJ801arRaCIMBv/dZv4UMf+hCe+IVfBIAIgqv9Fm+N1zduWauUQSbPVquFZ599FouLi33ADwa/As8XtWsDwGBcvjgYONiO57IA8F2RPJW0EoJLNFtgUpGRJdYBz4MX9hdJp9PI5/PIZrO4fPkynn32WWxubgKI1qa9ZcZ94+P/B6Fc+ffcQTlwAAAAAElFTkSuQmCC;" parent="1" vertex="1">
          <mxGeometry x="120" y="107" width="199" height="218" as="geometry" />
        </mxCell>
        <mxCell id="r32NBZHfsy_EUD98Y5zu-5" value="Text" style="text;html=1;strokeColor=none;fillColor=none;align=center;verticalAlign=middle;whiteSpace=wrap;rounded=0;" parent="1" vertex="1">
          <mxGeometry x="500" y="260" width="60" height="30" as="geometry" />
        </mxCell>
        <mxCell id="r32NBZHfsy_EUD98Y5zu-6" value="Client" style="text;html=1;align=center;verticalAlign=middle;resizable=0;points=[];autosize=1;strokeColor=none;fillColor=none;" parent="1" vertex="1">
          <mxGeometry x="175" y="58" width="50" height="30" as="geometry" />
        </mxCell>
        <mxCell id="r32NBZHfsy_EUD98Y5zu-7" value="Adapter" style="text;html=1;align=center;verticalAlign=middle;resizable=0;points=[];autosize=1;strokeColor=none;fillColor=none;" parent="1" vertex="1">
          <mxGeometry x="450" y="58" width="70" height="30" as="geometry" />
        </mxCell>
        <mxCell id="r32NBZHfsy_EUD98Y5zu-8" value="Adaptee" style="text;html=1;align=center;verticalAlign=middle;resizable=0;points=[];autosize=1;strokeColor=none;fillColor=none;" parent="1" vertex="1">
          <mxGeometry x="725" y="58" width="70" height="30" as="geometry" />
        </mxCell>
        <mxCell id="PrueTENqmc_LoTW6bZMC-1" value="Client" style="html=1;whiteSpace=wrap;" vertex="1" parent="1">
          <mxGeometry x="360" y="535" width="110" height="50" as="geometry" />
        </mxCell>
        <mxCell id="PrueTENqmc_LoTW6bZMC-2" value="&amp;lt;&amp;lt;interface&amp;gt;&amp;gt;" style="swimlane;fontStyle=1;align=center;verticalAlign=top;childLayout=stackLayout;horizontal=1;startSize=26;horizontalStack=0;resizeParent=1;resizeParentMax=0;resizeLast=0;collapsible=1;marginBottom=0;whiteSpace=wrap;html=1;" vertex="1" parent="1">
          <mxGeometry x="560" y="510" width="160" height="86" as="geometry" />
        </mxCell>
        <mxCell id="PrueTENqmc_LoTW6bZMC-3" value="+ field: type" style="text;strokeColor=none;fillColor=none;align=left;verticalAlign=top;spacingLeft=4;spacingRight=4;overflow=hidden;rotatable=0;points=[[0,0.5],[1,0.5]];portConstraint=eastwest;whiteSpace=wrap;html=1;" vertex="1" parent="PrueTENqmc_LoTW6bZMC-2">
          <mxGeometry y="26" width="160" height="26" as="geometry" />
        </mxCell>
        <mxCell id="PrueTENqmc_LoTW6bZMC-4" value="" style="line;strokeWidth=1;fillColor=none;align=left;verticalAlign=middle;spacingTop=-1;spacingLeft=3;spacingRight=3;rotatable=0;labelPosition=right;points=[];portConstraint=eastwest;strokeColor=inherit;" vertex="1" parent="PrueTENqmc_LoTW6bZMC-2">
          <mxGeometry y="52" width="160" height="8" as="geometry" />
        </mxCell>
        <mxCell id="PrueTENqmc_LoTW6bZMC-5" value="+ method(type): type" style="text;strokeColor=none;fillColor=none;align=left;verticalAlign=top;spacingLeft=4;spacingRight=4;overflow=hidden;rotatable=0;points=[[0,0.5],[1,0.5]];portConstraint=eastwest;whiteSpace=wrap;html=1;" vertex="1" parent="PrueTENqmc_LoTW6bZMC-2">
          <mxGeometry y="60" width="160" height="26" as="geometry" />
        </mxCell>
        <mxCell id="PrueTENqmc_LoTW6bZMC-6" value="Adapter" style="swimlane;fontStyle=1;align=center;verticalAlign=top;childLayout=stackLayout;horizontal=1;startSize=26;horizontalStack=0;resizeParent=1;resizeParentMax=0;resizeLast=0;collapsible=1;marginBottom=0;whiteSpace=wrap;html=1;" vertex="1" parent="1">
          <mxGeometry x="560" y="700" width="160" height="86" as="geometry" />
        </mxCell>
        <mxCell id="PrueTENqmc_LoTW6bZMC-7" value="+ adaptee: Service" style="text;strokeColor=none;fillColor=none;align=left;verticalAlign=top;spacingLeft=4;spacingRight=4;overflow=hidden;rotatable=0;points=[[0,0.5],[1,0.5]];portConstraint=eastwest;whiteSpace=wrap;html=1;" vertex="1" parent="PrueTENqmc_LoTW6bZMC-6">
          <mxGeometry y="26" width="160" height="26" as="geometry" />
        </mxCell>
        <mxCell id="PrueTENqmc_LoTW6bZMC-8" value="" style="line;strokeWidth=1;fillColor=none;align=left;verticalAlign=middle;spacingTop=-1;spacingLeft=3;spacingRight=3;rotatable=0;labelPosition=right;points=[];portConstraint=eastwest;strokeColor=inherit;" vertex="1" parent="PrueTENqmc_LoTW6bZMC-6">
          <mxGeometry y="52" width="160" height="8" as="geometry" />
        </mxCell>
        <mxCell id="PrueTENqmc_LoTW6bZMC-9" value="+ method(type): type" style="text;strokeColor=none;fillColor=none;align=left;verticalAlign=top;spacingLeft=4;spacingRight=4;overflow=hidden;rotatable=0;points=[[0,0.5],[1,0.5]];portConstraint=eastwest;whiteSpace=wrap;html=1;" vertex="1" parent="PrueTENqmc_LoTW6bZMC-6">
          <mxGeometry y="60" width="160" height="26" as="geometry" />
        </mxCell>
        <mxCell id="PrueTENqmc_LoTW6bZMC-14" value="Service" style="swimlane;fontStyle=1;align=center;verticalAlign=top;childLayout=stackLayout;horizontal=1;startSize=26;horizontalStack=0;resizeParent=1;resizeParentMax=0;resizeLast=0;collapsible=1;marginBottom=0;whiteSpace=wrap;html=1;" vertex="1" parent="1">
          <mxGeometry x="810" y="700" width="160" height="86" as="geometry" />
        </mxCell>
        <mxCell id="PrueTENqmc_LoTW6bZMC-15" value="+ field: type" style="text;strokeColor=none;fillColor=none;align=left;verticalAlign=top;spacingLeft=4;spacingRight=4;overflow=hidden;rotatable=0;points=[[0,0.5],[1,0.5]];portConstraint=eastwest;whiteSpace=wrap;html=1;" vertex="1" parent="PrueTENqmc_LoTW6bZMC-14">
          <mxGeometry y="26" width="160" height="26" as="geometry" />
        </mxCell>
        <mxCell id="PrueTENqmc_LoTW6bZMC-16" value="" style="line;strokeWidth=1;fillColor=none;align=left;verticalAlign=middle;spacingTop=-1;spacingLeft=3;spacingRight=3;rotatable=0;labelPosition=right;points=[];portConstraint=eastwest;strokeColor=inherit;" vertex="1" parent="PrueTENqmc_LoTW6bZMC-14">
          <mxGeometry y="52" width="160" height="8" as="geometry" />
        </mxCell>
        <mxCell id="PrueTENqmc_LoTW6bZMC-17" value="+ serviceMethod(type): type" style="text;strokeColor=none;fillColor=none;align=left;verticalAlign=top;spacingLeft=4;spacingRight=4;overflow=hidden;rotatable=0;points=[[0,0.5],[1,0.5]];portConstraint=eastwest;whiteSpace=wrap;html=1;" vertex="1" parent="PrueTENqmc_LoTW6bZMC-14">
          <mxGeometry y="60" width="160" height="26" as="geometry" />
        </mxCell>
        <mxCell id="PrueTENqmc_LoTW6bZMC-18" value="" style="endArrow=diamondThin;endFill=0;endSize=24;html=1;rounded=0;entryX=0;entryY=0.5;entryDx=0;entryDy=0;" edge="1" parent="1" source="PrueTENqmc_LoTW6bZMC-7" target="PrueTENqmc_LoTW6bZMC-15">
          <mxGeometry width="160" relative="1" as="geometry">
            <mxPoint x="570" y="540" as="sourcePoint" />
            <mxPoint x="730" y="540" as="targetPoint" />
          </mxGeometry>
        </mxCell>
        <mxCell id="PrueTENqmc_LoTW6bZMC-19" value="" style="endArrow=block;dashed=1;endFill=0;endSize=12;html=1;rounded=0;exitX=0.463;exitY=-0.047;exitDx=0;exitDy=0;exitPerimeter=0;" edge="1" parent="1" source="PrueTENqmc_LoTW6bZMC-6">
          <mxGeometry width="160" relative="1" as="geometry">
            <mxPoint x="570" y="480" as="sourcePoint" />
            <mxPoint x="634" y="600" as="targetPoint" />
          </mxGeometry>
        </mxCell>
        <mxCell id="PrueTENqmc_LoTW6bZMC-20" style="edgeStyle=orthogonalEdgeStyle;rounded=0;orthogonalLoop=1;jettySize=auto;html=1;entryX=-0.006;entryY=0.923;entryDx=0;entryDy=0;entryPerimeter=0;" edge="1" parent="1" source="PrueTENqmc_LoTW6bZMC-1" target="PrueTENqmc_LoTW6bZMC-3">
          <mxGeometry relative="1" as="geometry" />
        </mxCell>
        <mxCell id="PrueTENqmc_LoTW6bZMC-36" style="edgeStyle=orthogonalEdgeStyle;rounded=0;orthogonalLoop=1;jettySize=auto;html=1;entryX=0;entryY=0.5;entryDx=0;entryDy=0;" edge="1" parent="1" source="PrueTENqmc_LoTW6bZMC-21" target="PrueTENqmc_LoTW6bZMC-23">
          <mxGeometry relative="1" as="geometry" />
        </mxCell>
        <mxCell id="PrueTENqmc_LoTW6bZMC-21" value="Client" style="html=1;whiteSpace=wrap;" vertex="1" parent="1">
          <mxGeometry x="1230" y="630" width="110" height="50" as="geometry" />
        </mxCell>
        <mxCell id="PrueTENqmc_LoTW6bZMC-22" value="Existing Class" style="swimlane;fontStyle=1;align=center;verticalAlign=top;childLayout=stackLayout;horizontal=1;startSize=26;horizontalStack=0;resizeParent=1;resizeParentMax=0;resizeLast=0;collapsible=1;marginBottom=0;whiteSpace=wrap;html=1;" vertex="1" parent="1">
          <mxGeometry x="1450" y="570" width="160" height="86" as="geometry" />
        </mxCell>
        <mxCell id="PrueTENqmc_LoTW6bZMC-23" value="+ field: type" style="text;strokeColor=none;fillColor=none;align=left;verticalAlign=top;spacingLeft=4;spacingRight=4;overflow=hidden;rotatable=0;points=[[0,0.5],[1,0.5]];portConstraint=eastwest;whiteSpace=wrap;html=1;" vertex="1" parent="PrueTENqmc_LoTW6bZMC-22">
          <mxGeometry y="26" width="160" height="26" as="geometry" />
        </mxCell>
        <mxCell id="PrueTENqmc_LoTW6bZMC-24" value="" style="line;strokeWidth=1;fillColor=none;align=left;verticalAlign=middle;spacingTop=-1;spacingLeft=3;spacingRight=3;rotatable=0;labelPosition=right;points=[];portConstraint=eastwest;strokeColor=inherit;" vertex="1" parent="PrueTENqmc_LoTW6bZMC-22">
          <mxGeometry y="52" width="160" height="8" as="geometry" />
        </mxCell>
        <mxCell id="PrueTENqmc_LoTW6bZMC-25" value="+ method(type): type" style="text;strokeColor=none;fillColor=none;align=left;verticalAlign=top;spacingLeft=4;spacingRight=4;overflow=hidden;rotatable=0;points=[[0,0.5],[1,0.5]];portConstraint=eastwest;whiteSpace=wrap;html=1;" vertex="1" parent="PrueTENqmc_LoTW6bZMC-22">
          <mxGeometry y="60" width="160" height="26" as="geometry" />
        </mxCell>
        <mxCell id="PrueTENqmc_LoTW6bZMC-26" value="Service" style="swimlane;fontStyle=1;align=center;verticalAlign=top;childLayout=stackLayout;horizontal=1;startSize=26;horizontalStack=0;resizeParent=1;resizeParentMax=0;resizeLast=0;collapsible=1;marginBottom=0;whiteSpace=wrap;html=1;" vertex="1" parent="1">
          <mxGeometry x="1670" y="570" width="190" height="86" as="geometry" />
        </mxCell>
        <mxCell id="PrueTENqmc_LoTW6bZMC-27" value="+ field: type" style="text;strokeColor=none;fillColor=none;align=left;verticalAlign=top;spacingLeft=4;spacingRight=4;overflow=hidden;rotatable=0;points=[[0,0.5],[1,0.5]];portConstraint=eastwest;whiteSpace=wrap;html=1;" vertex="1" parent="PrueTENqmc_LoTW6bZMC-26">
          <mxGeometry y="26" width="190" height="26" as="geometry" />
        </mxCell>
        <mxCell id="PrueTENqmc_LoTW6bZMC-28" value="" style="line;strokeWidth=1;fillColor=none;align=left;verticalAlign=middle;spacingTop=-1;spacingLeft=3;spacingRight=3;rotatable=0;labelPosition=right;points=[];portConstraint=eastwest;strokeColor=inherit;" vertex="1" parent="PrueTENqmc_LoTW6bZMC-26">
          <mxGeometry y="52" width="190" height="8" as="geometry" />
        </mxCell>
        <mxCell id="PrueTENqmc_LoTW6bZMC-29" value="+ service_method(type): type" style="text;strokeColor=none;fillColor=none;align=left;verticalAlign=top;spacingLeft=4;spacingRight=4;overflow=hidden;rotatable=0;points=[[0,0.5],[1,0.5]];portConstraint=eastwest;whiteSpace=wrap;html=1;" vertex="1" parent="PrueTENqmc_LoTW6bZMC-26">
          <mxGeometry y="60" width="190" height="26" as="geometry" />
        </mxCell>
        <mxCell id="PrueTENqmc_LoTW6bZMC-34" style="edgeStyle=orthogonalEdgeStyle;rounded=0;orthogonalLoop=1;jettySize=auto;html=1;" edge="1" parent="1" source="PrueTENqmc_LoTW6bZMC-30">
          <mxGeometry relative="1" as="geometry">
            <mxPoint x="1520" y="660" as="targetPoint" />
          </mxGeometry>
        </mxCell>
        <mxCell id="PrueTENqmc_LoTW6bZMC-30" value="Adapter" style="swimlane;fontStyle=1;align=center;verticalAlign=top;childLayout=stackLayout;horizontal=1;startSize=26;horizontalStack=0;resizeParent=1;resizeParentMax=0;resizeLast=0;collapsible=1;marginBottom=0;whiteSpace=wrap;html=1;" vertex="1" parent="1">
          <mxGeometry x="1560" y="720" width="160" height="86" as="geometry" />
        </mxCell>
        <mxCell id="PrueTENqmc_LoTW6bZMC-31" value="+ field: type" style="text;strokeColor=none;fillColor=none;align=left;verticalAlign=top;spacingLeft=4;spacingRight=4;overflow=hidden;rotatable=0;points=[[0,0.5],[1,0.5]];portConstraint=eastwest;whiteSpace=wrap;html=1;" vertex="1" parent="PrueTENqmc_LoTW6bZMC-30">
          <mxGeometry y="26" width="160" height="26" as="geometry" />
        </mxCell>
        <mxCell id="PrueTENqmc_LoTW6bZMC-32" value="" style="line;strokeWidth=1;fillColor=none;align=left;verticalAlign=middle;spacingTop=-1;spacingLeft=3;spacingRight=3;rotatable=0;labelPosition=right;points=[];portConstraint=eastwest;strokeColor=inherit;" vertex="1" parent="PrueTENqmc_LoTW6bZMC-30">
          <mxGeometry y="52" width="160" height="8" as="geometry" />
        </mxCell>
        <mxCell id="PrueTENqmc_LoTW6bZMC-33" value="+ method(type): type" style="text;strokeColor=none;fillColor=none;align=left;verticalAlign=top;spacingLeft=4;spacingRight=4;overflow=hidden;rotatable=0;points=[[0,0.5],[1,0.5]];portConstraint=eastwest;whiteSpace=wrap;html=1;" vertex="1" parent="PrueTENqmc_LoTW6bZMC-30">
          <mxGeometry y="60" width="160" height="26" as="geometry" />
        </mxCell>
        <mxCell id="PrueTENqmc_LoTW6bZMC-35" style="edgeStyle=orthogonalEdgeStyle;rounded=0;orthogonalLoop=1;jettySize=auto;html=1;entryX=0.67;entryY=1;entryDx=0;entryDy=0;entryPerimeter=0;" edge="1" parent="1" source="PrueTENqmc_LoTW6bZMC-32" target="PrueTENqmc_LoTW6bZMC-29">
          <mxGeometry relative="1" as="geometry" />
        </mxCell>
      </root>
    </mxGraphModel>
  </diagram>
</mxfile>
